%TF.GenerationSoftware,KiCad,Pcbnew,9.0.3*%
%TF.CreationDate,2025-08-29T16:02:41+02:00*%
%TF.ProjectId,friedman,66726965-646d-4616-9e2e-6b696361645f,rev?*%
%TF.SameCoordinates,Original*%
%TF.FileFunction,Soldermask,Bot*%
%TF.FilePolarity,Negative*%
%FSLAX46Y46*%
G04 Gerber Fmt 4.6, Leading zero omitted, Abs format (unit mm)*
G04 Created by KiCad (PCBNEW 9.0.3) date 2025-08-29 16:02:41*
%MOMM*%
%LPD*%
G01*
G04 APERTURE LIST*
G04 APERTURE END LIST*
G36*
X115100168Y-105041445D02*
G01*
X115324025Y-105114181D01*
X115533748Y-105221040D01*
X115724172Y-105359391D01*
X115890609Y-105525828D01*
X116028960Y-105716252D01*
X116135819Y-105925975D01*
X116208555Y-106149832D01*
X116245376Y-106382311D01*
X116245376Y-106617689D01*
X116208555Y-106850168D01*
X116135819Y-107074025D01*
X116028960Y-107283748D01*
X115890609Y-107474172D01*
X115724172Y-107640609D01*
X115533748Y-107778960D01*
X115324025Y-107885819D01*
X115100168Y-107958555D01*
X114867689Y-107995376D01*
X114632311Y-107995376D01*
X114399832Y-107958555D01*
X114175975Y-107885819D01*
X113966252Y-107778960D01*
X113775828Y-107640609D01*
X113609391Y-107474172D01*
X113471040Y-107283748D01*
X113364181Y-107074025D01*
X113291445Y-106850168D01*
X113254624Y-106617689D01*
X113254624Y-106382311D01*
X113291445Y-106149832D01*
X113364181Y-105925975D01*
X113471040Y-105716252D01*
X113609391Y-105525828D01*
X113775828Y-105359391D01*
X113966252Y-105221040D01*
X114175975Y-105114181D01*
X114399832Y-105041445D01*
X114632311Y-105004624D01*
X114867689Y-105004624D01*
X115100168Y-105041445D01*
G37*
G36*
X205600168Y-105041445D02*
G01*
X205824025Y-105114181D01*
X206033748Y-105221040D01*
X206224172Y-105359391D01*
X206390609Y-105525828D01*
X206528960Y-105716252D01*
X206635819Y-105925975D01*
X206708555Y-106149832D01*
X206745376Y-106382311D01*
X206745376Y-106617689D01*
X206708555Y-106850168D01*
X206635819Y-107074025D01*
X206528960Y-107283748D01*
X206390609Y-107474172D01*
X206224172Y-107640609D01*
X206033748Y-107778960D01*
X205824025Y-107885819D01*
X205600168Y-107958555D01*
X205367689Y-107995376D01*
X205132311Y-107995376D01*
X204899832Y-107958555D01*
X204675975Y-107885819D01*
X204466252Y-107778960D01*
X204275828Y-107640609D01*
X204109391Y-107474172D01*
X203971040Y-107283748D01*
X203864181Y-107074025D01*
X203791445Y-106850168D01*
X203754624Y-106617689D01*
X203754624Y-106382311D01*
X203791445Y-106149832D01*
X203864181Y-105925975D01*
X203971040Y-105716252D01*
X204109391Y-105525828D01*
X204275828Y-105359391D01*
X204466252Y-105221040D01*
X204675975Y-105114181D01*
X204899832Y-105041445D01*
X205132311Y-105004624D01*
X205367689Y-105004624D01*
X205600168Y-105041445D01*
G37*
G36*
X175244850Y-102920964D02*
G01*
X175295040Y-102926787D01*
X175312189Y-102934359D01*
X175335671Y-102939030D01*
X175360810Y-102955827D01*
X175380696Y-102964608D01*
X175394277Y-102978189D01*
X175416777Y-102993223D01*
X175431810Y-103015722D01*
X175445391Y-103029303D01*
X175454170Y-103049186D01*
X175470970Y-103074329D01*
X175475641Y-103097812D01*
X175483212Y-103114959D01*
X175489033Y-103165139D01*
X175490000Y-103170000D01*
X175490000Y-105070000D01*
X175489032Y-105074863D01*
X175483212Y-105125040D01*
X175475641Y-105142185D01*
X175470970Y-105165671D01*
X175454169Y-105190815D01*
X175445391Y-105210696D01*
X175431812Y-105224274D01*
X175416777Y-105246777D01*
X175394274Y-105261812D01*
X175380696Y-105275391D01*
X175360815Y-105284169D01*
X175335671Y-105300970D01*
X175312185Y-105305641D01*
X175295040Y-105313212D01*
X175244861Y-105319032D01*
X175240000Y-105320000D01*
X174140000Y-105320000D01*
X174135138Y-105319032D01*
X174084959Y-105313212D01*
X174067812Y-105305641D01*
X174044329Y-105300970D01*
X174019186Y-105284170D01*
X173999303Y-105275391D01*
X173985722Y-105261810D01*
X173963223Y-105246777D01*
X173948189Y-105224277D01*
X173934608Y-105210696D01*
X173925827Y-105190810D01*
X173909030Y-105165671D01*
X173904359Y-105142189D01*
X173896787Y-105125040D01*
X173890964Y-105074849D01*
X173890000Y-105070000D01*
X173890000Y-103170000D01*
X173890964Y-103165150D01*
X173896787Y-103114959D01*
X173904359Y-103097808D01*
X173909030Y-103074329D01*
X173925826Y-103049191D01*
X173934608Y-103029303D01*
X173948191Y-103015719D01*
X173963223Y-102993223D01*
X173985719Y-102978191D01*
X173999303Y-102964608D01*
X174019191Y-102955826D01*
X174044329Y-102939030D01*
X174067808Y-102934359D01*
X174084959Y-102926787D01*
X174135151Y-102920964D01*
X174140000Y-102920000D01*
X175240000Y-102920000D01*
X175244850Y-102920964D01*
G37*
G36*
X177462228Y-102954448D02*
G01*
X177607117Y-103014463D01*
X177737515Y-103101592D01*
X177848408Y-103212485D01*
X177935537Y-103342883D01*
X177995552Y-103487772D01*
X178026148Y-103641586D01*
X178030000Y-103720000D01*
X178030000Y-104520000D01*
X178026148Y-104598414D01*
X177995552Y-104752228D01*
X177935537Y-104897117D01*
X177848408Y-105027515D01*
X177737515Y-105138408D01*
X177607117Y-105225537D01*
X177462228Y-105285552D01*
X177308414Y-105316148D01*
X177151586Y-105316148D01*
X176997772Y-105285552D01*
X176852883Y-105225537D01*
X176722485Y-105138408D01*
X176611592Y-105027515D01*
X176524463Y-104897117D01*
X176464448Y-104752228D01*
X176433852Y-104598414D01*
X176430000Y-104520000D01*
X176430000Y-103720000D01*
X176433852Y-103641586D01*
X176464448Y-103487772D01*
X176524463Y-103342883D01*
X176611592Y-103212485D01*
X176722485Y-103101592D01*
X176852883Y-103014463D01*
X176997772Y-102954448D01*
X177151586Y-102923852D01*
X177308414Y-102923852D01*
X177462228Y-102954448D01*
G37*
G36*
X180002228Y-102954448D02*
G01*
X180147117Y-103014463D01*
X180277515Y-103101592D01*
X180388408Y-103212485D01*
X180475537Y-103342883D01*
X180535552Y-103487772D01*
X180566148Y-103641586D01*
X180570000Y-103720000D01*
X180570000Y-104520000D01*
X180566148Y-104598414D01*
X180535552Y-104752228D01*
X180475537Y-104897117D01*
X180388408Y-105027515D01*
X180277515Y-105138408D01*
X180147117Y-105225537D01*
X180002228Y-105285552D01*
X179848414Y-105316148D01*
X179691586Y-105316148D01*
X179537772Y-105285552D01*
X179392883Y-105225537D01*
X179262485Y-105138408D01*
X179151592Y-105027515D01*
X179064463Y-104897117D01*
X179004448Y-104752228D01*
X178973852Y-104598414D01*
X178970000Y-104520000D01*
X178970000Y-103720000D01*
X178973852Y-103641586D01*
X179004448Y-103487772D01*
X179064463Y-103342883D01*
X179151592Y-103212485D01*
X179262485Y-103101592D01*
X179392883Y-103014463D01*
X179537772Y-102954448D01*
X179691586Y-102923852D01*
X179848414Y-102923852D01*
X180002228Y-102954448D01*
G37*
G36*
X182542228Y-102954448D02*
G01*
X182687117Y-103014463D01*
X182817515Y-103101592D01*
X182928408Y-103212485D01*
X183015537Y-103342883D01*
X183075552Y-103487772D01*
X183106148Y-103641586D01*
X183110000Y-103720000D01*
X183110000Y-104520000D01*
X183106148Y-104598414D01*
X183075552Y-104752228D01*
X183015537Y-104897117D01*
X182928408Y-105027515D01*
X182817515Y-105138408D01*
X182687117Y-105225537D01*
X182542228Y-105285552D01*
X182388414Y-105316148D01*
X182231586Y-105316148D01*
X182077772Y-105285552D01*
X181932883Y-105225537D01*
X181802485Y-105138408D01*
X181691592Y-105027515D01*
X181604463Y-104897117D01*
X181544448Y-104752228D01*
X181513852Y-104598414D01*
X181510000Y-104520000D01*
X181510000Y-103720000D01*
X181513852Y-103641586D01*
X181544448Y-103487772D01*
X181604463Y-103342883D01*
X181691592Y-103212485D01*
X181802485Y-103101592D01*
X181932883Y-103014463D01*
X182077772Y-102954448D01*
X182231586Y-102923852D01*
X182388414Y-102923852D01*
X182542228Y-102954448D01*
G37*
G36*
X134482228Y-103484448D02*
G01*
X134627117Y-103544463D01*
X134757515Y-103631592D01*
X134868408Y-103742485D01*
X134955537Y-103872883D01*
X135015552Y-104017772D01*
X135046148Y-104171586D01*
X135046148Y-104328414D01*
X135015552Y-104482228D01*
X134955537Y-104627117D01*
X134868408Y-104757515D01*
X134757515Y-104868408D01*
X134627117Y-104955537D01*
X134482228Y-105015552D01*
X134328414Y-105046148D01*
X134171586Y-105046148D01*
X134017772Y-105015552D01*
X133872883Y-104955537D01*
X133742485Y-104868408D01*
X133631592Y-104757515D01*
X133544463Y-104627117D01*
X133484448Y-104482228D01*
X133453852Y-104328414D01*
X133453852Y-104171586D01*
X133484448Y-104017772D01*
X133544463Y-103872883D01*
X133631592Y-103742485D01*
X133742485Y-103631592D01*
X133872883Y-103544463D01*
X134017772Y-103484448D01*
X134171586Y-103453852D01*
X134328414Y-103453852D01*
X134482228Y-103484448D01*
G37*
G36*
X191354850Y-102025964D02*
G01*
X191405040Y-102031787D01*
X191422189Y-102039359D01*
X191445671Y-102044030D01*
X191470810Y-102060827D01*
X191490696Y-102069608D01*
X191504277Y-102083189D01*
X191526777Y-102098223D01*
X191541810Y-102120722D01*
X191555391Y-102134303D01*
X191564170Y-102154186D01*
X191580970Y-102179329D01*
X191585641Y-102202812D01*
X191593212Y-102219959D01*
X191599033Y-102270139D01*
X191600000Y-102275000D01*
X191600000Y-103725000D01*
X191599032Y-103729863D01*
X191593212Y-103780040D01*
X191585641Y-103797185D01*
X191580970Y-103820671D01*
X191564169Y-103845815D01*
X191555391Y-103865696D01*
X191541812Y-103879274D01*
X191526777Y-103901777D01*
X191504274Y-103916812D01*
X191490696Y-103930391D01*
X191470815Y-103939169D01*
X191445671Y-103955970D01*
X191422185Y-103960641D01*
X191405040Y-103968212D01*
X191354861Y-103974032D01*
X191350000Y-103975000D01*
X190150000Y-103975000D01*
X190145138Y-103974032D01*
X190094959Y-103968212D01*
X190077812Y-103960641D01*
X190054329Y-103955970D01*
X190029186Y-103939170D01*
X190009303Y-103930391D01*
X189995722Y-103916810D01*
X189973223Y-103901777D01*
X189958189Y-103879277D01*
X189944608Y-103865696D01*
X189935827Y-103845810D01*
X189919030Y-103820671D01*
X189914359Y-103797189D01*
X189906787Y-103780040D01*
X189900964Y-103729849D01*
X189900000Y-103725000D01*
X189900000Y-102275000D01*
X189900964Y-102270150D01*
X189906787Y-102219959D01*
X189914359Y-102202808D01*
X189919030Y-102179329D01*
X189935826Y-102154191D01*
X189944608Y-102134303D01*
X189958191Y-102120719D01*
X189973223Y-102098223D01*
X189995719Y-102083191D01*
X190009303Y-102069608D01*
X190029191Y-102060826D01*
X190054329Y-102044030D01*
X190077808Y-102039359D01*
X190094959Y-102031787D01*
X190145151Y-102025964D01*
X190150000Y-102025000D01*
X191350000Y-102025000D01*
X191354850Y-102025964D01*
G37*
G36*
X193496742Y-102061601D02*
G01*
X193650687Y-102125367D01*
X193789234Y-102217941D01*
X193907059Y-102335766D01*
X193999633Y-102474313D01*
X194063399Y-102628258D01*
X194095907Y-102791685D01*
X194100000Y-102875000D01*
X194100000Y-103125000D01*
X194095907Y-103208315D01*
X194063399Y-103371742D01*
X193999633Y-103525687D01*
X193907059Y-103664234D01*
X193789234Y-103782059D01*
X193650687Y-103874633D01*
X193496742Y-103938399D01*
X193333315Y-103970907D01*
X193166685Y-103970907D01*
X193003258Y-103938399D01*
X192849313Y-103874633D01*
X192710766Y-103782059D01*
X192592941Y-103664234D01*
X192500367Y-103525687D01*
X192436601Y-103371742D01*
X192404093Y-103208315D01*
X192400000Y-103125000D01*
X192400000Y-102875000D01*
X192404093Y-102791685D01*
X192436601Y-102628258D01*
X192500367Y-102474313D01*
X192592941Y-102335766D01*
X192710766Y-102217941D01*
X192849313Y-102125367D01*
X193003258Y-102061601D01*
X193166685Y-102029093D01*
X193333315Y-102029093D01*
X193496742Y-102061601D01*
G37*
G36*
X195996742Y-102061601D02*
G01*
X196150687Y-102125367D01*
X196289234Y-102217941D01*
X196407059Y-102335766D01*
X196499633Y-102474313D01*
X196563399Y-102628258D01*
X196595907Y-102791685D01*
X196600000Y-102875000D01*
X196600000Y-103125000D01*
X196595907Y-103208315D01*
X196563399Y-103371742D01*
X196499633Y-103525687D01*
X196407059Y-103664234D01*
X196289234Y-103782059D01*
X196150687Y-103874633D01*
X195996742Y-103938399D01*
X195833315Y-103970907D01*
X195666685Y-103970907D01*
X195503258Y-103938399D01*
X195349313Y-103874633D01*
X195210766Y-103782059D01*
X195092941Y-103664234D01*
X195000367Y-103525687D01*
X194936601Y-103371742D01*
X194904093Y-103208315D01*
X194900000Y-103125000D01*
X194900000Y-102875000D01*
X194904093Y-102791685D01*
X194936601Y-102628258D01*
X195000367Y-102474313D01*
X195092941Y-102335766D01*
X195210766Y-102217941D01*
X195349313Y-102125367D01*
X195503258Y-102061601D01*
X195666685Y-102029093D01*
X195833315Y-102029093D01*
X195996742Y-102061601D01*
G37*
G36*
X198496742Y-102061601D02*
G01*
X198650687Y-102125367D01*
X198789234Y-102217941D01*
X198907059Y-102335766D01*
X198999633Y-102474313D01*
X199063399Y-102628258D01*
X199095907Y-102791685D01*
X199100000Y-102875000D01*
X199100000Y-103125000D01*
X199095907Y-103208315D01*
X199063399Y-103371742D01*
X198999633Y-103525687D01*
X198907059Y-103664234D01*
X198789234Y-103782059D01*
X198650687Y-103874633D01*
X198496742Y-103938399D01*
X198333315Y-103970907D01*
X198166685Y-103970907D01*
X198003258Y-103938399D01*
X197849313Y-103874633D01*
X197710766Y-103782059D01*
X197592941Y-103664234D01*
X197500367Y-103525687D01*
X197436601Y-103371742D01*
X197404093Y-103208315D01*
X197400000Y-103125000D01*
X197400000Y-102875000D01*
X197404093Y-102791685D01*
X197436601Y-102628258D01*
X197500367Y-102474313D01*
X197592941Y-102335766D01*
X197710766Y-102217941D01*
X197849313Y-102125367D01*
X198003258Y-102061601D01*
X198166685Y-102029093D01*
X198333315Y-102029093D01*
X198496742Y-102061601D01*
G37*
G36*
X167434850Y-99400964D02*
G01*
X167485041Y-99406787D01*
X167502191Y-99414359D01*
X167525671Y-99419030D01*
X167550806Y-99435825D01*
X167570696Y-99444607D01*
X167584280Y-99458191D01*
X167606777Y-99473223D01*
X167621808Y-99495719D01*
X167635392Y-99509303D01*
X167644173Y-99529190D01*
X167660970Y-99554329D01*
X167665640Y-99577809D01*
X167673212Y-99594958D01*
X167679036Y-99645161D01*
X167679999Y-99650000D01*
X167679999Y-99653456D01*
X167680000Y-99653465D01*
X167680000Y-100586291D01*
X167680000Y-101350001D01*
X167679034Y-101354853D01*
X167673212Y-101405041D01*
X167665641Y-101422187D01*
X167660970Y-101445671D01*
X167644171Y-101470811D01*
X167635392Y-101490696D01*
X167621810Y-101504277D01*
X167606777Y-101526777D01*
X167584277Y-101541810D01*
X167570696Y-101555392D01*
X167550811Y-101564171D01*
X167525671Y-101580970D01*
X167502188Y-101585640D01*
X167485041Y-101593212D01*
X167434838Y-101599036D01*
X167430000Y-101599999D01*
X167426543Y-101599999D01*
X167426535Y-101600000D01*
X165733465Y-101600000D01*
X165733464Y-101599999D01*
X165729999Y-101600000D01*
X165725147Y-101599035D01*
X165674958Y-101593212D01*
X165657810Y-101585640D01*
X165634329Y-101580970D01*
X165609190Y-101564173D01*
X165589303Y-101555392D01*
X165575719Y-101541808D01*
X165553223Y-101526777D01*
X165538191Y-101504280D01*
X165524607Y-101490696D01*
X165515825Y-101470806D01*
X165499030Y-101445671D01*
X165494360Y-101422192D01*
X165486787Y-101405041D01*
X165480963Y-101354838D01*
X165480001Y-101350000D01*
X165480000Y-101346542D01*
X165480000Y-101346534D01*
X165480000Y-99653465D01*
X165480000Y-99653464D01*
X165480000Y-99649999D01*
X165480964Y-99645149D01*
X165486787Y-99594958D01*
X165494359Y-99577806D01*
X165499030Y-99554329D01*
X165515823Y-99529194D01*
X165524607Y-99509303D01*
X165538193Y-99495716D01*
X165553223Y-99473223D01*
X165575716Y-99458193D01*
X165589303Y-99444607D01*
X165609194Y-99435823D01*
X165634329Y-99419030D01*
X165657805Y-99414360D01*
X165674958Y-99406787D01*
X165725163Y-99400963D01*
X165730000Y-99400001D01*
X165733456Y-99400000D01*
X165733465Y-99400000D01*
X167426535Y-99400000D01*
X167430001Y-99400000D01*
X167434850Y-99400964D01*
G37*
G36*
X156676790Y-99430393D02*
G01*
X156840952Y-99483733D01*
X156994748Y-99562096D01*
X157134393Y-99663553D01*
X157256447Y-99785607D01*
X157357904Y-99925252D01*
X157436267Y-100079048D01*
X157489607Y-100243210D01*
X157516609Y-100413695D01*
X157516609Y-100586305D01*
X157489607Y-100756790D01*
X157436267Y-100920952D01*
X157357904Y-101074748D01*
X157256447Y-101214393D01*
X157134393Y-101336447D01*
X156994748Y-101437904D01*
X156840952Y-101516267D01*
X156676790Y-101569607D01*
X156506305Y-101596609D01*
X156333695Y-101596609D01*
X156163210Y-101569607D01*
X155999048Y-101516267D01*
X155845252Y-101437904D01*
X155705607Y-101336447D01*
X155583553Y-101214393D01*
X155482096Y-101074748D01*
X155403733Y-100920952D01*
X155350393Y-100756790D01*
X155323391Y-100586305D01*
X155323391Y-100413695D01*
X155350393Y-100243210D01*
X155403733Y-100079048D01*
X155482096Y-99925252D01*
X155583553Y-99785607D01*
X155705607Y-99663553D01*
X155845252Y-99562096D01*
X155999048Y-99483733D01*
X156163210Y-99430393D01*
X156333695Y-99403391D01*
X156506305Y-99403391D01*
X156676790Y-99430393D01*
G37*
G36*
X134482228Y-98484448D02*
G01*
X134627117Y-98544463D01*
X134757515Y-98631592D01*
X134868408Y-98742485D01*
X134955537Y-98872883D01*
X135015552Y-99017772D01*
X135046148Y-99171586D01*
X135046148Y-99328414D01*
X135015552Y-99482228D01*
X134955537Y-99627117D01*
X134868408Y-99757515D01*
X134757515Y-99868408D01*
X134627117Y-99955537D01*
X134482228Y-100015552D01*
X134328414Y-100046148D01*
X134171586Y-100046148D01*
X134017772Y-100015552D01*
X133872883Y-99955537D01*
X133742485Y-99868408D01*
X133631592Y-99757515D01*
X133544463Y-99627117D01*
X133484448Y-99482228D01*
X133453852Y-99328414D01*
X133453852Y-99171586D01*
X133484448Y-99017772D01*
X133544463Y-98872883D01*
X133631592Y-98742485D01*
X133742485Y-98631592D01*
X133872883Y-98544463D01*
X134017772Y-98484448D01*
X134171586Y-98453852D01*
X134328414Y-98453852D01*
X134482228Y-98484448D01*
G37*
G36*
X174922228Y-95334448D02*
G01*
X175067117Y-95394463D01*
X175197515Y-95481592D01*
X175308408Y-95592485D01*
X175395537Y-95722883D01*
X175455552Y-95867772D01*
X175486148Y-96021586D01*
X175490000Y-96100000D01*
X175490000Y-96900000D01*
X175486148Y-96978414D01*
X175455552Y-97132228D01*
X175395537Y-97277117D01*
X175308408Y-97407515D01*
X175197515Y-97518408D01*
X175067117Y-97605537D01*
X174922228Y-97665552D01*
X174768414Y-97696148D01*
X174611586Y-97696148D01*
X174457772Y-97665552D01*
X174312883Y-97605537D01*
X174182485Y-97518408D01*
X174071592Y-97407515D01*
X173984463Y-97277117D01*
X173924448Y-97132228D01*
X173893852Y-96978414D01*
X173890000Y-96900000D01*
X173890000Y-96100000D01*
X173893852Y-96021586D01*
X173924448Y-95867772D01*
X173984463Y-95722883D01*
X174071592Y-95592485D01*
X174182485Y-95481592D01*
X174312883Y-95394463D01*
X174457772Y-95334448D01*
X174611586Y-95303852D01*
X174768414Y-95303852D01*
X174922228Y-95334448D01*
G37*
G36*
X177462228Y-95334448D02*
G01*
X177607117Y-95394463D01*
X177737515Y-95481592D01*
X177848408Y-95592485D01*
X177935537Y-95722883D01*
X177995552Y-95867772D01*
X178026148Y-96021586D01*
X178030000Y-96100000D01*
X178030000Y-96900000D01*
X178026148Y-96978414D01*
X177995552Y-97132228D01*
X177935537Y-97277117D01*
X177848408Y-97407515D01*
X177737515Y-97518408D01*
X177607117Y-97605537D01*
X177462228Y-97665552D01*
X177308414Y-97696148D01*
X177151586Y-97696148D01*
X176997772Y-97665552D01*
X176852883Y-97605537D01*
X176722485Y-97518408D01*
X176611592Y-97407515D01*
X176524463Y-97277117D01*
X176464448Y-97132228D01*
X176433852Y-96978414D01*
X176430000Y-96900000D01*
X176430000Y-96100000D01*
X176433852Y-96021586D01*
X176464448Y-95867772D01*
X176524463Y-95722883D01*
X176611592Y-95592485D01*
X176722485Y-95481592D01*
X176852883Y-95394463D01*
X176997772Y-95334448D01*
X177151586Y-95303852D01*
X177308414Y-95303852D01*
X177462228Y-95334448D01*
G37*
G36*
X180002228Y-95334448D02*
G01*
X180147117Y-95394463D01*
X180277515Y-95481592D01*
X180388408Y-95592485D01*
X180475537Y-95722883D01*
X180535552Y-95867772D01*
X180566148Y-96021586D01*
X180570000Y-96100000D01*
X180570000Y-96900000D01*
X180566148Y-96978414D01*
X180535552Y-97132228D01*
X180475537Y-97277117D01*
X180388408Y-97407515D01*
X180277515Y-97518408D01*
X180147117Y-97605537D01*
X180002228Y-97665552D01*
X179848414Y-97696148D01*
X179691586Y-97696148D01*
X179537772Y-97665552D01*
X179392883Y-97605537D01*
X179262485Y-97518408D01*
X179151592Y-97407515D01*
X179064463Y-97277117D01*
X179004448Y-97132228D01*
X178973852Y-96978414D01*
X178970000Y-96900000D01*
X178970000Y-96100000D01*
X178973852Y-96021586D01*
X179004448Y-95867772D01*
X179064463Y-95722883D01*
X179151592Y-95592485D01*
X179262485Y-95481592D01*
X179392883Y-95394463D01*
X179537772Y-95334448D01*
X179691586Y-95303852D01*
X179848414Y-95303852D01*
X180002228Y-95334448D01*
G37*
G36*
X182542228Y-95334448D02*
G01*
X182687117Y-95394463D01*
X182817515Y-95481592D01*
X182928408Y-95592485D01*
X183015537Y-95722883D01*
X183075552Y-95867772D01*
X183106148Y-96021586D01*
X183110000Y-96100000D01*
X183110000Y-96900000D01*
X183106148Y-96978414D01*
X183075552Y-97132228D01*
X183015537Y-97277117D01*
X182928408Y-97407515D01*
X182817515Y-97518408D01*
X182687117Y-97605537D01*
X182542228Y-97665552D01*
X182388414Y-97696148D01*
X182231586Y-97696148D01*
X182077772Y-97665552D01*
X181932883Y-97605537D01*
X181802485Y-97518408D01*
X181691592Y-97407515D01*
X181604463Y-97277117D01*
X181544448Y-97132228D01*
X181513852Y-96978414D01*
X181510000Y-96900000D01*
X181510000Y-96100000D01*
X181513852Y-96021586D01*
X181544448Y-95867772D01*
X181604463Y-95722883D01*
X181691592Y-95592485D01*
X181802485Y-95481592D01*
X181932883Y-95394463D01*
X182077772Y-95334448D01*
X182231586Y-95303852D01*
X182388414Y-95303852D01*
X182542228Y-95334448D01*
G37*
G36*
X162125000Y-89350000D02*
G01*
X160425000Y-89350000D01*
X160425000Y-87650000D01*
X162125000Y-87650000D01*
X162125000Y-89350000D01*
G37*
G36*
X158981742Y-87686601D02*
G01*
X159135687Y-87750367D01*
X159274234Y-87842941D01*
X159392059Y-87960766D01*
X159484633Y-88099313D01*
X159548399Y-88253258D01*
X159580907Y-88416685D01*
X159580907Y-88583315D01*
X159548399Y-88746742D01*
X159484633Y-88900687D01*
X159392059Y-89039234D01*
X159274234Y-89157059D01*
X159135687Y-89249633D01*
X158981742Y-89313399D01*
X158818315Y-89345907D01*
X158651685Y-89345907D01*
X158488258Y-89313399D01*
X158334313Y-89249633D01*
X158195766Y-89157059D01*
X158077941Y-89039234D01*
X157985367Y-88900687D01*
X157921601Y-88746742D01*
X157889093Y-88583315D01*
X157889093Y-88416685D01*
X157921601Y-88253258D01*
X157985367Y-88099313D01*
X158077941Y-87960766D01*
X158195766Y-87842941D01*
X158334313Y-87750367D01*
X158488258Y-87686601D01*
X158651685Y-87654093D01*
X158818315Y-87654093D01*
X158981742Y-87686601D01*
G37*
G36*
X126232228Y-86984448D02*
G01*
X126377117Y-87044463D01*
X126507515Y-87131592D01*
X126618408Y-87242485D01*
X126705537Y-87372883D01*
X126765552Y-87517772D01*
X126796148Y-87671586D01*
X126796148Y-87828414D01*
X126765552Y-87982228D01*
X126705537Y-88127117D01*
X126618408Y-88257515D01*
X126507515Y-88368408D01*
X126377117Y-88455537D01*
X126232228Y-88515552D01*
X126078414Y-88546148D01*
X125921586Y-88546148D01*
X125767772Y-88515552D01*
X125622883Y-88455537D01*
X125492485Y-88368408D01*
X125381592Y-88257515D01*
X125294463Y-88127117D01*
X125234448Y-87982228D01*
X125203852Y-87828414D01*
X125203852Y-87671586D01*
X125234448Y-87517772D01*
X125294463Y-87372883D01*
X125381592Y-87242485D01*
X125492485Y-87131592D01*
X125622883Y-87044463D01*
X125767772Y-86984448D01*
X125921586Y-86953852D01*
X126078414Y-86953852D01*
X126232228Y-86984448D01*
G37*
G36*
X131232228Y-86984448D02*
G01*
X131377117Y-87044463D01*
X131507515Y-87131592D01*
X131618408Y-87242485D01*
X131705537Y-87372883D01*
X131765552Y-87517772D01*
X131796148Y-87671586D01*
X131796148Y-87828414D01*
X131765552Y-87982228D01*
X131705537Y-88127117D01*
X131618408Y-88257515D01*
X131507515Y-88368408D01*
X131377117Y-88455537D01*
X131232228Y-88515552D01*
X131078414Y-88546148D01*
X130921586Y-88546148D01*
X130767772Y-88515552D01*
X130622883Y-88455537D01*
X130492485Y-88368408D01*
X130381592Y-88257515D01*
X130294463Y-88127117D01*
X130234448Y-87982228D01*
X130203852Y-87828414D01*
X130203852Y-87671586D01*
X130234448Y-87517772D01*
X130294463Y-87372883D01*
X130381592Y-87242485D01*
X130492485Y-87131592D01*
X130622883Y-87044463D01*
X130767772Y-86984448D01*
X130921586Y-86953852D01*
X131078414Y-86953852D01*
X131232228Y-86984448D01*
G37*
G36*
X137232228Y-86984448D02*
G01*
X137377117Y-87044463D01*
X137507515Y-87131592D01*
X137618408Y-87242485D01*
X137705537Y-87372883D01*
X137765552Y-87517772D01*
X137796148Y-87671586D01*
X137796148Y-87828414D01*
X137765552Y-87982228D01*
X137705537Y-88127117D01*
X137618408Y-88257515D01*
X137507515Y-88368408D01*
X137377117Y-88455537D01*
X137232228Y-88515552D01*
X137078414Y-88546148D01*
X136921586Y-88546148D01*
X136767772Y-88515552D01*
X136622883Y-88455537D01*
X136492485Y-88368408D01*
X136381592Y-88257515D01*
X136294463Y-88127117D01*
X136234448Y-87982228D01*
X136203852Y-87828414D01*
X136203852Y-87671586D01*
X136234448Y-87517772D01*
X136294463Y-87372883D01*
X136381592Y-87242485D01*
X136492485Y-87131592D01*
X136622883Y-87044463D01*
X136767772Y-86984448D01*
X136921586Y-86953852D01*
X137078414Y-86953852D01*
X137232228Y-86984448D01*
G37*
G36*
X142232228Y-86984448D02*
G01*
X142377117Y-87044463D01*
X142507515Y-87131592D01*
X142618408Y-87242485D01*
X142705537Y-87372883D01*
X142765552Y-87517772D01*
X142796148Y-87671586D01*
X142796148Y-87828414D01*
X142765552Y-87982228D01*
X142705537Y-88127117D01*
X142618408Y-88257515D01*
X142507515Y-88368408D01*
X142377117Y-88455537D01*
X142232228Y-88515552D01*
X142078414Y-88546148D01*
X141921586Y-88546148D01*
X141767772Y-88515552D01*
X141622883Y-88455537D01*
X141492485Y-88368408D01*
X141381592Y-88257515D01*
X141294463Y-88127117D01*
X141234448Y-87982228D01*
X141203852Y-87828414D01*
X141203852Y-87671586D01*
X141234448Y-87517772D01*
X141294463Y-87372883D01*
X141381592Y-87242485D01*
X141492485Y-87131592D01*
X141622883Y-87044463D01*
X141767772Y-86984448D01*
X141921586Y-86953852D01*
X142078414Y-86953852D01*
X142232228Y-86984448D01*
G37*
G36*
X169668414Y-86513852D02*
G01*
X169822228Y-86544448D01*
X169967117Y-86604463D01*
X170097515Y-86691592D01*
X170208408Y-86802485D01*
X170295537Y-86932883D01*
X170355552Y-87077772D01*
X170386148Y-87231586D01*
X170386148Y-87388414D01*
X170355552Y-87542228D01*
X170295537Y-87687117D01*
X170208408Y-87817515D01*
X170097515Y-87928408D01*
X169967117Y-88015537D01*
X169822228Y-88075552D01*
X169668414Y-88106148D01*
X169590000Y-88110000D01*
X169588522Y-88110000D01*
X168791478Y-88110000D01*
X168790000Y-88110000D01*
X168711586Y-88106148D01*
X168557772Y-88075552D01*
X168412883Y-88015537D01*
X168282485Y-87928408D01*
X168171592Y-87817515D01*
X168084463Y-87687117D01*
X168024448Y-87542228D01*
X167993852Y-87388414D01*
X167993852Y-87231586D01*
X168024448Y-87077772D01*
X168084463Y-86932883D01*
X168171592Y-86802485D01*
X168282485Y-86691592D01*
X168412883Y-86604463D01*
X168557772Y-86544448D01*
X168711586Y-86513852D01*
X168790000Y-86510000D01*
X169590000Y-86510000D01*
X169668414Y-86513852D01*
G37*
G36*
X177288414Y-86513852D02*
G01*
X177442228Y-86544448D01*
X177587117Y-86604463D01*
X177717515Y-86691592D01*
X177828408Y-86802485D01*
X177915537Y-86932883D01*
X177975552Y-87077772D01*
X178006148Y-87231586D01*
X178006148Y-87388414D01*
X177975552Y-87542228D01*
X177915537Y-87687117D01*
X177828408Y-87817515D01*
X177717515Y-87928408D01*
X177587117Y-88015537D01*
X177442228Y-88075552D01*
X177288414Y-88106148D01*
X177210000Y-88110000D01*
X177208522Y-88110000D01*
X176411478Y-88110000D01*
X176410000Y-88110000D01*
X176331586Y-88106148D01*
X176177772Y-88075552D01*
X176032883Y-88015537D01*
X175902485Y-87928408D01*
X175791592Y-87817515D01*
X175704463Y-87687117D01*
X175644448Y-87542228D01*
X175613852Y-87388414D01*
X175613852Y-87231586D01*
X175644448Y-87077772D01*
X175704463Y-86932883D01*
X175791592Y-86802485D01*
X175902485Y-86691592D01*
X176032883Y-86604463D01*
X176177772Y-86544448D01*
X176331586Y-86513852D01*
X176410000Y-86510000D01*
X177210000Y-86510000D01*
X177288414Y-86513852D01*
G37*
G36*
X159600000Y-85600000D02*
G01*
X157900000Y-85600000D01*
X157900000Y-83900000D01*
X159600000Y-83900000D01*
X159600000Y-85600000D01*
G37*
G36*
X161536742Y-83936601D02*
G01*
X161690687Y-84000367D01*
X161829234Y-84092941D01*
X161947059Y-84210766D01*
X162039633Y-84349313D01*
X162103399Y-84503258D01*
X162135907Y-84666685D01*
X162135907Y-84833315D01*
X162103399Y-84996742D01*
X162039633Y-85150687D01*
X161947059Y-85289234D01*
X161829234Y-85407059D01*
X161690687Y-85499633D01*
X161536742Y-85563399D01*
X161373315Y-85595907D01*
X161206685Y-85595907D01*
X161043258Y-85563399D01*
X160889313Y-85499633D01*
X160750766Y-85407059D01*
X160632941Y-85289234D01*
X160540367Y-85150687D01*
X160476601Y-84996742D01*
X160444093Y-84833315D01*
X160444093Y-84666685D01*
X160476601Y-84503258D01*
X160540367Y-84349313D01*
X160632941Y-84210766D01*
X160750766Y-84092941D01*
X160889313Y-84000367D01*
X161043258Y-83936601D01*
X161206685Y-83904093D01*
X161373315Y-83904093D01*
X161536742Y-83936601D01*
G37*
G36*
X169668414Y-83973852D02*
G01*
X169822228Y-84004448D01*
X169967117Y-84064463D01*
X170097515Y-84151592D01*
X170208408Y-84262485D01*
X170295537Y-84392883D01*
X170355552Y-84537772D01*
X170386148Y-84691586D01*
X170386148Y-84848414D01*
X170355552Y-85002228D01*
X170295537Y-85147117D01*
X170208408Y-85277515D01*
X170097515Y-85388408D01*
X169967117Y-85475537D01*
X169822228Y-85535552D01*
X169668414Y-85566148D01*
X169590000Y-85570000D01*
X169588522Y-85570000D01*
X168791478Y-85570000D01*
X168790000Y-85570000D01*
X168711586Y-85566148D01*
X168557772Y-85535552D01*
X168412883Y-85475537D01*
X168282485Y-85388408D01*
X168171592Y-85277515D01*
X168084463Y-85147117D01*
X168024448Y-85002228D01*
X167993852Y-84848414D01*
X167993852Y-84691586D01*
X168024448Y-84537772D01*
X168084463Y-84392883D01*
X168171592Y-84262485D01*
X168282485Y-84151592D01*
X168412883Y-84064463D01*
X168557772Y-84004448D01*
X168711586Y-83973852D01*
X168790000Y-83970000D01*
X169590000Y-83970000D01*
X169668414Y-83973852D01*
G37*
G36*
X177288414Y-83973852D02*
G01*
X177442228Y-84004448D01*
X177587117Y-84064463D01*
X177717515Y-84151592D01*
X177828408Y-84262485D01*
X177915537Y-84392883D01*
X177975552Y-84537772D01*
X178006148Y-84691586D01*
X178006148Y-84848414D01*
X177975552Y-85002228D01*
X177915537Y-85147117D01*
X177828408Y-85277515D01*
X177717515Y-85388408D01*
X177587117Y-85475537D01*
X177442228Y-85535552D01*
X177288414Y-85566148D01*
X177210000Y-85570000D01*
X177208522Y-85570000D01*
X176411478Y-85570000D01*
X176410000Y-85570000D01*
X176331586Y-85566148D01*
X176177772Y-85535552D01*
X176032883Y-85475537D01*
X175902485Y-85388408D01*
X175791592Y-85277515D01*
X175704463Y-85147117D01*
X175644448Y-85002228D01*
X175613852Y-84848414D01*
X175613852Y-84691586D01*
X175644448Y-84537772D01*
X175704463Y-84392883D01*
X175791592Y-84262485D01*
X175902485Y-84151592D01*
X176032883Y-84064463D01*
X176177772Y-84004448D01*
X176331586Y-83973852D01*
X176410000Y-83970000D01*
X177210000Y-83970000D01*
X177288414Y-83973852D01*
G37*
G36*
X169668414Y-81433852D02*
G01*
X169822228Y-81464448D01*
X169967117Y-81524463D01*
X170097515Y-81611592D01*
X170208408Y-81722485D01*
X170295537Y-81852883D01*
X170355552Y-81997772D01*
X170386148Y-82151586D01*
X170386148Y-82308414D01*
X170355552Y-82462228D01*
X170295537Y-82607117D01*
X170208408Y-82737515D01*
X170097515Y-82848408D01*
X169967117Y-82935537D01*
X169822228Y-82995552D01*
X169668414Y-83026148D01*
X169590000Y-83030000D01*
X169588522Y-83030000D01*
X168791478Y-83030000D01*
X168790000Y-83030000D01*
X168711586Y-83026148D01*
X168557772Y-82995552D01*
X168412883Y-82935537D01*
X168282485Y-82848408D01*
X168171592Y-82737515D01*
X168084463Y-82607117D01*
X168024448Y-82462228D01*
X167993852Y-82308414D01*
X167993852Y-82151586D01*
X168024448Y-81997772D01*
X168084463Y-81852883D01*
X168171592Y-81722485D01*
X168282485Y-81611592D01*
X168412883Y-81524463D01*
X168557772Y-81464448D01*
X168711586Y-81433852D01*
X168790000Y-81430000D01*
X169590000Y-81430000D01*
X169668414Y-81433852D01*
G37*
G36*
X177288414Y-81433852D02*
G01*
X177442228Y-81464448D01*
X177587117Y-81524463D01*
X177717515Y-81611592D01*
X177828408Y-81722485D01*
X177915537Y-81852883D01*
X177975552Y-81997772D01*
X178006148Y-82151586D01*
X178006148Y-82308414D01*
X177975552Y-82462228D01*
X177915537Y-82607117D01*
X177828408Y-82737515D01*
X177717515Y-82848408D01*
X177587117Y-82935537D01*
X177442228Y-82995552D01*
X177288414Y-83026148D01*
X177210000Y-83030000D01*
X177208522Y-83030000D01*
X176411478Y-83030000D01*
X176410000Y-83030000D01*
X176331586Y-83026148D01*
X176177772Y-82995552D01*
X176032883Y-82935537D01*
X175902485Y-82848408D01*
X175791592Y-82737515D01*
X175704463Y-82607117D01*
X175644448Y-82462228D01*
X175613852Y-82308414D01*
X175613852Y-82151586D01*
X175644448Y-81997772D01*
X175704463Y-81852883D01*
X175791592Y-81722485D01*
X175902485Y-81611592D01*
X176032883Y-81524463D01*
X176177772Y-81464448D01*
X176331586Y-81433852D01*
X176410000Y-81430000D01*
X177210000Y-81430000D01*
X177288414Y-81433852D01*
G37*
G36*
X170144850Y-78890964D02*
G01*
X170195040Y-78896787D01*
X170212189Y-78904359D01*
X170235671Y-78909030D01*
X170260810Y-78925827D01*
X170280696Y-78934608D01*
X170294277Y-78948189D01*
X170316777Y-78963223D01*
X170331810Y-78985722D01*
X170345391Y-78999303D01*
X170354170Y-79019186D01*
X170370970Y-79044329D01*
X170375641Y-79067812D01*
X170383212Y-79084959D01*
X170389033Y-79135139D01*
X170390000Y-79140000D01*
X170390000Y-80240000D01*
X170389032Y-80244863D01*
X170383212Y-80295040D01*
X170375641Y-80312185D01*
X170370970Y-80335671D01*
X170354169Y-80360815D01*
X170345391Y-80380696D01*
X170331812Y-80394274D01*
X170316777Y-80416777D01*
X170294274Y-80431812D01*
X170280696Y-80445391D01*
X170260815Y-80454169D01*
X170235671Y-80470970D01*
X170212185Y-80475641D01*
X170195040Y-80483212D01*
X170144861Y-80489032D01*
X170140000Y-80490000D01*
X168240000Y-80490000D01*
X168235138Y-80489032D01*
X168184959Y-80483212D01*
X168167812Y-80475641D01*
X168144329Y-80470970D01*
X168119186Y-80454170D01*
X168099303Y-80445391D01*
X168085722Y-80431810D01*
X168063223Y-80416777D01*
X168048189Y-80394277D01*
X168034608Y-80380696D01*
X168025827Y-80360810D01*
X168009030Y-80335671D01*
X168004359Y-80312189D01*
X167996787Y-80295040D01*
X167990964Y-80244849D01*
X167990000Y-80240000D01*
X167990000Y-79140000D01*
X167990964Y-79135150D01*
X167996787Y-79084959D01*
X168004359Y-79067808D01*
X168009030Y-79044329D01*
X168025826Y-79019191D01*
X168034608Y-78999303D01*
X168048191Y-78985719D01*
X168063223Y-78963223D01*
X168085719Y-78948191D01*
X168099303Y-78934608D01*
X168119191Y-78925826D01*
X168144329Y-78909030D01*
X168167808Y-78904359D01*
X168184959Y-78896787D01*
X168235151Y-78890964D01*
X168240000Y-78890000D01*
X170140000Y-78890000D01*
X170144850Y-78890964D01*
G37*
G36*
X177288414Y-78893852D02*
G01*
X177442228Y-78924448D01*
X177587117Y-78984463D01*
X177717515Y-79071592D01*
X177828408Y-79182485D01*
X177915537Y-79312883D01*
X177975552Y-79457772D01*
X178006148Y-79611586D01*
X178006148Y-79768414D01*
X177975552Y-79922228D01*
X177915537Y-80067117D01*
X177828408Y-80197515D01*
X177717515Y-80308408D01*
X177587117Y-80395537D01*
X177442228Y-80455552D01*
X177288414Y-80486148D01*
X177210000Y-80490000D01*
X177208522Y-80490000D01*
X176411478Y-80490000D01*
X176410000Y-80490000D01*
X176331586Y-80486148D01*
X176177772Y-80455552D01*
X176032883Y-80395537D01*
X175902485Y-80308408D01*
X175791592Y-80197515D01*
X175704463Y-80067117D01*
X175644448Y-79922228D01*
X175613852Y-79768414D01*
X175613852Y-79611586D01*
X175644448Y-79457772D01*
X175704463Y-79312883D01*
X175791592Y-79182485D01*
X175902485Y-79071592D01*
X176032883Y-78984463D01*
X176177772Y-78924448D01*
X176331586Y-78893852D01*
X176410000Y-78890000D01*
X177210000Y-78890000D01*
X177288414Y-78893852D01*
G37*
G36*
X156466422Y-78753587D02*
G01*
X156607689Y-78812101D01*
X156734827Y-78897052D01*
X156842948Y-79005173D01*
X156927899Y-79132311D01*
X156986413Y-79273578D01*
X157016244Y-79423547D01*
X157016244Y-79576453D01*
X156986413Y-79726422D01*
X156927899Y-79867689D01*
X156842948Y-79994827D01*
X156734827Y-80102948D01*
X156607689Y-80187899D01*
X156466422Y-80246413D01*
X156316453Y-80276244D01*
X156163547Y-80276244D01*
X156013578Y-80246413D01*
X155872311Y-80187899D01*
X155745173Y-80102948D01*
X155637052Y-79994827D01*
X155552101Y-79867689D01*
X155493587Y-79726422D01*
X155463756Y-79576453D01*
X155463756Y-79423547D01*
X155493587Y-79273578D01*
X155552101Y-79132311D01*
X155637052Y-79005173D01*
X155745173Y-78897052D01*
X155872311Y-78812101D01*
X156013578Y-78753587D01*
X156163547Y-78723756D01*
X156316453Y-78723756D01*
X156466422Y-78753587D01*
G37*
G36*
X151466422Y-76253587D02*
G01*
X151607689Y-76312101D01*
X151734827Y-76397052D01*
X151842948Y-76505173D01*
X151927899Y-76632311D01*
X151986413Y-76773578D01*
X152016244Y-76923547D01*
X152016244Y-77076453D01*
X151986413Y-77226422D01*
X151927899Y-77367689D01*
X151842948Y-77494827D01*
X151734827Y-77602948D01*
X151607689Y-77687899D01*
X151466422Y-77746413D01*
X151316453Y-77776244D01*
X151163547Y-77776244D01*
X151013578Y-77746413D01*
X150872311Y-77687899D01*
X150745173Y-77602948D01*
X150637052Y-77494827D01*
X150552101Y-77367689D01*
X150493587Y-77226422D01*
X150463756Y-77076453D01*
X150463756Y-76923547D01*
X150493587Y-76773578D01*
X150552101Y-76632311D01*
X150637052Y-76505173D01*
X150745173Y-76397052D01*
X150872311Y-76312101D01*
X151013578Y-76253587D01*
X151163547Y-76223756D01*
X151316453Y-76223756D01*
X151466422Y-76253587D01*
G37*
G36*
X130418414Y-75551352D02*
G01*
X130572228Y-75581948D01*
X130717117Y-75641963D01*
X130847515Y-75729092D01*
X130958408Y-75839985D01*
X131045537Y-75970383D01*
X131105552Y-76115272D01*
X131136148Y-76269086D01*
X131136148Y-76425914D01*
X131105552Y-76579728D01*
X131045537Y-76724617D01*
X130958408Y-76855015D01*
X130847515Y-76965908D01*
X130717117Y-77053037D01*
X130572228Y-77113052D01*
X130418414Y-77143648D01*
X130340000Y-77147500D01*
X130338522Y-77147500D01*
X129541478Y-77147500D01*
X129540000Y-77147500D01*
X129461586Y-77143648D01*
X129307772Y-77113052D01*
X129162883Y-77053037D01*
X129032485Y-76965908D01*
X128921592Y-76855015D01*
X128834463Y-76724617D01*
X128774448Y-76579728D01*
X128743852Y-76425914D01*
X128743852Y-76269086D01*
X128774448Y-76115272D01*
X128834463Y-75970383D01*
X128921592Y-75839985D01*
X129032485Y-75729092D01*
X129162883Y-75641963D01*
X129307772Y-75581948D01*
X129461586Y-75551352D01*
X129540000Y-75547500D01*
X130340000Y-75547500D01*
X130418414Y-75551352D01*
G37*
G36*
X138514850Y-75548464D02*
G01*
X138565040Y-75554287D01*
X138582189Y-75561859D01*
X138605671Y-75566530D01*
X138630810Y-75583327D01*
X138650696Y-75592108D01*
X138664277Y-75605689D01*
X138686777Y-75620723D01*
X138701810Y-75643222D01*
X138715391Y-75656803D01*
X138724170Y-75676686D01*
X138740970Y-75701829D01*
X138745641Y-75725312D01*
X138753212Y-75742459D01*
X138759033Y-75792639D01*
X138760000Y-75797500D01*
X138760000Y-76897500D01*
X138759032Y-76902363D01*
X138753212Y-76952540D01*
X138745641Y-76969685D01*
X138740970Y-76993171D01*
X138724169Y-77018315D01*
X138715391Y-77038196D01*
X138701812Y-77051774D01*
X138686777Y-77074277D01*
X138664274Y-77089312D01*
X138650696Y-77102891D01*
X138630815Y-77111669D01*
X138605671Y-77128470D01*
X138582185Y-77133141D01*
X138565040Y-77140712D01*
X138514861Y-77146532D01*
X138510000Y-77147500D01*
X136610000Y-77147500D01*
X136605138Y-77146532D01*
X136554959Y-77140712D01*
X136537812Y-77133141D01*
X136514329Y-77128470D01*
X136489186Y-77111670D01*
X136469303Y-77102891D01*
X136455722Y-77089310D01*
X136433223Y-77074277D01*
X136418189Y-77051777D01*
X136404608Y-77038196D01*
X136395827Y-77018310D01*
X136379030Y-76993171D01*
X136374359Y-76969689D01*
X136366787Y-76952540D01*
X136360964Y-76902349D01*
X136360000Y-76897500D01*
X136360000Y-75797500D01*
X136360964Y-75792650D01*
X136366787Y-75742459D01*
X136374359Y-75725308D01*
X136379030Y-75701829D01*
X136395826Y-75676691D01*
X136404608Y-75656803D01*
X136418191Y-75643219D01*
X136433223Y-75620723D01*
X136455719Y-75605691D01*
X136469303Y-75592108D01*
X136489191Y-75583326D01*
X136514329Y-75566530D01*
X136537808Y-75561859D01*
X136554959Y-75554287D01*
X136605151Y-75548464D01*
X136610000Y-75547500D01*
X138510000Y-75547500D01*
X138514850Y-75548464D01*
G37*
G36*
X184014850Y-73920964D02*
G01*
X184065040Y-73926787D01*
X184082189Y-73934359D01*
X184105671Y-73939030D01*
X184130810Y-73955827D01*
X184150696Y-73964608D01*
X184164277Y-73978189D01*
X184186777Y-73993223D01*
X184201810Y-74015722D01*
X184215391Y-74029303D01*
X184224170Y-74049186D01*
X184240970Y-74074329D01*
X184245641Y-74097812D01*
X184253212Y-74114959D01*
X184259033Y-74165139D01*
X184260000Y-74170000D01*
X184260000Y-76070000D01*
X184259032Y-76074863D01*
X184253212Y-76125040D01*
X184245641Y-76142185D01*
X184240970Y-76165671D01*
X184224169Y-76190815D01*
X184215391Y-76210696D01*
X184201812Y-76224274D01*
X184186777Y-76246777D01*
X184164274Y-76261812D01*
X184150696Y-76275391D01*
X184130815Y-76284169D01*
X184105671Y-76300970D01*
X184082185Y-76305641D01*
X184065040Y-76313212D01*
X184014861Y-76319032D01*
X184010000Y-76320000D01*
X182910000Y-76320000D01*
X182905138Y-76319032D01*
X182854959Y-76313212D01*
X182837812Y-76305641D01*
X182814329Y-76300970D01*
X182789186Y-76284170D01*
X182769303Y-76275391D01*
X182755722Y-76261810D01*
X182733223Y-76246777D01*
X182718189Y-76224277D01*
X182704608Y-76210696D01*
X182695827Y-76190810D01*
X182679030Y-76165671D01*
X182674359Y-76142189D01*
X182666787Y-76125040D01*
X182660964Y-76074849D01*
X182660000Y-76070000D01*
X182660000Y-74170000D01*
X182660964Y-74165150D01*
X182666787Y-74114959D01*
X182674359Y-74097808D01*
X182679030Y-74074329D01*
X182695826Y-74049191D01*
X182704608Y-74029303D01*
X182718191Y-74015719D01*
X182733223Y-73993223D01*
X182755719Y-73978191D01*
X182769303Y-73964608D01*
X182789191Y-73955826D01*
X182814329Y-73939030D01*
X182837808Y-73934359D01*
X182854959Y-73926787D01*
X182905151Y-73920964D01*
X182910000Y-73920000D01*
X184010000Y-73920000D01*
X184014850Y-73920964D01*
G37*
G36*
X186232228Y-73954448D02*
G01*
X186377117Y-74014463D01*
X186507515Y-74101592D01*
X186618408Y-74212485D01*
X186705537Y-74342883D01*
X186765552Y-74487772D01*
X186796148Y-74641586D01*
X186800000Y-74720000D01*
X186800000Y-75520000D01*
X186796148Y-75598414D01*
X186765552Y-75752228D01*
X186705537Y-75897117D01*
X186618408Y-76027515D01*
X186507515Y-76138408D01*
X186377117Y-76225537D01*
X186232228Y-76285552D01*
X186078414Y-76316148D01*
X185921586Y-76316148D01*
X185767772Y-76285552D01*
X185622883Y-76225537D01*
X185492485Y-76138408D01*
X185381592Y-76027515D01*
X185294463Y-75897117D01*
X185234448Y-75752228D01*
X185203852Y-75598414D01*
X185200000Y-75520000D01*
X185200000Y-74720000D01*
X185203852Y-74641586D01*
X185234448Y-74487772D01*
X185294463Y-74342883D01*
X185381592Y-74212485D01*
X185492485Y-74101592D01*
X185622883Y-74014463D01*
X185767772Y-73954448D01*
X185921586Y-73923852D01*
X186078414Y-73923852D01*
X186232228Y-73954448D01*
G37*
G36*
X188772228Y-73954448D02*
G01*
X188917117Y-74014463D01*
X189047515Y-74101592D01*
X189158408Y-74212485D01*
X189245537Y-74342883D01*
X189305552Y-74487772D01*
X189336148Y-74641586D01*
X189340000Y-74720000D01*
X189340000Y-75520000D01*
X189336148Y-75598414D01*
X189305552Y-75752228D01*
X189245537Y-75897117D01*
X189158408Y-76027515D01*
X189047515Y-76138408D01*
X188917117Y-76225537D01*
X188772228Y-76285552D01*
X188618414Y-76316148D01*
X188461586Y-76316148D01*
X188307772Y-76285552D01*
X188162883Y-76225537D01*
X188032485Y-76138408D01*
X187921592Y-76027515D01*
X187834463Y-75897117D01*
X187774448Y-75752228D01*
X187743852Y-75598414D01*
X187740000Y-75520000D01*
X187740000Y-74720000D01*
X187743852Y-74641586D01*
X187774448Y-74487772D01*
X187834463Y-74342883D01*
X187921592Y-74212485D01*
X188032485Y-74101592D01*
X188162883Y-74014463D01*
X188307772Y-73954448D01*
X188461586Y-73923852D01*
X188618414Y-73923852D01*
X188772228Y-73954448D01*
G37*
G36*
X191312228Y-73954448D02*
G01*
X191457117Y-74014463D01*
X191587515Y-74101592D01*
X191698408Y-74212485D01*
X191785537Y-74342883D01*
X191845552Y-74487772D01*
X191876148Y-74641586D01*
X191880000Y-74720000D01*
X191880000Y-75520000D01*
X191876148Y-75598414D01*
X191845552Y-75752228D01*
X191785537Y-75897117D01*
X191698408Y-76027515D01*
X191587515Y-76138408D01*
X191457117Y-76225537D01*
X191312228Y-76285552D01*
X191158414Y-76316148D01*
X191001586Y-76316148D01*
X190847772Y-76285552D01*
X190702883Y-76225537D01*
X190572485Y-76138408D01*
X190461592Y-76027515D01*
X190374463Y-75897117D01*
X190314448Y-75752228D01*
X190283852Y-75598414D01*
X190280000Y-75520000D01*
X190280000Y-74720000D01*
X190283852Y-74641586D01*
X190314448Y-74487772D01*
X190374463Y-74342883D01*
X190461592Y-74212485D01*
X190572485Y-74101592D01*
X190702883Y-74014463D01*
X190847772Y-73954448D01*
X191001586Y-73923852D01*
X191158414Y-73923852D01*
X191312228Y-73954448D01*
G37*
G36*
X157020000Y-75280000D02*
G01*
X155460000Y-75280000D01*
X155460000Y-73720000D01*
X157020000Y-73720000D01*
X157020000Y-75280000D01*
G37*
G36*
X130418414Y-73011352D02*
G01*
X130572228Y-73041948D01*
X130717117Y-73101963D01*
X130847515Y-73189092D01*
X130958408Y-73299985D01*
X131045537Y-73430383D01*
X131105552Y-73575272D01*
X131136148Y-73729086D01*
X131136148Y-73885914D01*
X131105552Y-74039728D01*
X131045537Y-74184617D01*
X130958408Y-74315015D01*
X130847515Y-74425908D01*
X130717117Y-74513037D01*
X130572228Y-74573052D01*
X130418414Y-74603648D01*
X130340000Y-74607500D01*
X130338522Y-74607500D01*
X129541478Y-74607500D01*
X129540000Y-74607500D01*
X129461586Y-74603648D01*
X129307772Y-74573052D01*
X129162883Y-74513037D01*
X129032485Y-74425908D01*
X128921592Y-74315015D01*
X128834463Y-74184617D01*
X128774448Y-74039728D01*
X128743852Y-73885914D01*
X128743852Y-73729086D01*
X128774448Y-73575272D01*
X128834463Y-73430383D01*
X128921592Y-73299985D01*
X129032485Y-73189092D01*
X129162883Y-73101963D01*
X129307772Y-73041948D01*
X129461586Y-73011352D01*
X129540000Y-73007500D01*
X130340000Y-73007500D01*
X130418414Y-73011352D01*
G37*
G36*
X138038414Y-73011352D02*
G01*
X138192228Y-73041948D01*
X138337117Y-73101963D01*
X138467515Y-73189092D01*
X138578408Y-73299985D01*
X138665537Y-73430383D01*
X138725552Y-73575272D01*
X138756148Y-73729086D01*
X138756148Y-73885914D01*
X138725552Y-74039728D01*
X138665537Y-74184617D01*
X138578408Y-74315015D01*
X138467515Y-74425908D01*
X138337117Y-74513037D01*
X138192228Y-74573052D01*
X138038414Y-74603648D01*
X137960000Y-74607500D01*
X137958522Y-74607500D01*
X137161478Y-74607500D01*
X137160000Y-74607500D01*
X137081586Y-74603648D01*
X136927772Y-74573052D01*
X136782883Y-74513037D01*
X136652485Y-74425908D01*
X136541592Y-74315015D01*
X136454463Y-74184617D01*
X136394448Y-74039728D01*
X136363852Y-73885914D01*
X136363852Y-73729086D01*
X136394448Y-73575272D01*
X136454463Y-73430383D01*
X136541592Y-73299985D01*
X136652485Y-73189092D01*
X136782883Y-73101963D01*
X136927772Y-73041948D01*
X137081586Y-73011352D01*
X137160000Y-73007500D01*
X137960000Y-73007500D01*
X138038414Y-73011352D01*
G37*
G36*
X130418414Y-70471352D02*
G01*
X130572228Y-70501948D01*
X130717117Y-70561963D01*
X130847515Y-70649092D01*
X130958408Y-70759985D01*
X131045537Y-70890383D01*
X131105552Y-71035272D01*
X131136148Y-71189086D01*
X131136148Y-71345914D01*
X131105552Y-71499728D01*
X131045537Y-71644617D01*
X130958408Y-71775015D01*
X130847515Y-71885908D01*
X130717117Y-71973037D01*
X130572228Y-72033052D01*
X130418414Y-72063648D01*
X130340000Y-72067500D01*
X130338522Y-72067500D01*
X129541478Y-72067500D01*
X129540000Y-72067500D01*
X129461586Y-72063648D01*
X129307772Y-72033052D01*
X129162883Y-71973037D01*
X129032485Y-71885908D01*
X128921592Y-71775015D01*
X128834463Y-71644617D01*
X128774448Y-71499728D01*
X128743852Y-71345914D01*
X128743852Y-71189086D01*
X128774448Y-71035272D01*
X128834463Y-70890383D01*
X128921592Y-70759985D01*
X129032485Y-70649092D01*
X129162883Y-70561963D01*
X129307772Y-70501948D01*
X129461586Y-70471352D01*
X129540000Y-70467500D01*
X130340000Y-70467500D01*
X130418414Y-70471352D01*
G37*
G36*
X138038414Y-70471352D02*
G01*
X138192228Y-70501948D01*
X138337117Y-70561963D01*
X138467515Y-70649092D01*
X138578408Y-70759985D01*
X138665537Y-70890383D01*
X138725552Y-71035272D01*
X138756148Y-71189086D01*
X138756148Y-71345914D01*
X138725552Y-71499728D01*
X138665537Y-71644617D01*
X138578408Y-71775015D01*
X138467515Y-71885908D01*
X138337117Y-71973037D01*
X138192228Y-72033052D01*
X138038414Y-72063648D01*
X137960000Y-72067500D01*
X137958522Y-72067500D01*
X137161478Y-72067500D01*
X137160000Y-72067500D01*
X137081586Y-72063648D01*
X136927772Y-72033052D01*
X136782883Y-71973037D01*
X136652485Y-71885908D01*
X136541592Y-71775015D01*
X136454463Y-71644617D01*
X136394448Y-71499728D01*
X136363852Y-71345914D01*
X136363852Y-71189086D01*
X136394448Y-71035272D01*
X136454463Y-70890383D01*
X136541592Y-70759985D01*
X136652485Y-70649092D01*
X136782883Y-70561963D01*
X136927772Y-70501948D01*
X137081586Y-70471352D01*
X137160000Y-70467500D01*
X137960000Y-70467500D01*
X138038414Y-70471352D01*
G37*
G36*
X130418414Y-67931352D02*
G01*
X130572228Y-67961948D01*
X130717117Y-68021963D01*
X130847515Y-68109092D01*
X130958408Y-68219985D01*
X131045537Y-68350383D01*
X131105552Y-68495272D01*
X131136148Y-68649086D01*
X131136148Y-68805914D01*
X131105552Y-68959728D01*
X131045537Y-69104617D01*
X130958408Y-69235015D01*
X130847515Y-69345908D01*
X130717117Y-69433037D01*
X130572228Y-69493052D01*
X130418414Y-69523648D01*
X130340000Y-69527500D01*
X130338522Y-69527500D01*
X129541478Y-69527500D01*
X129540000Y-69527500D01*
X129461586Y-69523648D01*
X129307772Y-69493052D01*
X129162883Y-69433037D01*
X129032485Y-69345908D01*
X128921592Y-69235015D01*
X128834463Y-69104617D01*
X128774448Y-68959728D01*
X128743852Y-68805914D01*
X128743852Y-68649086D01*
X128774448Y-68495272D01*
X128834463Y-68350383D01*
X128921592Y-68219985D01*
X129032485Y-68109092D01*
X129162883Y-68021963D01*
X129307772Y-67961948D01*
X129461586Y-67931352D01*
X129540000Y-67927500D01*
X130340000Y-67927500D01*
X130418414Y-67931352D01*
G37*
G36*
X138038414Y-67931352D02*
G01*
X138192228Y-67961948D01*
X138337117Y-68021963D01*
X138467515Y-68109092D01*
X138578408Y-68219985D01*
X138665537Y-68350383D01*
X138725552Y-68495272D01*
X138756148Y-68649086D01*
X138756148Y-68805914D01*
X138725552Y-68959728D01*
X138665537Y-69104617D01*
X138578408Y-69235015D01*
X138467515Y-69345908D01*
X138337117Y-69433037D01*
X138192228Y-69493052D01*
X138038414Y-69523648D01*
X137960000Y-69527500D01*
X137958522Y-69527500D01*
X137161478Y-69527500D01*
X137160000Y-69527500D01*
X137081586Y-69523648D01*
X136927772Y-69493052D01*
X136782883Y-69433037D01*
X136652485Y-69345908D01*
X136541592Y-69235015D01*
X136454463Y-69104617D01*
X136394448Y-68959728D01*
X136363852Y-68805914D01*
X136363852Y-68649086D01*
X136394448Y-68495272D01*
X136454463Y-68350383D01*
X136541592Y-68219985D01*
X136652485Y-68109092D01*
X136782883Y-68021963D01*
X136927772Y-67961948D01*
X137081586Y-67931352D01*
X137160000Y-67927500D01*
X137960000Y-67927500D01*
X138038414Y-67931352D01*
G37*
G36*
X183692228Y-66334448D02*
G01*
X183837117Y-66394463D01*
X183967515Y-66481592D01*
X184078408Y-66592485D01*
X184165537Y-66722883D01*
X184225552Y-66867772D01*
X184256148Y-67021586D01*
X184260000Y-67100000D01*
X184260000Y-67900000D01*
X184256148Y-67978414D01*
X184225552Y-68132228D01*
X184165537Y-68277117D01*
X184078408Y-68407515D01*
X183967515Y-68518408D01*
X183837117Y-68605537D01*
X183692228Y-68665552D01*
X183538414Y-68696148D01*
X183381586Y-68696148D01*
X183227772Y-68665552D01*
X183082883Y-68605537D01*
X182952485Y-68518408D01*
X182841592Y-68407515D01*
X182754463Y-68277117D01*
X182694448Y-68132228D01*
X182663852Y-67978414D01*
X182660000Y-67900000D01*
X182660000Y-67100000D01*
X182663852Y-67021586D01*
X182694448Y-66867772D01*
X182754463Y-66722883D01*
X182841592Y-66592485D01*
X182952485Y-66481592D01*
X183082883Y-66394463D01*
X183227772Y-66334448D01*
X183381586Y-66303852D01*
X183538414Y-66303852D01*
X183692228Y-66334448D01*
G37*
G36*
X186232228Y-66334448D02*
G01*
X186377117Y-66394463D01*
X186507515Y-66481592D01*
X186618408Y-66592485D01*
X186705537Y-66722883D01*
X186765552Y-66867772D01*
X186796148Y-67021586D01*
X186800000Y-67100000D01*
X186800000Y-67900000D01*
X186796148Y-67978414D01*
X186765552Y-68132228D01*
X186705537Y-68277117D01*
X186618408Y-68407515D01*
X186507515Y-68518408D01*
X186377117Y-68605537D01*
X186232228Y-68665552D01*
X186078414Y-68696148D01*
X185921586Y-68696148D01*
X185767772Y-68665552D01*
X185622883Y-68605537D01*
X185492485Y-68518408D01*
X185381592Y-68407515D01*
X185294463Y-68277117D01*
X185234448Y-68132228D01*
X185203852Y-67978414D01*
X185200000Y-67900000D01*
X185200000Y-67100000D01*
X185203852Y-67021586D01*
X185234448Y-66867772D01*
X185294463Y-66722883D01*
X185381592Y-66592485D01*
X185492485Y-66481592D01*
X185622883Y-66394463D01*
X185767772Y-66334448D01*
X185921586Y-66303852D01*
X186078414Y-66303852D01*
X186232228Y-66334448D01*
G37*
G36*
X188772228Y-66334448D02*
G01*
X188917117Y-66394463D01*
X189047515Y-66481592D01*
X189158408Y-66592485D01*
X189245537Y-66722883D01*
X189305552Y-66867772D01*
X189336148Y-67021586D01*
X189340000Y-67100000D01*
X189340000Y-67900000D01*
X189336148Y-67978414D01*
X189305552Y-68132228D01*
X189245537Y-68277117D01*
X189158408Y-68407515D01*
X189047515Y-68518408D01*
X188917117Y-68605537D01*
X188772228Y-68665552D01*
X188618414Y-68696148D01*
X188461586Y-68696148D01*
X188307772Y-68665552D01*
X188162883Y-68605537D01*
X188032485Y-68518408D01*
X187921592Y-68407515D01*
X187834463Y-68277117D01*
X187774448Y-68132228D01*
X187743852Y-67978414D01*
X187740000Y-67900000D01*
X187740000Y-67100000D01*
X187743852Y-67021586D01*
X187774448Y-66867772D01*
X187834463Y-66722883D01*
X187921592Y-66592485D01*
X188032485Y-66481592D01*
X188162883Y-66394463D01*
X188307772Y-66334448D01*
X188461586Y-66303852D01*
X188618414Y-66303852D01*
X188772228Y-66334448D01*
G37*
G36*
X191312228Y-66334448D02*
G01*
X191457117Y-66394463D01*
X191587515Y-66481592D01*
X191698408Y-66592485D01*
X191785537Y-66722883D01*
X191845552Y-66867772D01*
X191876148Y-67021586D01*
X191880000Y-67100000D01*
X191880000Y-67900000D01*
X191876148Y-67978414D01*
X191845552Y-68132228D01*
X191785537Y-68277117D01*
X191698408Y-68407515D01*
X191587515Y-68518408D01*
X191457117Y-68605537D01*
X191312228Y-68665552D01*
X191158414Y-68696148D01*
X191001586Y-68696148D01*
X190847772Y-68665552D01*
X190702883Y-68605537D01*
X190572485Y-68518408D01*
X190461592Y-68407515D01*
X190374463Y-68277117D01*
X190314448Y-68132228D01*
X190283852Y-67978414D01*
X190280000Y-67900000D01*
X190280000Y-67100000D01*
X190283852Y-67021586D01*
X190314448Y-66867772D01*
X190374463Y-66722883D01*
X190461592Y-66592485D01*
X190572485Y-66481592D01*
X190702883Y-66394463D01*
X190847772Y-66334448D01*
X191001586Y-66303852D01*
X191158414Y-66303852D01*
X191312228Y-66334448D01*
G37*
G36*
X164325000Y-62600000D02*
G01*
X162625000Y-62600000D01*
X162625000Y-60900000D01*
X164325000Y-60900000D01*
X164325000Y-62600000D01*
G37*
G36*
X173350000Y-62600000D02*
G01*
X171650000Y-62600000D01*
X171650000Y-60900000D01*
X173350000Y-60900000D01*
X173350000Y-62600000D01*
G37*
G36*
X166261742Y-60936601D02*
G01*
X166415687Y-61000367D01*
X166554234Y-61092941D01*
X166672059Y-61210766D01*
X166764633Y-61349313D01*
X166828399Y-61503258D01*
X166860907Y-61666685D01*
X166860907Y-61833315D01*
X166828399Y-61996742D01*
X166764633Y-62150687D01*
X166672059Y-62289234D01*
X166554234Y-62407059D01*
X166415687Y-62499633D01*
X166261742Y-62563399D01*
X166098315Y-62595907D01*
X165931685Y-62595907D01*
X165768258Y-62563399D01*
X165614313Y-62499633D01*
X165475766Y-62407059D01*
X165357941Y-62289234D01*
X165265367Y-62150687D01*
X165201601Y-61996742D01*
X165169093Y-61833315D01*
X165169093Y-61666685D01*
X165201601Y-61503258D01*
X165265367Y-61349313D01*
X165357941Y-61210766D01*
X165475766Y-61092941D01*
X165614313Y-61000367D01*
X165768258Y-60936601D01*
X165931685Y-60904093D01*
X166098315Y-60904093D01*
X166261742Y-60936601D01*
G37*
G36*
X175286742Y-60936601D02*
G01*
X175440687Y-61000367D01*
X175579234Y-61092941D01*
X175697059Y-61210766D01*
X175789633Y-61349313D01*
X175853399Y-61503258D01*
X175885907Y-61666685D01*
X175885907Y-61833315D01*
X175853399Y-61996742D01*
X175789633Y-62150687D01*
X175697059Y-62289234D01*
X175579234Y-62407059D01*
X175440687Y-62499633D01*
X175286742Y-62563399D01*
X175123315Y-62595907D01*
X174956685Y-62595907D01*
X174793258Y-62563399D01*
X174639313Y-62499633D01*
X174500766Y-62407059D01*
X174382941Y-62289234D01*
X174290367Y-62150687D01*
X174226601Y-61996742D01*
X174194093Y-61833315D01*
X174194093Y-61666685D01*
X174226601Y-61503258D01*
X174290367Y-61349313D01*
X174382941Y-61210766D01*
X174500766Y-61092941D01*
X174639313Y-61000367D01*
X174793258Y-60936601D01*
X174956685Y-60904093D01*
X175123315Y-60904093D01*
X175286742Y-60936601D01*
G37*
G36*
X184100000Y-61350000D02*
G01*
X182400000Y-61350000D01*
X182400000Y-59650000D01*
X184100000Y-59650000D01*
X184100000Y-61350000D01*
G37*
G36*
X186036742Y-59686601D02*
G01*
X186190687Y-59750367D01*
X186329234Y-59842941D01*
X186447059Y-59960766D01*
X186539633Y-60099313D01*
X186603399Y-60253258D01*
X186635907Y-60416685D01*
X186635907Y-60583315D01*
X186603399Y-60746742D01*
X186539633Y-60900687D01*
X186447059Y-61039234D01*
X186329234Y-61157059D01*
X186190687Y-61249633D01*
X186036742Y-61313399D01*
X185873315Y-61345907D01*
X185706685Y-61345907D01*
X185543258Y-61313399D01*
X185389313Y-61249633D01*
X185250766Y-61157059D01*
X185132941Y-61039234D01*
X185040367Y-60900687D01*
X184976601Y-60746742D01*
X184944093Y-60583315D01*
X184944093Y-60416685D01*
X184976601Y-60253258D01*
X185040367Y-60099313D01*
X185132941Y-59960766D01*
X185250766Y-59842941D01*
X185389313Y-59750367D01*
X185543258Y-59686601D01*
X185706685Y-59654093D01*
X185873315Y-59654093D01*
X186036742Y-59686601D01*
G37*
G36*
X166850000Y-58850000D02*
G01*
X165150000Y-58850000D01*
X165150000Y-57150000D01*
X166850000Y-57150000D01*
X166850000Y-58850000D01*
G37*
G36*
X175875000Y-58850000D02*
G01*
X174175000Y-58850000D01*
X174175000Y-57150000D01*
X175875000Y-57150000D01*
X175875000Y-58850000D01*
G37*
G36*
X163706742Y-57186601D02*
G01*
X163860687Y-57250367D01*
X163999234Y-57342941D01*
X164117059Y-57460766D01*
X164209633Y-57599313D01*
X164273399Y-57753258D01*
X164305907Y-57916685D01*
X164305907Y-58083315D01*
X164273399Y-58246742D01*
X164209633Y-58400687D01*
X164117059Y-58539234D01*
X163999234Y-58657059D01*
X163860687Y-58749633D01*
X163706742Y-58813399D01*
X163543315Y-58845907D01*
X163376685Y-58845907D01*
X163213258Y-58813399D01*
X163059313Y-58749633D01*
X162920766Y-58657059D01*
X162802941Y-58539234D01*
X162710367Y-58400687D01*
X162646601Y-58246742D01*
X162614093Y-58083315D01*
X162614093Y-57916685D01*
X162646601Y-57753258D01*
X162710367Y-57599313D01*
X162802941Y-57460766D01*
X162920766Y-57342941D01*
X163059313Y-57250367D01*
X163213258Y-57186601D01*
X163376685Y-57154093D01*
X163543315Y-57154093D01*
X163706742Y-57186601D01*
G37*
G36*
X172731742Y-57186601D02*
G01*
X172885687Y-57250367D01*
X173024234Y-57342941D01*
X173142059Y-57460766D01*
X173234633Y-57599313D01*
X173298399Y-57753258D01*
X173330907Y-57916685D01*
X173330907Y-58083315D01*
X173298399Y-58246742D01*
X173234633Y-58400687D01*
X173142059Y-58539234D01*
X173024234Y-58657059D01*
X172885687Y-58749633D01*
X172731742Y-58813399D01*
X172568315Y-58845907D01*
X172401685Y-58845907D01*
X172238258Y-58813399D01*
X172084313Y-58749633D01*
X171945766Y-58657059D01*
X171827941Y-58539234D01*
X171735367Y-58400687D01*
X171671601Y-58246742D01*
X171639093Y-58083315D01*
X171639093Y-57916685D01*
X171671601Y-57753258D01*
X171735367Y-57599313D01*
X171827941Y-57460766D01*
X171945766Y-57342941D01*
X172084313Y-57250367D01*
X172238258Y-57186601D01*
X172401685Y-57154093D01*
X172568315Y-57154093D01*
X172731742Y-57186601D01*
G37*
G36*
X186600000Y-57350000D02*
G01*
X184900000Y-57350000D01*
X184900000Y-55650000D01*
X186600000Y-55650000D01*
X186600000Y-57350000D01*
G37*
G36*
X183456742Y-55686601D02*
G01*
X183610687Y-55750367D01*
X183749234Y-55842941D01*
X183867059Y-55960766D01*
X183959633Y-56099313D01*
X184023399Y-56253258D01*
X184055907Y-56416685D01*
X184055907Y-56583315D01*
X184023399Y-56746742D01*
X183959633Y-56900687D01*
X183867059Y-57039234D01*
X183749234Y-57157059D01*
X183610687Y-57249633D01*
X183456742Y-57313399D01*
X183293315Y-57345907D01*
X183126685Y-57345907D01*
X182963258Y-57313399D01*
X182809313Y-57249633D01*
X182670766Y-57157059D01*
X182552941Y-57039234D01*
X182460367Y-56900687D01*
X182396601Y-56746742D01*
X182364093Y-56583315D01*
X182364093Y-56416685D01*
X182396601Y-56253258D01*
X182460367Y-56099313D01*
X182552941Y-55960766D01*
X182670766Y-55842941D01*
X182809313Y-55750367D01*
X182963258Y-55686601D01*
X183126685Y-55654093D01*
X183293315Y-55654093D01*
X183456742Y-55686601D01*
G37*
G36*
X132906464Y-46862327D02*
G01*
X133081073Y-46919061D01*
X133244656Y-47002411D01*
X133393187Y-47110325D01*
X133523008Y-47240146D01*
X133630922Y-47388677D01*
X133714272Y-47552260D01*
X133771006Y-47726869D01*
X133799726Y-47908203D01*
X133799726Y-48091797D01*
X133771006Y-48273131D01*
X133714272Y-48447740D01*
X133630922Y-48611323D01*
X133523008Y-48759854D01*
X133393187Y-48889675D01*
X133244656Y-48997589D01*
X133081073Y-49080939D01*
X132906464Y-49137673D01*
X132725130Y-49166393D01*
X132541536Y-49166393D01*
X132360202Y-49137673D01*
X132185593Y-49080939D01*
X132022010Y-48997589D01*
X131873479Y-48889675D01*
X131743658Y-48759854D01*
X131635744Y-48611323D01*
X131552394Y-48447740D01*
X131495660Y-48273131D01*
X131466940Y-48091797D01*
X131466940Y-47908203D01*
X131495660Y-47726869D01*
X131552394Y-47552260D01*
X131635744Y-47388677D01*
X131743658Y-47240146D01*
X131873479Y-47110325D01*
X132022010Y-47002411D01*
X132185593Y-46919061D01*
X132360202Y-46862327D01*
X132541536Y-46833607D01*
X132725130Y-46833607D01*
X132906464Y-46862327D01*
G37*
G36*
X137906464Y-46862327D02*
G01*
X138081073Y-46919061D01*
X138244656Y-47002411D01*
X138393187Y-47110325D01*
X138523008Y-47240146D01*
X138630922Y-47388677D01*
X138714272Y-47552260D01*
X138771006Y-47726869D01*
X138799726Y-47908203D01*
X138799726Y-48091797D01*
X138771006Y-48273131D01*
X138714272Y-48447740D01*
X138630922Y-48611323D01*
X138523008Y-48759854D01*
X138393187Y-48889675D01*
X138244656Y-48997589D01*
X138081073Y-49080939D01*
X137906464Y-49137673D01*
X137725130Y-49166393D01*
X137541536Y-49166393D01*
X137360202Y-49137673D01*
X137185593Y-49080939D01*
X137022010Y-48997589D01*
X136873479Y-48889675D01*
X136743658Y-48759854D01*
X136635744Y-48611323D01*
X136552394Y-48447740D01*
X136495660Y-48273131D01*
X136466940Y-48091797D01*
X136466940Y-47908203D01*
X136495660Y-47726869D01*
X136552394Y-47552260D01*
X136635744Y-47388677D01*
X136743658Y-47240146D01*
X136873479Y-47110325D01*
X137022010Y-47002411D01*
X137185593Y-46919061D01*
X137360202Y-46862327D01*
X137541536Y-46833607D01*
X137725130Y-46833607D01*
X137906464Y-46862327D01*
G37*
G36*
X142906464Y-46862327D02*
G01*
X143081073Y-46919061D01*
X143244656Y-47002411D01*
X143393187Y-47110325D01*
X143523008Y-47240146D01*
X143630922Y-47388677D01*
X143714272Y-47552260D01*
X143771006Y-47726869D01*
X143799726Y-47908203D01*
X143799726Y-48091797D01*
X143771006Y-48273131D01*
X143714272Y-48447740D01*
X143630922Y-48611323D01*
X143523008Y-48759854D01*
X143393187Y-48889675D01*
X143244656Y-48997589D01*
X143081073Y-49080939D01*
X142906464Y-49137673D01*
X142725130Y-49166393D01*
X142541536Y-49166393D01*
X142360202Y-49137673D01*
X142185593Y-49080939D01*
X142022010Y-48997589D01*
X141873479Y-48889675D01*
X141743658Y-48759854D01*
X141635744Y-48611323D01*
X141552394Y-48447740D01*
X141495660Y-48273131D01*
X141466940Y-48091797D01*
X141466940Y-47908203D01*
X141495660Y-47726869D01*
X141552394Y-47552260D01*
X141635744Y-47388677D01*
X141743658Y-47240146D01*
X141873479Y-47110325D01*
X142022010Y-47002411D01*
X142185593Y-46919061D01*
X142360202Y-46862327D01*
X142541536Y-46833607D01*
X142725130Y-46833607D01*
X142906464Y-46862327D01*
G37*
G36*
X149714798Y-46862327D02*
G01*
X149889407Y-46919061D01*
X150052990Y-47002411D01*
X150201521Y-47110325D01*
X150331342Y-47240146D01*
X150439256Y-47388677D01*
X150522606Y-47552260D01*
X150579340Y-47726869D01*
X150608060Y-47908203D01*
X150608060Y-48091797D01*
X150579340Y-48273131D01*
X150522606Y-48447740D01*
X150439256Y-48611323D01*
X150331342Y-48759854D01*
X150201521Y-48889675D01*
X150052990Y-48997589D01*
X149889407Y-49080939D01*
X149714798Y-49137673D01*
X149533464Y-49166393D01*
X149349870Y-49166393D01*
X149168536Y-49137673D01*
X148993927Y-49080939D01*
X148830344Y-48997589D01*
X148681813Y-48889675D01*
X148551992Y-48759854D01*
X148444078Y-48611323D01*
X148360728Y-48447740D01*
X148303994Y-48273131D01*
X148275274Y-48091797D01*
X148275274Y-47908203D01*
X148303994Y-47726869D01*
X148360728Y-47552260D01*
X148444078Y-47388677D01*
X148551992Y-47240146D01*
X148681813Y-47110325D01*
X148830344Y-47002411D01*
X148993927Y-46919061D01*
X149168536Y-46862327D01*
X149349870Y-46833607D01*
X149533464Y-46833607D01*
X149714798Y-46862327D01*
G37*
G36*
X154714798Y-46862327D02*
G01*
X154889407Y-46919061D01*
X155052990Y-47002411D01*
X155201521Y-47110325D01*
X155331342Y-47240146D01*
X155439256Y-47388677D01*
X155522606Y-47552260D01*
X155579340Y-47726869D01*
X155608060Y-47908203D01*
X155608060Y-48091797D01*
X155579340Y-48273131D01*
X155522606Y-48447740D01*
X155439256Y-48611323D01*
X155331342Y-48759854D01*
X155201521Y-48889675D01*
X155052990Y-48997589D01*
X154889407Y-49080939D01*
X154714798Y-49137673D01*
X154533464Y-49166393D01*
X154349870Y-49166393D01*
X154168536Y-49137673D01*
X153993927Y-49080939D01*
X153830344Y-48997589D01*
X153681813Y-48889675D01*
X153551992Y-48759854D01*
X153444078Y-48611323D01*
X153360728Y-48447740D01*
X153303994Y-48273131D01*
X153275274Y-48091797D01*
X153275274Y-47908203D01*
X153303994Y-47726869D01*
X153360728Y-47552260D01*
X153444078Y-47388677D01*
X153551992Y-47240146D01*
X153681813Y-47110325D01*
X153830344Y-47002411D01*
X153993927Y-46919061D01*
X154168536Y-46862327D01*
X154349870Y-46833607D01*
X154533464Y-46833607D01*
X154714798Y-46862327D01*
G37*
G36*
X159714798Y-46862327D02*
G01*
X159889407Y-46919061D01*
X160052990Y-47002411D01*
X160201521Y-47110325D01*
X160331342Y-47240146D01*
X160439256Y-47388677D01*
X160522606Y-47552260D01*
X160579340Y-47726869D01*
X160608060Y-47908203D01*
X160608060Y-48091797D01*
X160579340Y-48273131D01*
X160522606Y-48447740D01*
X160439256Y-48611323D01*
X160331342Y-48759854D01*
X160201521Y-48889675D01*
X160052990Y-48997589D01*
X159889407Y-49080939D01*
X159714798Y-49137673D01*
X159533464Y-49166393D01*
X159349870Y-49166393D01*
X159168536Y-49137673D01*
X158993927Y-49080939D01*
X158830344Y-48997589D01*
X158681813Y-48889675D01*
X158551992Y-48759854D01*
X158444078Y-48611323D01*
X158360728Y-48447740D01*
X158303994Y-48273131D01*
X158275274Y-48091797D01*
X158275274Y-47908203D01*
X158303994Y-47726869D01*
X158360728Y-47552260D01*
X158444078Y-47388677D01*
X158551992Y-47240146D01*
X158681813Y-47110325D01*
X158830344Y-47002411D01*
X158993927Y-46919061D01*
X159168536Y-46862327D01*
X159349870Y-46833607D01*
X159533464Y-46833607D01*
X159714798Y-46862327D01*
G37*
G36*
X166523131Y-46862327D02*
G01*
X166697740Y-46919061D01*
X166861323Y-47002411D01*
X167009854Y-47110325D01*
X167139675Y-47240146D01*
X167247589Y-47388677D01*
X167330939Y-47552260D01*
X167387673Y-47726869D01*
X167416393Y-47908203D01*
X167416393Y-48091797D01*
X167387673Y-48273131D01*
X167330939Y-48447740D01*
X167247589Y-48611323D01*
X167139675Y-48759854D01*
X167009854Y-48889675D01*
X166861323Y-48997589D01*
X166697740Y-49080939D01*
X166523131Y-49137673D01*
X166341797Y-49166393D01*
X166158203Y-49166393D01*
X165976869Y-49137673D01*
X165802260Y-49080939D01*
X165638677Y-48997589D01*
X165490146Y-48889675D01*
X165360325Y-48759854D01*
X165252411Y-48611323D01*
X165169061Y-48447740D01*
X165112327Y-48273131D01*
X165083607Y-48091797D01*
X165083607Y-47908203D01*
X165112327Y-47726869D01*
X165169061Y-47552260D01*
X165252411Y-47388677D01*
X165360325Y-47240146D01*
X165490146Y-47110325D01*
X165638677Y-47002411D01*
X165802260Y-46919061D01*
X165976869Y-46862327D01*
X166158203Y-46833607D01*
X166341797Y-46833607D01*
X166523131Y-46862327D01*
G37*
G36*
X171523131Y-46862327D02*
G01*
X171697740Y-46919061D01*
X171861323Y-47002411D01*
X172009854Y-47110325D01*
X172139675Y-47240146D01*
X172247589Y-47388677D01*
X172330939Y-47552260D01*
X172387673Y-47726869D01*
X172416393Y-47908203D01*
X172416393Y-48091797D01*
X172387673Y-48273131D01*
X172330939Y-48447740D01*
X172247589Y-48611323D01*
X172139675Y-48759854D01*
X172009854Y-48889675D01*
X171861323Y-48997589D01*
X171697740Y-49080939D01*
X171523131Y-49137673D01*
X171341797Y-49166393D01*
X171158203Y-49166393D01*
X170976869Y-49137673D01*
X170802260Y-49080939D01*
X170638677Y-48997589D01*
X170490146Y-48889675D01*
X170360325Y-48759854D01*
X170252411Y-48611323D01*
X170169061Y-48447740D01*
X170112327Y-48273131D01*
X170083607Y-48091797D01*
X170083607Y-47908203D01*
X170112327Y-47726869D01*
X170169061Y-47552260D01*
X170252411Y-47388677D01*
X170360325Y-47240146D01*
X170490146Y-47110325D01*
X170638677Y-47002411D01*
X170802260Y-46919061D01*
X170976869Y-46862327D01*
X171158203Y-46833607D01*
X171341797Y-46833607D01*
X171523131Y-46862327D01*
G37*
G36*
X176523131Y-46862327D02*
G01*
X176697740Y-46919061D01*
X176861323Y-47002411D01*
X177009854Y-47110325D01*
X177139675Y-47240146D01*
X177247589Y-47388677D01*
X177330939Y-47552260D01*
X177387673Y-47726869D01*
X177416393Y-47908203D01*
X177416393Y-48091797D01*
X177387673Y-48273131D01*
X177330939Y-48447740D01*
X177247589Y-48611323D01*
X177139675Y-48759854D01*
X177009854Y-48889675D01*
X176861323Y-48997589D01*
X176697740Y-49080939D01*
X176523131Y-49137673D01*
X176341797Y-49166393D01*
X176158203Y-49166393D01*
X175976869Y-49137673D01*
X175802260Y-49080939D01*
X175638677Y-48997589D01*
X175490146Y-48889675D01*
X175360325Y-48759854D01*
X175252411Y-48611323D01*
X175169061Y-48447740D01*
X175112327Y-48273131D01*
X175083607Y-48091797D01*
X175083607Y-47908203D01*
X175112327Y-47726869D01*
X175169061Y-47552260D01*
X175252411Y-47388677D01*
X175360325Y-47240146D01*
X175490146Y-47110325D01*
X175638677Y-47002411D01*
X175802260Y-46919061D01*
X175976869Y-46862327D01*
X176158203Y-46833607D01*
X176341797Y-46833607D01*
X176523131Y-46862327D01*
G37*
G36*
X115100168Y-37041445D02*
G01*
X115324025Y-37114181D01*
X115533748Y-37221040D01*
X115724172Y-37359391D01*
X115890609Y-37525828D01*
X116028960Y-37716252D01*
X116135819Y-37925975D01*
X116208555Y-38149832D01*
X116245376Y-38382311D01*
X116245376Y-38617689D01*
X116208555Y-38850168D01*
X116135819Y-39074025D01*
X116028960Y-39283748D01*
X115890609Y-39474172D01*
X115724172Y-39640609D01*
X115533748Y-39778960D01*
X115324025Y-39885819D01*
X115100168Y-39958555D01*
X114867689Y-39995376D01*
X114632311Y-39995376D01*
X114399832Y-39958555D01*
X114175975Y-39885819D01*
X113966252Y-39778960D01*
X113775828Y-39640609D01*
X113609391Y-39474172D01*
X113471040Y-39283748D01*
X113364181Y-39074025D01*
X113291445Y-38850168D01*
X113254624Y-38617689D01*
X113254624Y-38382311D01*
X113291445Y-38149832D01*
X113364181Y-37925975D01*
X113471040Y-37716252D01*
X113609391Y-37525828D01*
X113775828Y-37359391D01*
X113966252Y-37221040D01*
X114175975Y-37114181D01*
X114399832Y-37041445D01*
X114632311Y-37004624D01*
X114867689Y-37004624D01*
X115100168Y-37041445D01*
G37*
G36*
X205600168Y-37041445D02*
G01*
X205824025Y-37114181D01*
X206033748Y-37221040D01*
X206224172Y-37359391D01*
X206390609Y-37525828D01*
X206528960Y-37716252D01*
X206635819Y-37925975D01*
X206708555Y-38149832D01*
X206745376Y-38382311D01*
X206745376Y-38617689D01*
X206708555Y-38850168D01*
X206635819Y-39074025D01*
X206528960Y-39283748D01*
X206390609Y-39474172D01*
X206224172Y-39640609D01*
X206033748Y-39778960D01*
X205824025Y-39885819D01*
X205600168Y-39958555D01*
X205367689Y-39995376D01*
X205132311Y-39995376D01*
X204899832Y-39958555D01*
X204675975Y-39885819D01*
X204466252Y-39778960D01*
X204275828Y-39640609D01*
X204109391Y-39474172D01*
X203971040Y-39283748D01*
X203864181Y-39074025D01*
X203791445Y-38850168D01*
X203754624Y-38617689D01*
X203754624Y-38382311D01*
X203791445Y-38149832D01*
X203864181Y-37925975D01*
X203971040Y-37716252D01*
X204109391Y-37525828D01*
X204275828Y-37359391D01*
X204466252Y-37221040D01*
X204675975Y-37114181D01*
X204899832Y-37041445D01*
X205132311Y-37004624D01*
X205367689Y-37004624D01*
X205600168Y-37041445D01*
G37*
G36*
X124523131Y-37167327D02*
G01*
X124697740Y-37224061D01*
X124861323Y-37307411D01*
X125009854Y-37415325D01*
X125139675Y-37545146D01*
X125247589Y-37693677D01*
X125330939Y-37857260D01*
X125387673Y-38031869D01*
X125416393Y-38213203D01*
X125416393Y-38396797D01*
X125387673Y-38578131D01*
X125330939Y-38752740D01*
X125247589Y-38916323D01*
X125139675Y-39064854D01*
X125009854Y-39194675D01*
X124861323Y-39302589D01*
X124697740Y-39385939D01*
X124523131Y-39442673D01*
X124341797Y-39471393D01*
X124158203Y-39471393D01*
X123976869Y-39442673D01*
X123802260Y-39385939D01*
X123638677Y-39302589D01*
X123490146Y-39194675D01*
X123360325Y-39064854D01*
X123252411Y-38916323D01*
X123169061Y-38752740D01*
X123112327Y-38578131D01*
X123083607Y-38396797D01*
X123083607Y-38213203D01*
X123112327Y-38031869D01*
X123169061Y-37857260D01*
X123252411Y-37693677D01*
X123360325Y-37545146D01*
X123490146Y-37415325D01*
X123638677Y-37307411D01*
X123802260Y-37224061D01*
X123976869Y-37167327D01*
X124158203Y-37138607D01*
X124341797Y-37138607D01*
X124523131Y-37167327D01*
G37*
G36*
X129523131Y-37167327D02*
G01*
X129697740Y-37224061D01*
X129861323Y-37307411D01*
X130009854Y-37415325D01*
X130139675Y-37545146D01*
X130247589Y-37693677D01*
X130330939Y-37857260D01*
X130387673Y-38031869D01*
X130416393Y-38213203D01*
X130416393Y-38396797D01*
X130387673Y-38578131D01*
X130330939Y-38752740D01*
X130247589Y-38916323D01*
X130139675Y-39064854D01*
X130009854Y-39194675D01*
X129861323Y-39302589D01*
X129697740Y-39385939D01*
X129523131Y-39442673D01*
X129341797Y-39471393D01*
X129158203Y-39471393D01*
X128976869Y-39442673D01*
X128802260Y-39385939D01*
X128638677Y-39302589D01*
X128490146Y-39194675D01*
X128360325Y-39064854D01*
X128252411Y-38916323D01*
X128169061Y-38752740D01*
X128112327Y-38578131D01*
X128083607Y-38396797D01*
X128083607Y-38213203D01*
X128112327Y-38031869D01*
X128169061Y-37857260D01*
X128252411Y-37693677D01*
X128360325Y-37545146D01*
X128490146Y-37415325D01*
X128638677Y-37307411D01*
X128802260Y-37224061D01*
X128976869Y-37167327D01*
X129158203Y-37138607D01*
X129341797Y-37138607D01*
X129523131Y-37167327D01*
G37*
G36*
X134523131Y-37167327D02*
G01*
X134697740Y-37224061D01*
X134861323Y-37307411D01*
X135009854Y-37415325D01*
X135139675Y-37545146D01*
X135247589Y-37693677D01*
X135330939Y-37857260D01*
X135387673Y-38031869D01*
X135416393Y-38213203D01*
X135416393Y-38396797D01*
X135387673Y-38578131D01*
X135330939Y-38752740D01*
X135247589Y-38916323D01*
X135139675Y-39064854D01*
X135009854Y-39194675D01*
X134861323Y-39302589D01*
X134697740Y-39385939D01*
X134523131Y-39442673D01*
X134341797Y-39471393D01*
X134158203Y-39471393D01*
X133976869Y-39442673D01*
X133802260Y-39385939D01*
X133638677Y-39302589D01*
X133490146Y-39194675D01*
X133360325Y-39064854D01*
X133252411Y-38916323D01*
X133169061Y-38752740D01*
X133112327Y-38578131D01*
X133083607Y-38396797D01*
X133083607Y-38213203D01*
X133112327Y-38031869D01*
X133169061Y-37857260D01*
X133252411Y-37693677D01*
X133360325Y-37545146D01*
X133490146Y-37415325D01*
X133638677Y-37307411D01*
X133802260Y-37224061D01*
X133976869Y-37167327D01*
X134158203Y-37138607D01*
X134341797Y-37138607D01*
X134523131Y-37167327D01*
G37*
G36*
X141406464Y-37112327D02*
G01*
X141581073Y-37169061D01*
X141744656Y-37252411D01*
X141893187Y-37360325D01*
X142023008Y-37490146D01*
X142130922Y-37638677D01*
X142214272Y-37802260D01*
X142271006Y-37976869D01*
X142299726Y-38158203D01*
X142299726Y-38341797D01*
X142271006Y-38523131D01*
X142214272Y-38697740D01*
X142130922Y-38861323D01*
X142023008Y-39009854D01*
X141893187Y-39139675D01*
X141744656Y-39247589D01*
X141581073Y-39330939D01*
X141406464Y-39387673D01*
X141225130Y-39416393D01*
X141041536Y-39416393D01*
X140860202Y-39387673D01*
X140685593Y-39330939D01*
X140522010Y-39247589D01*
X140373479Y-39139675D01*
X140243658Y-39009854D01*
X140135744Y-38861323D01*
X140052394Y-38697740D01*
X139995660Y-38523131D01*
X139966940Y-38341797D01*
X139966940Y-38158203D01*
X139995660Y-37976869D01*
X140052394Y-37802260D01*
X140135744Y-37638677D01*
X140243658Y-37490146D01*
X140373479Y-37360325D01*
X140522010Y-37252411D01*
X140685593Y-37169061D01*
X140860202Y-37112327D01*
X141041536Y-37083607D01*
X141225130Y-37083607D01*
X141406464Y-37112327D01*
G37*
G36*
X146406464Y-37112327D02*
G01*
X146581073Y-37169061D01*
X146744656Y-37252411D01*
X146893187Y-37360325D01*
X147023008Y-37490146D01*
X147130922Y-37638677D01*
X147214272Y-37802260D01*
X147271006Y-37976869D01*
X147299726Y-38158203D01*
X147299726Y-38341797D01*
X147271006Y-38523131D01*
X147214272Y-38697740D01*
X147130922Y-38861323D01*
X147023008Y-39009854D01*
X146893187Y-39139675D01*
X146744656Y-39247589D01*
X146581073Y-39330939D01*
X146406464Y-39387673D01*
X146225130Y-39416393D01*
X146041536Y-39416393D01*
X145860202Y-39387673D01*
X145685593Y-39330939D01*
X145522010Y-39247589D01*
X145373479Y-39139675D01*
X145243658Y-39009854D01*
X145135744Y-38861323D01*
X145052394Y-38697740D01*
X144995660Y-38523131D01*
X144966940Y-38341797D01*
X144966940Y-38158203D01*
X144995660Y-37976869D01*
X145052394Y-37802260D01*
X145135744Y-37638677D01*
X145243658Y-37490146D01*
X145373479Y-37360325D01*
X145522010Y-37252411D01*
X145685593Y-37169061D01*
X145860202Y-37112327D01*
X146041536Y-37083607D01*
X146225130Y-37083607D01*
X146406464Y-37112327D01*
G37*
G36*
X151406464Y-37112327D02*
G01*
X151581073Y-37169061D01*
X151744656Y-37252411D01*
X151893187Y-37360325D01*
X152023008Y-37490146D01*
X152130922Y-37638677D01*
X152214272Y-37802260D01*
X152271006Y-37976869D01*
X152299726Y-38158203D01*
X152299726Y-38341797D01*
X152271006Y-38523131D01*
X152214272Y-38697740D01*
X152130922Y-38861323D01*
X152023008Y-39009854D01*
X151893187Y-39139675D01*
X151744656Y-39247589D01*
X151581073Y-39330939D01*
X151406464Y-39387673D01*
X151225130Y-39416393D01*
X151041536Y-39416393D01*
X150860202Y-39387673D01*
X150685593Y-39330939D01*
X150522010Y-39247589D01*
X150373479Y-39139675D01*
X150243658Y-39009854D01*
X150135744Y-38861323D01*
X150052394Y-38697740D01*
X149995660Y-38523131D01*
X149966940Y-38341797D01*
X149966940Y-38158203D01*
X149995660Y-37976869D01*
X150052394Y-37802260D01*
X150135744Y-37638677D01*
X150243658Y-37490146D01*
X150373479Y-37360325D01*
X150522010Y-37252411D01*
X150685593Y-37169061D01*
X150860202Y-37112327D01*
X151041536Y-37083607D01*
X151225130Y-37083607D01*
X151406464Y-37112327D01*
G37*
G36*
X158214798Y-37112327D02*
G01*
X158389407Y-37169061D01*
X158552990Y-37252411D01*
X158701521Y-37360325D01*
X158831342Y-37490146D01*
X158939256Y-37638677D01*
X159022606Y-37802260D01*
X159079340Y-37976869D01*
X159108060Y-38158203D01*
X159108060Y-38341797D01*
X159079340Y-38523131D01*
X159022606Y-38697740D01*
X158939256Y-38861323D01*
X158831342Y-39009854D01*
X158701521Y-39139675D01*
X158552990Y-39247589D01*
X158389407Y-39330939D01*
X158214798Y-39387673D01*
X158033464Y-39416393D01*
X157849870Y-39416393D01*
X157668536Y-39387673D01*
X157493927Y-39330939D01*
X157330344Y-39247589D01*
X157181813Y-39139675D01*
X157051992Y-39009854D01*
X156944078Y-38861323D01*
X156860728Y-38697740D01*
X156803994Y-38523131D01*
X156775274Y-38341797D01*
X156775274Y-38158203D01*
X156803994Y-37976869D01*
X156860728Y-37802260D01*
X156944078Y-37638677D01*
X157051992Y-37490146D01*
X157181813Y-37360325D01*
X157330344Y-37252411D01*
X157493927Y-37169061D01*
X157668536Y-37112327D01*
X157849870Y-37083607D01*
X158033464Y-37083607D01*
X158214798Y-37112327D01*
G37*
G36*
X163214798Y-37112327D02*
G01*
X163389407Y-37169061D01*
X163552990Y-37252411D01*
X163701521Y-37360325D01*
X163831342Y-37490146D01*
X163939256Y-37638677D01*
X164022606Y-37802260D01*
X164079340Y-37976869D01*
X164108060Y-38158203D01*
X164108060Y-38341797D01*
X164079340Y-38523131D01*
X164022606Y-38697740D01*
X163939256Y-38861323D01*
X163831342Y-39009854D01*
X163701521Y-39139675D01*
X163552990Y-39247589D01*
X163389407Y-39330939D01*
X163214798Y-39387673D01*
X163033464Y-39416393D01*
X162849870Y-39416393D01*
X162668536Y-39387673D01*
X162493927Y-39330939D01*
X162330344Y-39247589D01*
X162181813Y-39139675D01*
X162051992Y-39009854D01*
X161944078Y-38861323D01*
X161860728Y-38697740D01*
X161803994Y-38523131D01*
X161775274Y-38341797D01*
X161775274Y-38158203D01*
X161803994Y-37976869D01*
X161860728Y-37802260D01*
X161944078Y-37638677D01*
X162051992Y-37490146D01*
X162181813Y-37360325D01*
X162330344Y-37252411D01*
X162493927Y-37169061D01*
X162668536Y-37112327D01*
X162849870Y-37083607D01*
X163033464Y-37083607D01*
X163214798Y-37112327D01*
G37*
G36*
X168214798Y-37112327D02*
G01*
X168389407Y-37169061D01*
X168552990Y-37252411D01*
X168701521Y-37360325D01*
X168831342Y-37490146D01*
X168939256Y-37638677D01*
X169022606Y-37802260D01*
X169079340Y-37976869D01*
X169108060Y-38158203D01*
X169108060Y-38341797D01*
X169079340Y-38523131D01*
X169022606Y-38697740D01*
X168939256Y-38861323D01*
X168831342Y-39009854D01*
X168701521Y-39139675D01*
X168552990Y-39247589D01*
X168389407Y-39330939D01*
X168214798Y-39387673D01*
X168033464Y-39416393D01*
X167849870Y-39416393D01*
X167668536Y-39387673D01*
X167493927Y-39330939D01*
X167330344Y-39247589D01*
X167181813Y-39139675D01*
X167051992Y-39009854D01*
X166944078Y-38861323D01*
X166860728Y-38697740D01*
X166803994Y-38523131D01*
X166775274Y-38341797D01*
X166775274Y-38158203D01*
X166803994Y-37976869D01*
X166860728Y-37802260D01*
X166944078Y-37638677D01*
X167051992Y-37490146D01*
X167181813Y-37360325D01*
X167330344Y-37252411D01*
X167493927Y-37169061D01*
X167668536Y-37112327D01*
X167849870Y-37083607D01*
X168033464Y-37083607D01*
X168214798Y-37112327D01*
G37*
G36*
X175023131Y-37112327D02*
G01*
X175197740Y-37169061D01*
X175361323Y-37252411D01*
X175509854Y-37360325D01*
X175639675Y-37490146D01*
X175747589Y-37638677D01*
X175830939Y-37802260D01*
X175887673Y-37976869D01*
X175916393Y-38158203D01*
X175916393Y-38341797D01*
X175887673Y-38523131D01*
X175830939Y-38697740D01*
X175747589Y-38861323D01*
X175639675Y-39009854D01*
X175509854Y-39139675D01*
X175361323Y-39247589D01*
X175197740Y-39330939D01*
X175023131Y-39387673D01*
X174841797Y-39416393D01*
X174658203Y-39416393D01*
X174476869Y-39387673D01*
X174302260Y-39330939D01*
X174138677Y-39247589D01*
X173990146Y-39139675D01*
X173860325Y-39009854D01*
X173752411Y-38861323D01*
X173669061Y-38697740D01*
X173612327Y-38523131D01*
X173583607Y-38341797D01*
X173583607Y-38158203D01*
X173612327Y-37976869D01*
X173669061Y-37802260D01*
X173752411Y-37638677D01*
X173860325Y-37490146D01*
X173990146Y-37360325D01*
X174138677Y-37252411D01*
X174302260Y-37169061D01*
X174476869Y-37112327D01*
X174658203Y-37083607D01*
X174841797Y-37083607D01*
X175023131Y-37112327D01*
G37*
G36*
X180023131Y-37112327D02*
G01*
X180197740Y-37169061D01*
X180361323Y-37252411D01*
X180509854Y-37360325D01*
X180639675Y-37490146D01*
X180747589Y-37638677D01*
X180830939Y-37802260D01*
X180887673Y-37976869D01*
X180916393Y-38158203D01*
X180916393Y-38341797D01*
X180887673Y-38523131D01*
X180830939Y-38697740D01*
X180747589Y-38861323D01*
X180639675Y-39009854D01*
X180509854Y-39139675D01*
X180361323Y-39247589D01*
X180197740Y-39330939D01*
X180023131Y-39387673D01*
X179841797Y-39416393D01*
X179658203Y-39416393D01*
X179476869Y-39387673D01*
X179302260Y-39330939D01*
X179138677Y-39247589D01*
X178990146Y-39139675D01*
X178860325Y-39009854D01*
X178752411Y-38861323D01*
X178669061Y-38697740D01*
X178612327Y-38523131D01*
X178583607Y-38341797D01*
X178583607Y-38158203D01*
X178612327Y-37976869D01*
X178669061Y-37802260D01*
X178752411Y-37638677D01*
X178860325Y-37490146D01*
X178990146Y-37360325D01*
X179138677Y-37252411D01*
X179302260Y-37169061D01*
X179476869Y-37112327D01*
X179658203Y-37083607D01*
X179841797Y-37083607D01*
X180023131Y-37112327D01*
G37*
G36*
X185023131Y-37112327D02*
G01*
X185197740Y-37169061D01*
X185361323Y-37252411D01*
X185509854Y-37360325D01*
X185639675Y-37490146D01*
X185747589Y-37638677D01*
X185830939Y-37802260D01*
X185887673Y-37976869D01*
X185916393Y-38158203D01*
X185916393Y-38341797D01*
X185887673Y-38523131D01*
X185830939Y-38697740D01*
X185747589Y-38861323D01*
X185639675Y-39009854D01*
X185509854Y-39139675D01*
X185361323Y-39247589D01*
X185197740Y-39330939D01*
X185023131Y-39387673D01*
X184841797Y-39416393D01*
X184658203Y-39416393D01*
X184476869Y-39387673D01*
X184302260Y-39330939D01*
X184138677Y-39247589D01*
X183990146Y-39139675D01*
X183860325Y-39009854D01*
X183752411Y-38861323D01*
X183669061Y-38697740D01*
X183612327Y-38523131D01*
X183583607Y-38341797D01*
X183583607Y-38158203D01*
X183612327Y-37976869D01*
X183669061Y-37802260D01*
X183752411Y-37638677D01*
X183860325Y-37490146D01*
X183990146Y-37360325D01*
X184138677Y-37252411D01*
X184302260Y-37169061D01*
X184476869Y-37112327D01*
X184658203Y-37083607D01*
X184841797Y-37083607D01*
X185023131Y-37112327D01*
G37*
M02*
