M48
; DRILL file {KiCad 9.0.3} date 2025-08-29T16:02:41+0200
; FORMAT={-:-/ absolute / inch / decimal}
; #@! TF.CreationDate,2025-08-29T16:02:41+02:00
; #@! TF.GenerationSoftware,Kicad,Pcbnew,9.0.3
; #@! TF.FileFunction,Plated,1,2,PTH
FMAT,2
INCH
; #@! TA.AperFunction,Plated,PTH,ViaDrill
T1C0.0157
; #@! TA.AperFunction,Plated,PTH,ComponentDrill
T2C0.0315
; #@! TA.AperFunction,Plated,PTH,ComponentDrill
T3C0.0374
; #@! TA.AperFunction,Plated,PTH,ComponentDrill
T4C0.0394
; #@! TA.AperFunction,Plated,PTH,ComponentDrill
T5C0.0433
; #@! TA.AperFunction,Plated,PTH,ComponentDrill
T6C0.0512
%
G90
G05
T1
X5.3642Y-2.3637
X5.3937Y-2.2146
X5.6102Y-2.2835
X5.7382Y-2.5408
X5.7382Y-2.6786
X5.8563Y-2.4508
X5.8858Y-2.7559
X5.9744Y-3.3858
X6.0827Y-3.5433
X6.2307Y-2.7756
X6.2307Y-3.2382
X6.3484Y-3.8376
X6.4862Y-2.6181
X6.5354Y-2.9528
X6.5354Y-3.0315
X6.6142Y-2.815
X6.6339Y-3.7303
X6.6929Y-2.9724
X6.7913Y-3.622
X6.8307Y-3.2283
X6.8701Y-2.8445
X7.2531Y-3.1685
X7.4528Y-3.3602
X7.4902Y-2.8075
T2
X4.9606Y-3.4547
X5.1157Y-2.7058
X5.1157Y-2.8058
X5.1157Y-2.9058
X5.1157Y-3.0058
X5.1575Y-3.4547
X5.2854Y-3.9075
X5.2854Y-4.1043
X5.3937Y-3.4547
X5.4157Y-2.7058
X5.4157Y-2.8058
X5.4157Y-2.9058
X5.4157Y-3.0058
X5.5906Y-3.4547
X6.661Y-3.1374
X6.661Y-3.2374
X6.661Y-3.3374
X6.661Y-3.4374
X6.8776Y-3.7992
X6.8776Y-4.0992
X6.961Y-3.1374
X6.961Y-3.2374
X6.961Y-3.3374
X6.961Y-3.4374
X6.9776Y-3.7992
X6.9776Y-4.0992
X7.0776Y-3.7992
X7.0776Y-4.0992
X7.1776Y-3.7992
X7.1776Y-4.0992
X7.2228Y-2.6575
X7.2228Y-2.9575
X7.3228Y-2.6575
X7.3228Y-2.9575
X7.4228Y-2.6575
X7.4228Y-2.9575
X7.5228Y-2.6575
X7.5228Y-2.9575
T3
X7.5098Y-4.0551
X7.6083Y-4.0551
X7.7067Y-4.0551
X7.8051Y-4.0551
T4
X5.9543Y-3.0315
X6.1512Y-2.9331
X6.1512Y-3.1299
X6.2494Y-3.4843
X6.25Y-3.3366
X6.3494Y-3.4843
X6.35Y-3.3366
X6.4354Y-2.2835
X6.436Y-2.4311
X6.5354Y-2.2835
X6.536Y-2.4311
X6.7907Y-2.2835
X6.7913Y-2.4311
X6.8907Y-2.2835
X6.8913Y-2.4311
X7.213Y-2.2244
X7.2146Y-2.3819
X7.313Y-2.2244
X7.3146Y-2.3819
T5
X6.1583Y-3.9567
X6.5583Y-3.9567
T6
X4.8917Y-1.5081
X5.0886Y-1.5081
X5.2218Y-1.8898
X5.2854Y-1.5081
X5.4186Y-1.8898
X5.5564Y-1.5059
X5.6155Y-1.8898
X5.7533Y-1.5059
X5.8835Y-1.8898
X5.9501Y-1.5059
X6.0804Y-1.8898
X6.2182Y-1.5059
X6.2772Y-1.8898
X6.415Y-1.5059
X6.5453Y-1.8898
X6.6119Y-1.5059
X6.7421Y-1.8898
X6.8799Y-1.5059
X6.939Y-1.8898
X7.0768Y-1.5059
X7.2736Y-1.5059
M30
