%TF.GenerationSoftware,KiCad,Pcbnew,9.0.3*%
%TF.CreationDate,2025-08-29T16:02:41+02:00*%
%TF.ProjectId,friedman,66726965-646d-4616-9e2e-6b696361645f,rev?*%
%TF.SameCoordinates,Original*%
%TF.FileFunction,Copper,L2,Bot*%
%TF.FilePolarity,Positive*%
%FSLAX46Y46*%
G04 Gerber Fmt 4.6, Leading zero omitted, Abs format (unit mm)*
G04 Created by KiCad (PCBNEW 9.0.3) date 2025-08-29 16:02:41*
%MOMM*%
%LPD*%
G01*
G04 APERTURE LIST*
G04 Aperture macros list*
%AMRoundRect*
0 Rectangle with rounded corners*
0 $1 Rounding radius*
0 $2 $3 $4 $5 $6 $7 $8 $9 X,Y pos of 4 corners*
0 Add a 4 corners polygon primitive as box body*
4,1,4,$2,$3,$4,$5,$6,$7,$8,$9,$2,$3,0*
0 Add four circle primitives for the rounded corners*
1,1,$1+$1,$2,$3*
1,1,$1+$1,$4,$5*
1,1,$1+$1,$6,$7*
1,1,$1+$1,$8,$9*
0 Add four rect primitives between the rounded corners*
20,1,$1+$1,$2,$3,$4,$5,0*
20,1,$1+$1,$4,$5,$6,$7,0*
20,1,$1+$1,$6,$7,$8,$9,0*
20,1,$1+$1,$8,$9,$2,$3,0*%
G04 Aperture macros list end*
%TA.AperFunction,ComponentPad*%
%ADD10R,1.700000X1.700000*%
%TD*%
%TA.AperFunction,ComponentPad*%
%ADD11C,1.700000*%
%TD*%
%TA.AperFunction,ComponentPad*%
%ADD12C,2.340000*%
%TD*%
%TA.AperFunction,ComponentPad*%
%ADD13RoundRect,0.250000X0.950000X0.550000X-0.950000X0.550000X-0.950000X-0.550000X0.950000X-0.550000X0*%
%TD*%
%TA.AperFunction,ComponentPad*%
%ADD14O,2.400000X1.600000*%
%TD*%
%TA.AperFunction,ComponentPad*%
%ADD15RoundRect,0.250000X0.550000X-0.950000X0.550000X0.950000X-0.550000X0.950000X-0.550000X-0.950000X0*%
%TD*%
%TA.AperFunction,ComponentPad*%
%ADD16O,1.600000X2.400000*%
%TD*%
%TA.AperFunction,ComponentPad*%
%ADD17RoundRect,0.249999X0.850001X0.850001X-0.850001X0.850001X-0.850001X-0.850001X0.850001X-0.850001X0*%
%TD*%
%TA.AperFunction,ComponentPad*%
%ADD18C,2.200000*%
%TD*%
%TA.AperFunction,ComponentPad*%
%ADD19C,1.600000*%
%TD*%
%TA.AperFunction,ComponentPad*%
%ADD20RoundRect,0.250000X-0.600000X-0.725000X0.600000X-0.725000X0.600000X0.725000X-0.600000X0.725000X0*%
%TD*%
%TA.AperFunction,ComponentPad*%
%ADD21O,1.700000X1.950000*%
%TD*%
%TA.AperFunction,ComponentPad*%
%ADD22R,1.560000X1.560000*%
%TD*%
%TA.AperFunction,ComponentPad*%
%ADD23C,1.560000*%
%TD*%
%TA.AperFunction,ComponentPad*%
%ADD24RoundRect,0.250000X-0.950000X-0.550000X0.950000X-0.550000X0.950000X0.550000X-0.950000X0.550000X0*%
%TD*%
%TA.AperFunction,ViaPad*%
%ADD25C,0.800000*%
%TD*%
%TA.AperFunction,Conductor*%
%ADD26C,0.250000*%
%TD*%
G04 APERTURE END LIST*
D10*
%TO.P,D1,1,K*%
%TO.N,Net-(D1-K)*%
X175025000Y-58000000D03*
D11*
%TO.P,D1,2,A*%
%TO.N,Net-(D1-A)*%
X172485000Y-58000000D03*
%TD*%
D10*
%TO.P,L4,1,K*%
%TO.N,Net-(L3-A)*%
X161275000Y-88500000D03*
D11*
%TO.P,L4,2,A*%
%TO.N,VDD*%
X158735000Y-88500000D03*
%TD*%
D10*
%TO.P,L3,1,K*%
%TO.N,VDD*%
X158750000Y-84750000D03*
D11*
%TO.P,L3,2,A*%
%TO.N,Net-(L3-A)*%
X161290000Y-84750000D03*
%TD*%
D10*
%TO.P,L2,1,K*%
%TO.N,Net-(L1-A)*%
X183250000Y-60500000D03*
D11*
%TO.P,L2,2,A*%
%TO.N,Net-(L1-K)*%
X185790000Y-60500000D03*
%TD*%
D10*
%TO.P,L1,1,K*%
%TO.N,Net-(L1-K)*%
X185750000Y-56500000D03*
D11*
%TO.P,L1,2,A*%
%TO.N,Net-(L1-A)*%
X183210000Y-56500000D03*
%TD*%
D10*
%TO.P,D4,1,K*%
%TO.N,Net-(D3-A)*%
X172500000Y-61750000D03*
D11*
%TO.P,D4,2,A*%
%TO.N,Net-(D1-K)*%
X175040000Y-61750000D03*
%TD*%
D10*
%TO.P,D3,1,K*%
%TO.N,Net-(D2-A)*%
X163475000Y-61750000D03*
D11*
%TO.P,D3,2,A*%
%TO.N,Net-(D3-A)*%
X166015000Y-61750000D03*
%TD*%
D10*
%TO.P,D2,1,K*%
%TO.N,Net-(D1-A)*%
X166000000Y-58000000D03*
D11*
%TO.P,D2,2,A*%
%TO.N,Net-(D2-A)*%
X163460000Y-58000000D03*
%TD*%
D12*
%TO.P,VOL1,1,1*%
%TO.N,VDD*%
X124250000Y-38305000D03*
%TO.P,VOL1,2,2*%
%TO.N,Net-(R19-Pad1)*%
X129250000Y-38305000D03*
%TO.P,VOL1,3,3*%
%TO.N,Net-(R18-Pad2)*%
X134250000Y-38305000D03*
%TD*%
D13*
%TO.P,U3,1*%
%TO.N,Net-(C12-Pad2)*%
X137560000Y-76347500D03*
D14*
%TO.P,U3,2,-*%
%TO.N,Net-(U3A--)*%
X137560000Y-73807500D03*
%TO.P,U3,3,+*%
%TO.N,Net-(U3A-+)*%
X137560000Y-71267500D03*
%TO.P,U3,4,V-*%
%TO.N,GND*%
X137560000Y-68727500D03*
%TO.P,U3,5,+*%
%TO.N,Net-(U3B-+)*%
X129940000Y-68727500D03*
%TO.P,U3,6,-*%
%TO.N,Net-(U3B--)*%
X129940000Y-71267500D03*
%TO.P,U3,7*%
%TO.N,Net-(C15-Pad2)*%
X129940000Y-73807500D03*
%TO.P,U3,8,V+*%
%TO.N,Net-(D5-K)*%
X129940000Y-76347500D03*
%TD*%
D12*
%TO.P,TREBLE1,1,1*%
%TO.N,Net-(C11-Pad1)*%
X166250000Y-48000000D03*
%TO.P,TREBLE1,2,2*%
%TO.N,Net-(U3A-+)*%
X171250000Y-48000000D03*
%TO.P,TREBLE1,3,3*%
%TO.N,Net-(L3-A)*%
X176250000Y-48000000D03*
%TD*%
D15*
%TO.P,U4,1*%
%TO.N,VREF*%
X174690000Y-104120000D03*
D16*
%TO.P,U4,2,-*%
X177230000Y-104120000D03*
%TO.P,U4,3,+*%
%TO.N,Net-(U4A-+)*%
X179770000Y-104120000D03*
%TO.P,U4,4,V-*%
%TO.N,GND*%
X182310000Y-104120000D03*
%TO.P,U4,5,+*%
%TO.N,Net-(U4B-+)*%
X182310000Y-96500000D03*
%TO.P,U4,6,-*%
%TO.N,VDD*%
X179770000Y-96500000D03*
%TO.P,U4,7*%
X177230000Y-96500000D03*
%TO.P,U4,8,V+*%
%TO.N,Net-(D5-K)*%
X174690000Y-96500000D03*
%TD*%
D15*
%TO.P,U1,1*%
%TO.N,Net-(C3-Pad1)*%
X183460000Y-75120000D03*
D16*
%TO.P,U1,2,-*%
%TO.N,Net-(U1A--)*%
X186000000Y-75120000D03*
%TO.P,U1,3,+*%
%TO.N,Net-(U1A-+)*%
X188540000Y-75120000D03*
%TO.P,U1,4,V-*%
%TO.N,GND*%
X191080000Y-75120000D03*
%TO.P,U1,5,+*%
%TO.N,Net-(U1B-+)*%
X191080000Y-67500000D03*
%TO.P,U1,6,-*%
%TO.N,Net-(U1B--)*%
X188540000Y-67500000D03*
%TO.P,U1,7*%
%TO.N,Net-(L1-A)*%
X186000000Y-67500000D03*
%TO.P,U1,8,V+*%
%TO.N,Net-(D5-K)*%
X183460000Y-67500000D03*
%TD*%
D17*
%TO.P,D5,1,K*%
%TO.N,Net-(D5-K)*%
X166580000Y-100500000D03*
D18*
%TO.P,D5,2,A*%
%TO.N,DC_IN*%
X156420000Y-100500000D03*
%TD*%
D19*
%TO.P,C21,1*%
%TO.N,Net-(C21-Pad1)*%
X134250000Y-104250000D03*
%TO.P,C21,2*%
%TO.N,GND*%
X134250000Y-99250000D03*
%TD*%
D12*
%TO.P,PRES1,1,1*%
%TO.N,Net-(PRES1-Pad1)*%
X157941667Y-38250000D03*
%TO.P,PRES1,2,2*%
X162941667Y-38250000D03*
%TO.P,PRES1,3,3*%
%TO.N,Net-(C9-Pad2)*%
X167941667Y-38250000D03*
%TD*%
D20*
%TO.P,J1,1,Pin_1*%
%TO.N,GND*%
X190750000Y-103000000D03*
D21*
%TO.P,J1,2,Pin_2*%
%TO.N,DC_IN*%
X193250000Y-103000000D03*
%TO.P,J1,3,Pin_3*%
%TO.N,OUT*%
X195750000Y-103000000D03*
%TO.P,J1,4,Pin_4*%
%TO.N,IN*%
X198250000Y-103000000D03*
%TD*%
D22*
%TO.P,TRIM1,1,1*%
%TO.N,Net-(C9-Pad1)*%
X156240000Y-74500000D03*
D23*
%TO.P,TRIM1,2,2*%
%TO.N,Net-(C9-Pad2)*%
X151240000Y-77000000D03*
%TO.P,TRIM1,3,3*%
X156240000Y-79500000D03*
%TD*%
D24*
%TO.P,U2,1*%
%TO.N,Net-(D2-A)*%
X169190000Y-79690000D03*
D14*
%TO.P,U2,2,-*%
%TO.N,Net-(U2A--)*%
X169190000Y-82230000D03*
%TO.P,U2,3,+*%
%TO.N,VDD*%
X169190000Y-84770000D03*
%TO.P,U2,4,V-*%
%TO.N,GND*%
X169190000Y-87310000D03*
%TO.P,U2,5,+*%
%TO.N,VDD*%
X176810000Y-87310000D03*
%TO.P,U2,6,-*%
%TO.N,Net-(U2B--)*%
X176810000Y-84770000D03*
%TO.P,U2,7*%
%TO.N,Net-(C9-Pad2)*%
X176810000Y-82230000D03*
%TO.P,U2,8,V+*%
%TO.N,Net-(D5-K)*%
X176810000Y-79690000D03*
%TD*%
D12*
%TO.P,GAIN1,1,1*%
%TO.N,Net-(L1-K)*%
X141133333Y-38250000D03*
%TO.P,GAIN1,2,2*%
%TO.N,Net-(L1-A)*%
X146133333Y-38250000D03*
%TO.P,GAIN1,3,3*%
X151133333Y-38250000D03*
%TD*%
%TO.P,TIGHT1,1,1*%
%TO.N,VREF*%
X174750000Y-38250000D03*
%TO.P,TIGHT1,2,2*%
X179750000Y-38250000D03*
%TO.P,TIGHT1,3,3*%
%TO.N,Net-(R6-Pad2)*%
X184750000Y-38250000D03*
%TD*%
D19*
%TO.P,C17,1*%
%TO.N,Net-(D5-K)*%
X131000000Y-87750000D03*
%TO.P,C17,2*%
%TO.N,GND*%
X126000000Y-87750000D03*
%TD*%
D12*
%TO.P,MID1,1,1*%
%TO.N,Net-(C15-Pad2)*%
X149441667Y-48000000D03*
%TO.P,MID1,2,2*%
%TO.N,Net-(MID1-Pad2)*%
X154441667Y-48000000D03*
%TO.P,MID1,3,3*%
%TO.N,Net-(MID1-Pad3)*%
X159441667Y-48000000D03*
%TD*%
D19*
%TO.P,C19,1*%
%TO.N,Net-(C19-Pad1)*%
X142000000Y-87750000D03*
%TO.P,C19,2*%
%TO.N,GND*%
X137000000Y-87750000D03*
%TD*%
D12*
%TO.P,BASS1,1,1*%
%TO.N,GND*%
X132633333Y-48000000D03*
%TO.P,BASS1,2,2*%
X137633333Y-48000000D03*
%TO.P,BASS1,3,3*%
%TO.N,Net-(BASS1-Pad3)*%
X142633333Y-48000000D03*
%TD*%
D25*
%TO.N,Net-(BASS1-Pad3)*%
X148750000Y-62250000D03*
%TO.N,Net-(U1A-+)*%
X189300000Y-85350000D03*
%TO.N,Net-(L1-A)*%
X174500000Y-72250000D03*
%TO.N,Net-(C9-Pad2)*%
X166000000Y-77000000D03*
%TO.N,Net-(L3-A)*%
X158260000Y-82250000D03*
X158260000Y-70500000D03*
%TO.N,Net-(C12-Pad2)*%
X145750000Y-64537500D03*
X145750000Y-68037500D03*
%TO.N,Net-(C15-Pad2)*%
X149500000Y-70000000D03*
%TO.N,Net-(D5-K)*%
X172500000Y-92000000D03*
X173500000Y-82000000D03*
%TO.N,OUT*%
X151750000Y-86000000D03*
%TO.N,VDD*%
X136250000Y-60037500D03*
X154500000Y-90000000D03*
%TO.N,Net-(PRES1-Pad1)*%
X164750000Y-66500000D03*
%TO.N,VREF*%
X190250000Y-71310000D03*
%TO.N,Net-(U1A--)*%
X184230000Y-80480000D03*
%TO.N,Net-(U2A--)*%
X168000000Y-71500000D03*
%TO.N,Net-(U2B--)*%
X166000000Y-75000000D03*
X170000000Y-75500000D03*
%TO.N,Net-(R18-Pad2)*%
X142500000Y-58000000D03*
%TO.N,Net-(R19-Pad1)*%
X137000000Y-56250000D03*
%TO.N,Net-(U4A-+)*%
X168500000Y-94750000D03*
%TO.N,Net-(U4B-+)*%
X161250000Y-97475000D03*
%TD*%
D26*
%TO.N,Net-(U1A-+)*%
X188000000Y-83750000D02*
X189300000Y-85050000D01*
%TO.N,Net-(BASS1-Pad3)*%
X145000000Y-58500000D02*
X145000000Y-56733334D01*
X145000000Y-56733334D02*
X142633333Y-54366667D01*
X148750000Y-62250000D02*
X145000000Y-58500000D01*
X142633333Y-54366667D02*
X142633333Y-48000000D01*
%TO.N,IN*%
X198000000Y-102250000D02*
X198000000Y-103000000D01*
%TO.N,Net-(U1A-+)*%
X188540000Y-79710000D02*
X188000000Y-80250000D01*
X189300000Y-85050000D02*
X189300000Y-85350000D01*
X188000000Y-80250000D02*
X188000000Y-83750000D01*
X188540000Y-75120000D02*
X188540000Y-79710000D01*
%TO.N,Net-(L1-A)*%
X153500000Y-38250000D02*
X161250000Y-46000000D01*
X161250000Y-46000000D02*
X162000000Y-46750000D01*
X146133333Y-38250000D02*
X151133333Y-38250000D01*
X171000000Y-69250000D02*
X174000000Y-72250000D01*
X151133333Y-38250000D02*
X153500000Y-38250000D01*
X174000000Y-72250000D02*
X174500000Y-72250000D01*
X166576518Y-69250000D02*
X171000000Y-69250000D01*
X162000000Y-50500000D02*
X162000000Y-64673482D01*
X162000000Y-64673482D02*
X166576518Y-69250000D01*
X162000000Y-46750000D02*
X162000000Y-50500000D01*
%TO.N,Net-(C9-Pad2)*%
X180500000Y-78540000D02*
X180500000Y-46750000D01*
X180500000Y-46750000D02*
X175250000Y-41500000D01*
X175250000Y-41500000D02*
X169750000Y-41500000D01*
X176810000Y-82230000D02*
X180500000Y-78540000D01*
X175730000Y-82230000D02*
X176810000Y-82230000D01*
X169750000Y-41500000D02*
X169000000Y-40750000D01*
X166000000Y-77000000D02*
X170500000Y-77000000D01*
X170500000Y-77000000D02*
X175730000Y-82230000D01*
X169000000Y-39308333D02*
X167941667Y-38250000D01*
X169000000Y-40750000D02*
X169000000Y-39308333D01*
%TO.N,Net-(L3-A)*%
X158260000Y-82250000D02*
X158260000Y-70500000D01*
%TO.N,Net-(C12-Pad2)*%
X145750000Y-68037500D02*
X145750000Y-64537500D01*
%TO.N,Net-(C15-Pad2)*%
X149441667Y-59941667D02*
X149441667Y-48000000D01*
X151750000Y-67750000D02*
X151750000Y-62250000D01*
X149500000Y-70000000D02*
X151750000Y-67750000D01*
X151750000Y-62250000D02*
X149441667Y-59941667D01*
X130520000Y-73807500D02*
X129940000Y-73807500D01*
%TO.N,Net-(D5-K)*%
X173000000Y-82500000D02*
X173500000Y-82000000D01*
X172500000Y-92000000D02*
X172500000Y-89000000D01*
X172500000Y-89000000D02*
X172500000Y-83000000D01*
X172500000Y-83000000D02*
X173000000Y-82500000D01*
%TO.N,OUT*%
X195750000Y-98500000D02*
X195750000Y-103000000D01*
X152250000Y-86500000D02*
X152250000Y-90500000D01*
X191250000Y-94000000D02*
X195750000Y-98500000D01*
X155750000Y-94000000D02*
X191250000Y-94000000D01*
X152250000Y-90500000D02*
X155750000Y-94000000D01*
X151750000Y-86000000D02*
X152250000Y-86500000D01*
%TO.N,VDD*%
X154500000Y-78287500D02*
X136250000Y-60037500D01*
X154500000Y-90000000D02*
X154500000Y-78287500D01*
X136250000Y-60037500D02*
X134787500Y-60037500D01*
X124250000Y-49500000D02*
X124250000Y-38305000D01*
X134787500Y-60037500D02*
X124250000Y-49500000D01*
%TO.N,Net-(PRES1-Pad1)*%
X162941667Y-48941667D02*
X162941667Y-38250000D01*
X169250000Y-62000000D02*
X169250000Y-55750000D01*
X157941667Y-38250000D02*
X162941667Y-38250000D01*
X169250000Y-55250000D02*
X162941667Y-48941667D01*
X164750000Y-66500000D02*
X169250000Y-62000000D01*
X169250000Y-55750000D02*
X169250000Y-55250000D01*
%TO.N,VREF*%
X193270000Y-71310000D02*
X195270000Y-69310000D01*
X195270000Y-53770000D02*
X179750000Y-38250000D01*
X174750000Y-38250000D02*
X179750000Y-38250000D01*
X190250000Y-71310000D02*
X193270000Y-71310000D01*
X195270000Y-69310000D02*
X195270000Y-53770000D01*
%TO.N,Net-(U1A--)*%
X186000000Y-78710000D02*
X184230000Y-80480000D01*
X186000000Y-75120000D02*
X186000000Y-78710000D01*
%TO.N,Net-(U2A--)*%
X165000000Y-74500000D02*
X165000000Y-78040000D01*
X168000000Y-71500000D02*
X165000000Y-74500000D01*
X165000000Y-78040000D02*
X169190000Y-82230000D01*
%TO.N,Net-(U2B--)*%
X166000000Y-75000000D02*
X169500000Y-75000000D01*
X169500000Y-75000000D02*
X170000000Y-75500000D01*
%TO.N,Net-(R18-Pad2)*%
X135250000Y-50750000D02*
X135250000Y-42000000D01*
X142500000Y-58000000D02*
X135250000Y-50750000D01*
X135250000Y-42000000D02*
X134250000Y-41000000D01*
X134250000Y-41000000D02*
X134250000Y-38305000D01*
%TO.N,Net-(R19-Pad1)*%
X137000000Y-56250000D02*
X129250000Y-48500000D01*
X129250000Y-48500000D02*
X129250000Y-38305000D01*
%TO.N,Net-(U4A-+)*%
X175500000Y-101000000D02*
X169250000Y-94750000D01*
X179770000Y-103270000D02*
X177500000Y-101000000D01*
X179770000Y-104120000D02*
X179770000Y-103270000D01*
X169250000Y-94750000D02*
X168500000Y-94750000D01*
X177500000Y-101000000D02*
X175500000Y-101000000D01*
%TO.N,Net-(U4B-+)*%
X169500000Y-105000000D02*
X171000000Y-106500000D01*
X171000000Y-106500000D02*
X186000000Y-106500000D01*
X167000000Y-97500000D02*
X169500000Y-100000000D01*
X161250000Y-97475000D02*
X161275000Y-97500000D01*
X186000000Y-106500000D02*
X187000000Y-105500000D01*
X184500000Y-96500000D02*
X182310000Y-96500000D01*
X161275000Y-97500000D02*
X167000000Y-97500000D01*
X187000000Y-105500000D02*
X187000000Y-99000000D01*
X187000000Y-99000000D02*
X184500000Y-96500000D01*
X169500000Y-100000000D02*
X169500000Y-105000000D01*
%TD*%
%TA.AperFunction,Conductor*%
%TO.N,GND*%
G36*
X174303673Y-94645185D02*
G01*
X174349428Y-94697989D01*
X174359372Y-94767147D01*
X174330347Y-94830703D01*
X174274953Y-94867431D01*
X174190776Y-94894781D01*
X174008386Y-94987715D01*
X173842786Y-95108028D01*
X173698028Y-95252786D01*
X173577715Y-95418386D01*
X173484781Y-95600776D01*
X173421522Y-95795465D01*
X173389500Y-95997648D01*
X173389500Y-97002351D01*
X173421522Y-97204534D01*
X173484781Y-97399223D01*
X173577715Y-97581613D01*
X173698028Y-97747213D01*
X173842786Y-97891971D01*
X173997749Y-98004556D01*
X174008390Y-98012287D01*
X174124607Y-98071503D01*
X174190776Y-98105218D01*
X174190778Y-98105218D01*
X174190781Y-98105220D01*
X174261919Y-98128334D01*
X174385465Y-98168477D01*
X174486557Y-98184488D01*
X174587648Y-98200500D01*
X174587649Y-98200500D01*
X174792351Y-98200500D01*
X174792352Y-98200500D01*
X174994534Y-98168477D01*
X175189219Y-98105220D01*
X175371610Y-98012287D01*
X175524032Y-97901547D01*
X175537213Y-97891971D01*
X175537215Y-97891968D01*
X175537219Y-97891966D01*
X175681966Y-97747219D01*
X175681968Y-97747215D01*
X175681971Y-97747213D01*
X175802284Y-97581614D01*
X175802285Y-97581613D01*
X175802287Y-97581610D01*
X175849516Y-97488917D01*
X175897489Y-97438123D01*
X175965310Y-97421328D01*
X176031445Y-97443865D01*
X176070485Y-97488919D01*
X176117715Y-97581614D01*
X176238028Y-97747213D01*
X176382786Y-97891971D01*
X176537749Y-98004556D01*
X176548390Y-98012287D01*
X176664607Y-98071503D01*
X176730776Y-98105218D01*
X176730778Y-98105218D01*
X176730781Y-98105220D01*
X176801919Y-98128334D01*
X176925465Y-98168477D01*
X177026557Y-98184488D01*
X177127648Y-98200500D01*
X177127649Y-98200500D01*
X177332351Y-98200500D01*
X177332352Y-98200500D01*
X177534534Y-98168477D01*
X177729219Y-98105220D01*
X177911610Y-98012287D01*
X178064032Y-97901547D01*
X178077213Y-97891971D01*
X178077215Y-97891968D01*
X178077219Y-97891966D01*
X178221966Y-97747219D01*
X178221968Y-97747215D01*
X178221971Y-97747213D01*
X178342284Y-97581614D01*
X178342285Y-97581613D01*
X178342287Y-97581610D01*
X178389516Y-97488917D01*
X178437489Y-97438123D01*
X178505310Y-97421328D01*
X178571445Y-97443865D01*
X178610485Y-97488919D01*
X178657715Y-97581614D01*
X178778028Y-97747213D01*
X178922786Y-97891971D01*
X179077749Y-98004556D01*
X179088390Y-98012287D01*
X179204607Y-98071503D01*
X179270776Y-98105218D01*
X179270778Y-98105218D01*
X179270781Y-98105220D01*
X179341919Y-98128334D01*
X179465465Y-98168477D01*
X179566557Y-98184488D01*
X179667648Y-98200500D01*
X179667649Y-98200500D01*
X179872351Y-98200500D01*
X179872352Y-98200500D01*
X180074534Y-98168477D01*
X180269219Y-98105220D01*
X180451610Y-98012287D01*
X180604032Y-97901547D01*
X180617213Y-97891971D01*
X180617215Y-97891968D01*
X180617219Y-97891966D01*
X180761966Y-97747219D01*
X180761968Y-97747215D01*
X180761971Y-97747213D01*
X180882284Y-97581614D01*
X180882285Y-97581613D01*
X180882287Y-97581610D01*
X180929516Y-97488917D01*
X180977489Y-97438123D01*
X181045310Y-97421328D01*
X181111445Y-97443865D01*
X181150485Y-97488919D01*
X181197715Y-97581614D01*
X181318028Y-97747213D01*
X181462786Y-97891971D01*
X181617749Y-98004556D01*
X181628390Y-98012287D01*
X181744607Y-98071503D01*
X181810776Y-98105218D01*
X181810778Y-98105218D01*
X181810781Y-98105220D01*
X181881919Y-98128334D01*
X182005465Y-98168477D01*
X182106557Y-98184488D01*
X182207648Y-98200500D01*
X182207649Y-98200500D01*
X182412351Y-98200500D01*
X182412352Y-98200500D01*
X182614534Y-98168477D01*
X182809219Y-98105220D01*
X182991610Y-98012287D01*
X183144032Y-97901547D01*
X183157213Y-97891971D01*
X183157215Y-97891968D01*
X183157219Y-97891966D01*
X183301966Y-97747219D01*
X183301968Y-97747215D01*
X183301971Y-97747213D01*
X183354732Y-97674590D01*
X183422287Y-97581610D01*
X183515220Y-97399219D01*
X183544894Y-97307888D01*
X183576318Y-97211181D01*
X183615756Y-97153506D01*
X183680115Y-97126308D01*
X183694249Y-97125500D01*
X184189548Y-97125500D01*
X184256587Y-97145185D01*
X184277229Y-97161819D01*
X186338181Y-99222771D01*
X186371666Y-99284094D01*
X186374500Y-99310452D01*
X186374500Y-105189547D01*
X186354815Y-105256586D01*
X186338181Y-105277228D01*
X185777229Y-105838181D01*
X185715906Y-105871666D01*
X185689548Y-105874500D01*
X183031639Y-105874500D01*
X182964600Y-105854815D01*
X182918845Y-105802011D01*
X182908901Y-105732853D01*
X182937926Y-105669297D01*
X182975343Y-105640016D01*
X182991347Y-105631861D01*
X183156894Y-105511582D01*
X183156895Y-105511582D01*
X183301582Y-105366895D01*
X183301582Y-105366894D01*
X183421859Y-105201349D01*
X183514755Y-105019031D01*
X183577990Y-104824417D01*
X183610000Y-104622317D01*
X183610000Y-104370000D01*
X182625686Y-104370000D01*
X182630080Y-104365606D01*
X182682741Y-104274394D01*
X182710000Y-104172661D01*
X182710000Y-104067339D01*
X182682741Y-103965606D01*
X182630080Y-103874394D01*
X182625686Y-103870000D01*
X183610000Y-103870000D01*
X183610000Y-103617682D01*
X183577990Y-103415582D01*
X183514755Y-103220968D01*
X183421859Y-103038650D01*
X183301582Y-102873105D01*
X183301582Y-102873104D01*
X183156895Y-102728417D01*
X182991349Y-102608140D01*
X182809029Y-102515244D01*
X182614413Y-102452009D01*
X182560000Y-102443390D01*
X182560000Y-103804314D01*
X182555606Y-103799920D01*
X182464394Y-103747259D01*
X182362661Y-103720000D01*
X182257339Y-103720000D01*
X182155606Y-103747259D01*
X182064394Y-103799920D01*
X182060000Y-103804314D01*
X182060000Y-102443390D01*
X182005586Y-102452009D01*
X181810970Y-102515244D01*
X181628650Y-102608140D01*
X181463105Y-102728417D01*
X181463104Y-102728417D01*
X181318417Y-102873104D01*
X181318417Y-102873105D01*
X181198140Y-103038650D01*
X181150765Y-103131629D01*
X181102790Y-103182425D01*
X181034969Y-103199220D01*
X180968834Y-103176682D01*
X180929795Y-103131629D01*
X180918990Y-103110424D01*
X180882287Y-103038390D01*
X180840971Y-102981523D01*
X180761971Y-102872786D01*
X180617213Y-102728028D01*
X180451613Y-102607715D01*
X180451612Y-102607714D01*
X180451610Y-102607713D01*
X180389162Y-102575894D01*
X180269223Y-102514781D01*
X180074534Y-102451522D01*
X179899995Y-102423878D01*
X179872352Y-102419500D01*
X179872351Y-102419500D01*
X179855452Y-102419500D01*
X179788413Y-102399815D01*
X179767771Y-102383181D01*
X177993150Y-100608560D01*
X177985860Y-100601270D01*
X177985858Y-100601267D01*
X177898733Y-100514142D01*
X177847509Y-100479915D01*
X177796286Y-100445688D01*
X177796283Y-100445686D01*
X177796280Y-100445685D01*
X177722603Y-100415168D01*
X177722601Y-100415167D01*
X177715792Y-100412347D01*
X177682452Y-100398537D01*
X177622029Y-100386518D01*
X177617306Y-100385578D01*
X177617304Y-100385578D01*
X177561610Y-100374500D01*
X177561607Y-100374500D01*
X177561606Y-100374500D01*
X175810452Y-100374500D01*
X175743413Y-100354815D01*
X175722771Y-100338181D01*
X170221771Y-94837181D01*
X170188286Y-94775858D01*
X170193270Y-94706166D01*
X170235142Y-94650233D01*
X170300606Y-94625816D01*
X170309452Y-94625500D01*
X174236634Y-94625500D01*
X174303673Y-94645185D01*
G37*
%TD.AperFunction*%
%TA.AperFunction,Conductor*%
G36*
X208692539Y-34770185D02*
G01*
X208738294Y-34822989D01*
X208749500Y-34874500D01*
X208749500Y-109625500D01*
X208729815Y-109692539D01*
X208677011Y-109738294D01*
X208625500Y-109749500D01*
X111374500Y-109749500D01*
X111307461Y-109729815D01*
X111261706Y-109677011D01*
X111250500Y-109625500D01*
X111250500Y-106388549D01*
X113049500Y-106388549D01*
X113049500Y-106611450D01*
X113049501Y-106611466D01*
X113078594Y-106832452D01*
X113078595Y-106832457D01*
X113078596Y-106832463D01*
X113136290Y-107047780D01*
X113136293Y-107047790D01*
X113163892Y-107114419D01*
X113221595Y-107253726D01*
X113333052Y-107446774D01*
X113333057Y-107446780D01*
X113333058Y-107446782D01*
X113468751Y-107623622D01*
X113468757Y-107623629D01*
X113626370Y-107781242D01*
X113626376Y-107781247D01*
X113803226Y-107916948D01*
X113996274Y-108028405D01*
X114202219Y-108113710D01*
X114417537Y-108171404D01*
X114638543Y-108200500D01*
X114638550Y-108200500D01*
X114861450Y-108200500D01*
X114861457Y-108200500D01*
X115082463Y-108171404D01*
X115297781Y-108113710D01*
X115503726Y-108028405D01*
X115696774Y-107916948D01*
X115873624Y-107781247D01*
X116031247Y-107623624D01*
X116166948Y-107446774D01*
X116278405Y-107253726D01*
X116363710Y-107047781D01*
X116421404Y-106832463D01*
X116450500Y-106611457D01*
X116450500Y-106388543D01*
X116421404Y-106167537D01*
X116363710Y-105952219D01*
X116278405Y-105746274D01*
X116166948Y-105553226D01*
X116078834Y-105438393D01*
X116031248Y-105376377D01*
X116031242Y-105376370D01*
X115873629Y-105218757D01*
X115873622Y-105218751D01*
X115696782Y-105083058D01*
X115696780Y-105083057D01*
X115696774Y-105083052D01*
X115503726Y-104971595D01*
X115503722Y-104971593D01*
X115297790Y-104886293D01*
X115297783Y-104886291D01*
X115297781Y-104886290D01*
X115082463Y-104828596D01*
X115082457Y-104828595D01*
X115082452Y-104828594D01*
X114861466Y-104799501D01*
X114861463Y-104799500D01*
X114861457Y-104799500D01*
X114638543Y-104799500D01*
X114638537Y-104799500D01*
X114638533Y-104799501D01*
X114417547Y-104828594D01*
X114417540Y-104828595D01*
X114417537Y-104828596D01*
X114202219Y-104886290D01*
X114202209Y-104886293D01*
X113996277Y-104971593D01*
X113996273Y-104971595D01*
X113803226Y-105083052D01*
X113803217Y-105083058D01*
X113626377Y-105218751D01*
X113626370Y-105218757D01*
X113468757Y-105376370D01*
X113468751Y-105376377D01*
X113333058Y-105553217D01*
X113333052Y-105553226D01*
X113221595Y-105746273D01*
X113221593Y-105746277D01*
X113136293Y-105952209D01*
X113136290Y-105952219D01*
X113078597Y-106167534D01*
X113078594Y-106167547D01*
X113049501Y-106388533D01*
X113049500Y-106388549D01*
X111250500Y-106388549D01*
X111250500Y-104147648D01*
X132949500Y-104147648D01*
X132949500Y-104352351D01*
X132981522Y-104554534D01*
X133044781Y-104749223D01*
X133137715Y-104931613D01*
X133258028Y-105097213D01*
X133402786Y-105241971D01*
X133548050Y-105347509D01*
X133568390Y-105362287D01*
X133684607Y-105421503D01*
X133750776Y-105455218D01*
X133750778Y-105455218D01*
X133750781Y-105455220D01*
X133845075Y-105485858D01*
X133945465Y-105518477D01*
X134046557Y-105534488D01*
X134147648Y-105550500D01*
X134147649Y-105550500D01*
X134352351Y-105550500D01*
X134352352Y-105550500D01*
X134554534Y-105518477D01*
X134749219Y-105455220D01*
X134931610Y-105362287D01*
X135053750Y-105273548D01*
X135097213Y-105241971D01*
X135097215Y-105241968D01*
X135097219Y-105241966D01*
X135241966Y-105097219D01*
X135241968Y-105097215D01*
X135241971Y-105097213D01*
X135333236Y-104971595D01*
X135362287Y-104931610D01*
X135455220Y-104749219D01*
X135518477Y-104554534D01*
X135550500Y-104352352D01*
X135550500Y-104147648D01*
X135528447Y-104008412D01*
X135518477Y-103945465D01*
X135468470Y-103791561D01*
X135455220Y-103750781D01*
X135455218Y-103750778D01*
X135455218Y-103750776D01*
X135402069Y-103646467D01*
X135362287Y-103568390D01*
X135294436Y-103475000D01*
X135241971Y-103402786D01*
X135097213Y-103258028D01*
X134931613Y-103137715D01*
X134931612Y-103137714D01*
X134931610Y-103137713D01*
X134874653Y-103108691D01*
X134749223Y-103044781D01*
X134554534Y-102981522D01*
X134379995Y-102953878D01*
X134352352Y-102949500D01*
X134147648Y-102949500D01*
X134123329Y-102953351D01*
X133945465Y-102981522D01*
X133750776Y-103044781D01*
X133568386Y-103137715D01*
X133402786Y-103258028D01*
X133258028Y-103402786D01*
X133137715Y-103568386D01*
X133044781Y-103750776D01*
X132981522Y-103945465D01*
X132949500Y-104147648D01*
X111250500Y-104147648D01*
X111250500Y-99147682D01*
X132950000Y-99147682D01*
X132950000Y-99352317D01*
X132982009Y-99554417D01*
X133045244Y-99749031D01*
X133138141Y-99931350D01*
X133138147Y-99931359D01*
X133170523Y-99975921D01*
X133170524Y-99975922D01*
X133850000Y-99296446D01*
X133850000Y-99302661D01*
X133877259Y-99404394D01*
X133929920Y-99495606D01*
X134004394Y-99570080D01*
X134095606Y-99622741D01*
X134197339Y-99650000D01*
X134203553Y-99650000D01*
X133524076Y-100329474D01*
X133568650Y-100361859D01*
X133750968Y-100454755D01*
X133945582Y-100517990D01*
X134147683Y-100550000D01*
X134352317Y-100550000D01*
X134554417Y-100517990D01*
X134749031Y-100454755D01*
X134907446Y-100374038D01*
X154819500Y-100374038D01*
X154819500Y-100625961D01*
X154858910Y-100874785D01*
X154936760Y-101114383D01*
X155051132Y-101338848D01*
X155199201Y-101542649D01*
X155199205Y-101542654D01*
X155377345Y-101720794D01*
X155377350Y-101720798D01*
X155548148Y-101844889D01*
X155581155Y-101868870D01*
X155724184Y-101941747D01*
X155805616Y-101983239D01*
X155805618Y-101983239D01*
X155805621Y-101983241D01*
X156045215Y-102061090D01*
X156294038Y-102100500D01*
X156294039Y-102100500D01*
X156545961Y-102100500D01*
X156545962Y-102100500D01*
X156794785Y-102061090D01*
X157034379Y-101983241D01*
X157258845Y-101868870D01*
X157462656Y-101720793D01*
X157640793Y-101542656D01*
X157788870Y-101338845D01*
X157903241Y-101114379D01*
X157981090Y-100874785D01*
X158020500Y-100625962D01*
X158020500Y-100374038D01*
X157981090Y-100125215D01*
X157903241Y-99885621D01*
X157903239Y-99885618D01*
X157903239Y-99885616D01*
X157844706Y-99770739D01*
X157788870Y-99661155D01*
X157744425Y-99599982D01*
X157640798Y-99457350D01*
X157640794Y-99457345D01*
X157462654Y-99279205D01*
X157462649Y-99279201D01*
X157258848Y-99131132D01*
X157258847Y-99131131D01*
X157258845Y-99131130D01*
X157188747Y-99095413D01*
X157034383Y-99016760D01*
X156794785Y-98938910D01*
X156738025Y-98929920D01*
X156545962Y-98899500D01*
X156294038Y-98899500D01*
X156169626Y-98919205D01*
X156045214Y-98938910D01*
X155805616Y-99016760D01*
X155581151Y-99131132D01*
X155377350Y-99279201D01*
X155377345Y-99279205D01*
X155199205Y-99457345D01*
X155199201Y-99457350D01*
X155051132Y-99661151D01*
X154936760Y-99885616D01*
X154858910Y-100125214D01*
X154819500Y-100374038D01*
X134907446Y-100374038D01*
X134931349Y-100361859D01*
X134975922Y-100329474D01*
X134296447Y-99650000D01*
X134302661Y-99650000D01*
X134404394Y-99622741D01*
X134495606Y-99570080D01*
X134570080Y-99495606D01*
X134622741Y-99404394D01*
X134650000Y-99302661D01*
X134650000Y-99296447D01*
X135329474Y-99975921D01*
X135361859Y-99931349D01*
X135454755Y-99749031D01*
X135517990Y-99554417D01*
X135550000Y-99352317D01*
X135550000Y-99147682D01*
X135517990Y-98945582D01*
X135454755Y-98750968D01*
X135361859Y-98568650D01*
X135329474Y-98524077D01*
X135329474Y-98524076D01*
X134650000Y-99203551D01*
X134650000Y-99197339D01*
X134622741Y-99095606D01*
X134570080Y-99004394D01*
X134495606Y-98929920D01*
X134404394Y-98877259D01*
X134302661Y-98850000D01*
X134296446Y-98850000D01*
X134975922Y-98170524D01*
X134975921Y-98170523D01*
X134931359Y-98138147D01*
X134931350Y-98138141D01*
X134749031Y-98045244D01*
X134554417Y-97982009D01*
X134352317Y-97950000D01*
X134147683Y-97950000D01*
X133945582Y-97982009D01*
X133750968Y-98045244D01*
X133568644Y-98138143D01*
X133524077Y-98170523D01*
X133524077Y-98170524D01*
X134203554Y-98850000D01*
X134197339Y-98850000D01*
X134095606Y-98877259D01*
X134004394Y-98929920D01*
X133929920Y-99004394D01*
X133877259Y-99095606D01*
X133850000Y-99197339D01*
X133850000Y-99203553D01*
X133170524Y-98524077D01*
X133170523Y-98524077D01*
X133138143Y-98568644D01*
X133045244Y-98750968D01*
X132982009Y-98945582D01*
X132950000Y-99147682D01*
X111250500Y-99147682D01*
X111250500Y-87647682D01*
X124700000Y-87647682D01*
X124700000Y-87852317D01*
X124732009Y-88054417D01*
X124795244Y-88249031D01*
X124888141Y-88431350D01*
X124888147Y-88431359D01*
X124920523Y-88475921D01*
X124920524Y-88475922D01*
X125600000Y-87796446D01*
X125600000Y-87802661D01*
X125627259Y-87904394D01*
X125679920Y-87995606D01*
X125754394Y-88070080D01*
X125845606Y-88122741D01*
X125947339Y-88150000D01*
X125953553Y-88150000D01*
X125274076Y-88829474D01*
X125318650Y-88861859D01*
X125500968Y-88954755D01*
X125695582Y-89017990D01*
X125897683Y-89050000D01*
X126102317Y-89050000D01*
X126304417Y-89017990D01*
X126499031Y-88954755D01*
X126681349Y-88861859D01*
X126725921Y-88829474D01*
X126046447Y-88150000D01*
X126052661Y-88150000D01*
X126154394Y-88122741D01*
X126245606Y-88070080D01*
X126320080Y-87995606D01*
X126372741Y-87904394D01*
X126400000Y-87802661D01*
X126400000Y-87796448D01*
X127079474Y-88475922D01*
X127079474Y-88475921D01*
X127111859Y-88431349D01*
X127204755Y-88249031D01*
X127267990Y-88054417D01*
X127300000Y-87852317D01*
X127300000Y-87647682D01*
X127299995Y-87647648D01*
X129699500Y-87647648D01*
X129699500Y-87852351D01*
X129731522Y-88054534D01*
X129794781Y-88249223D01*
X129858691Y-88374653D01*
X129887585Y-88431359D01*
X129887715Y-88431613D01*
X130008028Y-88597213D01*
X130152786Y-88741971D01*
X130255015Y-88816243D01*
X130318390Y-88862287D01*
X130434607Y-88921503D01*
X130500776Y-88955218D01*
X130500778Y-88955218D01*
X130500781Y-88955220D01*
X130605137Y-88989127D01*
X130695465Y-89018477D01*
X130796557Y-89034488D01*
X130897648Y-89050500D01*
X130897649Y-89050500D01*
X131102351Y-89050500D01*
X131102352Y-89050500D01*
X131304534Y-89018477D01*
X131499219Y-88955220D01*
X131681610Y-88862287D01*
X131774590Y-88794732D01*
X131847213Y-88741971D01*
X131847215Y-88741968D01*
X131847219Y-88741966D01*
X131991966Y-88597219D01*
X131991968Y-88597215D01*
X131991971Y-88597213D01*
X132051879Y-88514755D01*
X132112287Y-88431610D01*
X132205220Y-88249219D01*
X132268477Y-88054534D01*
X132300500Y-87852352D01*
X132300500Y-87647682D01*
X135700000Y-87647682D01*
X135700000Y-87852317D01*
X135732009Y-88054417D01*
X135795244Y-88249031D01*
X135888141Y-88431350D01*
X135888147Y-88431359D01*
X135920523Y-88475921D01*
X135920524Y-88475922D01*
X136600000Y-87796446D01*
X136600000Y-87802661D01*
X136627259Y-87904394D01*
X136679920Y-87995606D01*
X136754394Y-88070080D01*
X136845606Y-88122741D01*
X136947339Y-88150000D01*
X136953553Y-88150000D01*
X136274076Y-88829474D01*
X136318650Y-88861859D01*
X136500968Y-88954755D01*
X136695582Y-89017990D01*
X136897683Y-89050000D01*
X137102317Y-89050000D01*
X137304417Y-89017990D01*
X137499031Y-88954755D01*
X137681349Y-88861859D01*
X137725921Y-88829474D01*
X137046447Y-88150000D01*
X137052661Y-88150000D01*
X137154394Y-88122741D01*
X137245606Y-88070080D01*
X137320080Y-87995606D01*
X137372741Y-87904394D01*
X137400000Y-87802661D01*
X137400000Y-87796447D01*
X138079474Y-88475921D01*
X138111859Y-88431349D01*
X138204755Y-88249031D01*
X138267990Y-88054417D01*
X138300000Y-87852317D01*
X138300000Y-87647682D01*
X138299995Y-87647648D01*
X140699500Y-87647648D01*
X140699500Y-87852351D01*
X140731522Y-88054534D01*
X140794781Y-88249223D01*
X140858691Y-88374653D01*
X140887585Y-88431359D01*
X140887715Y-88431613D01*
X141008028Y-88597213D01*
X141152786Y-88741971D01*
X141255015Y-88816243D01*
X141318390Y-88862287D01*
X141434607Y-88921503D01*
X141500776Y-88955218D01*
X141500778Y-88955218D01*
X141500781Y-88955220D01*
X141605137Y-88989127D01*
X141695465Y-89018477D01*
X141796557Y-89034488D01*
X141897648Y-89050500D01*
X141897649Y-89050500D01*
X142102351Y-89050500D01*
X142102352Y-89050500D01*
X142304534Y-89018477D01*
X142499219Y-88955220D01*
X142681610Y-88862287D01*
X142774590Y-88794732D01*
X142847213Y-88741971D01*
X142847215Y-88741968D01*
X142847219Y-88741966D01*
X142991966Y-88597219D01*
X142991968Y-88597215D01*
X142991971Y-88597213D01*
X143051879Y-88514755D01*
X143112287Y-88431610D01*
X143205220Y-88249219D01*
X143268477Y-88054534D01*
X143300500Y-87852352D01*
X143300500Y-87647648D01*
X143283849Y-87542517D01*
X143268477Y-87445465D01*
X143235817Y-87344949D01*
X143205220Y-87250781D01*
X143205218Y-87250778D01*
X143205218Y-87250776D01*
X143156880Y-87155909D01*
X143112287Y-87068390D01*
X143080092Y-87024077D01*
X142991971Y-86902786D01*
X142847213Y-86758028D01*
X142681613Y-86637715D01*
X142681612Y-86637714D01*
X142681610Y-86637713D01*
X142624653Y-86608691D01*
X142499223Y-86544781D01*
X142304534Y-86481522D01*
X142129995Y-86453878D01*
X142102352Y-86449500D01*
X141897648Y-86449500D01*
X141873329Y-86453351D01*
X141695465Y-86481522D01*
X141500776Y-86544781D01*
X141318386Y-86637715D01*
X141152786Y-86758028D01*
X141008028Y-86902786D01*
X140887715Y-87068386D01*
X140794781Y-87250776D01*
X140731522Y-87445465D01*
X140699500Y-87647648D01*
X138299995Y-87647648D01*
X138267990Y-87445582D01*
X138204755Y-87250968D01*
X138111859Y-87068650D01*
X138079474Y-87024077D01*
X138079474Y-87024076D01*
X137400000Y-87703551D01*
X137400000Y-87697339D01*
X137372741Y-87595606D01*
X137320080Y-87504394D01*
X137245606Y-87429920D01*
X137154394Y-87377259D01*
X137052661Y-87350000D01*
X137046446Y-87350000D01*
X137725922Y-86670524D01*
X137725921Y-86670523D01*
X137681359Y-86638147D01*
X137681350Y-86638141D01*
X137499031Y-86545244D01*
X137304417Y-86482009D01*
X137102317Y-86450000D01*
X136897683Y-86450000D01*
X136695582Y-86482009D01*
X136500968Y-86545244D01*
X136318644Y-86638143D01*
X136274077Y-86670523D01*
X136274077Y-86670524D01*
X136953554Y-87350000D01*
X136947339Y-87350000D01*
X136845606Y-87377259D01*
X136754394Y-87429920D01*
X136679920Y-87504394D01*
X136627259Y-87595606D01*
X136600000Y-87697339D01*
X136600000Y-87703553D01*
X135920524Y-87024077D01*
X135920523Y-87024077D01*
X135888143Y-87068644D01*
X135795244Y-87250968D01*
X135732009Y-87445582D01*
X135700000Y-87647682D01*
X132300500Y-87647682D01*
X132300500Y-87647648D01*
X132283849Y-87542517D01*
X132268477Y-87445465D01*
X132235817Y-87344949D01*
X132205220Y-87250781D01*
X132205218Y-87250778D01*
X132205218Y-87250776D01*
X132156880Y-87155909D01*
X132112287Y-87068390D01*
X132080092Y-87024077D01*
X131991971Y-86902786D01*
X131847213Y-86758028D01*
X131681613Y-86637715D01*
X131681612Y-86637714D01*
X131681610Y-86637713D01*
X131624653Y-86608691D01*
X131499223Y-86544781D01*
X131304534Y-86481522D01*
X131129995Y-86453878D01*
X131102352Y-86449500D01*
X130897648Y-86449500D01*
X130873329Y-86453351D01*
X130695465Y-86481522D01*
X130500776Y-86544781D01*
X130318386Y-86637715D01*
X130152786Y-86758028D01*
X130008028Y-86902786D01*
X129887715Y-87068386D01*
X129794781Y-87250776D01*
X129731522Y-87445465D01*
X129699500Y-87647648D01*
X127299995Y-87647648D01*
X127267990Y-87445582D01*
X127204755Y-87250968D01*
X127111859Y-87068650D01*
X127079474Y-87024077D01*
X127079474Y-87024076D01*
X126400000Y-87703551D01*
X126400000Y-87697339D01*
X126372741Y-87595606D01*
X126320080Y-87504394D01*
X126245606Y-87429920D01*
X126154394Y-87377259D01*
X126052661Y-87350000D01*
X126046446Y-87350000D01*
X126725922Y-86670524D01*
X126725921Y-86670523D01*
X126681359Y-86638147D01*
X126681350Y-86638141D01*
X126499031Y-86545244D01*
X126304417Y-86482009D01*
X126102317Y-86450000D01*
X125897683Y-86450000D01*
X125695582Y-86482009D01*
X125500968Y-86545244D01*
X125318644Y-86638143D01*
X125274077Y-86670523D01*
X125274077Y-86670524D01*
X125953554Y-87350000D01*
X125947339Y-87350000D01*
X125845606Y-87377259D01*
X125754394Y-87429920D01*
X125679920Y-87504394D01*
X125627259Y-87595606D01*
X125600000Y-87697339D01*
X125600000Y-87703553D01*
X124920524Y-87024077D01*
X124920523Y-87024077D01*
X124888143Y-87068644D01*
X124795244Y-87250968D01*
X124732009Y-87445582D01*
X124700000Y-87647682D01*
X111250500Y-87647682D01*
X111250500Y-85911304D01*
X150849500Y-85911304D01*
X150849500Y-86088695D01*
X150884103Y-86262658D01*
X150884106Y-86262667D01*
X150951983Y-86426540D01*
X150951990Y-86426553D01*
X151050535Y-86574034D01*
X151050538Y-86574038D01*
X151175961Y-86699461D01*
X151175965Y-86699464D01*
X151323446Y-86798009D01*
X151323459Y-86798016D01*
X151354734Y-86810970D01*
X151487334Y-86865894D01*
X151524691Y-86873324D01*
X151586602Y-86905709D01*
X151621176Y-86966425D01*
X151624500Y-86994942D01*
X151624500Y-90561611D01*
X151648535Y-90682444D01*
X151648540Y-90682461D01*
X151695685Y-90796280D01*
X151695687Y-90796283D01*
X151695688Y-90796286D01*
X151729915Y-90847509D01*
X151764142Y-90898733D01*
X151851267Y-90985858D01*
X151851269Y-90985859D01*
X151861232Y-90995822D01*
X155351262Y-94485854D01*
X155351265Y-94485857D01*
X155419411Y-94531390D01*
X155453714Y-94554311D01*
X155567548Y-94601463D01*
X155688388Y-94625499D01*
X155688392Y-94625500D01*
X155688393Y-94625500D01*
X155688394Y-94625500D01*
X167475500Y-94625500D01*
X167542539Y-94645185D01*
X167588294Y-94697989D01*
X167599500Y-94749500D01*
X167599500Y-94838695D01*
X167634103Y-95012658D01*
X167634106Y-95012667D01*
X167701983Y-95176540D01*
X167701990Y-95176553D01*
X167800535Y-95324034D01*
X167800538Y-95324038D01*
X167925961Y-95449461D01*
X167925965Y-95449464D01*
X168073446Y-95548009D01*
X168073459Y-95548016D01*
X168196363Y-95598923D01*
X168237334Y-95615894D01*
X168237336Y-95615894D01*
X168237341Y-95615896D01*
X168411304Y-95650499D01*
X168411307Y-95650500D01*
X168411309Y-95650500D01*
X168588693Y-95650500D01*
X168588694Y-95650499D01*
X168646682Y-95638964D01*
X168762658Y-95615896D01*
X168762661Y-95615894D01*
X168762666Y-95615894D01*
X168926547Y-95548013D01*
X168983930Y-95509670D01*
X169050605Y-95488792D01*
X169117985Y-95507276D01*
X169140501Y-95525091D01*
X175011016Y-101395606D01*
X175011045Y-101395637D01*
X175101264Y-101485856D01*
X175126619Y-101502798D01*
X175137593Y-101510130D01*
X175203715Y-101554312D01*
X175270397Y-101581932D01*
X175317548Y-101601463D01*
X175377971Y-101613481D01*
X175438393Y-101625500D01*
X175438394Y-101625500D01*
X177189548Y-101625500D01*
X177256587Y-101645185D01*
X177277229Y-101661819D01*
X177993138Y-102377728D01*
X178026623Y-102439051D01*
X178021639Y-102508743D01*
X177979767Y-102564676D01*
X177914303Y-102589093D01*
X177849162Y-102575894D01*
X177729223Y-102514781D01*
X177534534Y-102451522D01*
X177359995Y-102423878D01*
X177332352Y-102419500D01*
X177127648Y-102419500D01*
X177103329Y-102423351D01*
X176925465Y-102451522D01*
X176730776Y-102514781D01*
X176548386Y-102607715D01*
X176382786Y-102728028D01*
X176238032Y-102872782D01*
X176238028Y-102872787D01*
X176169978Y-102966451D01*
X176114648Y-103009117D01*
X176045035Y-103015096D01*
X175983240Y-102982490D01*
X175951954Y-102932570D01*
X175924814Y-102850666D01*
X175832712Y-102701344D01*
X175708656Y-102577288D01*
X175559334Y-102485186D01*
X175392797Y-102430001D01*
X175392795Y-102430000D01*
X175290010Y-102419500D01*
X174089998Y-102419500D01*
X174089981Y-102419501D01*
X173987203Y-102430000D01*
X173987200Y-102430001D01*
X173820668Y-102485185D01*
X173820663Y-102485187D01*
X173671342Y-102577289D01*
X173547289Y-102701342D01*
X173455187Y-102850663D01*
X173455186Y-102850666D01*
X173400001Y-103017203D01*
X173400001Y-103017204D01*
X173400000Y-103017204D01*
X173389500Y-103119983D01*
X173389500Y-105120001D01*
X173389501Y-105120018D01*
X173400000Y-105222796D01*
X173400001Y-105222799D01*
X173455185Y-105389331D01*
X173455187Y-105389336D01*
X173547289Y-105538657D01*
X173671451Y-105662819D01*
X173704936Y-105724142D01*
X173699952Y-105793834D01*
X173658080Y-105849767D01*
X173592616Y-105874184D01*
X173583770Y-105874500D01*
X171310453Y-105874500D01*
X171243414Y-105854815D01*
X171222772Y-105838181D01*
X170161819Y-104777228D01*
X170128334Y-104715905D01*
X170125500Y-104689547D01*
X170125500Y-99938396D01*
X170125500Y-99938394D01*
X170101463Y-99817548D01*
X170081932Y-99770397D01*
X170054312Y-99703715D01*
X170025874Y-99661155D01*
X170022008Y-99655370D01*
X170022006Y-99655365D01*
X169985861Y-99601271D01*
X169985855Y-99601263D01*
X169895637Y-99511045D01*
X169895606Y-99511016D01*
X167493150Y-97108560D01*
X167485860Y-97101270D01*
X167485858Y-97101267D01*
X167398733Y-97014142D01*
X167347509Y-96979915D01*
X167296286Y-96945688D01*
X167296283Y-96945686D01*
X167296280Y-96945685D01*
X167222603Y-96915168D01*
X167222601Y-96915167D01*
X167215792Y-96912347D01*
X167182452Y-96898537D01*
X167122029Y-96886518D01*
X167117306Y-96885578D01*
X167117304Y-96885578D01*
X167061610Y-96874500D01*
X167061607Y-96874500D01*
X167061606Y-96874500D01*
X161974361Y-96874500D01*
X161907322Y-96854815D01*
X161886684Y-96838185D01*
X161824035Y-96775536D01*
X161824034Y-96775535D01*
X161824033Y-96775534D01*
X161676553Y-96676990D01*
X161676540Y-96676983D01*
X161512667Y-96609106D01*
X161512658Y-96609103D01*
X161338694Y-96574500D01*
X161338691Y-96574500D01*
X161161309Y-96574500D01*
X161161306Y-96574500D01*
X160987341Y-96609103D01*
X160987332Y-96609106D01*
X160823459Y-96676983D01*
X160823446Y-96676990D01*
X160675965Y-96775535D01*
X160675961Y-96775538D01*
X160550538Y-96900961D01*
X160550535Y-96900965D01*
X160451990Y-97048446D01*
X160451983Y-97048459D01*
X160384106Y-97212332D01*
X160384103Y-97212341D01*
X160349500Y-97386304D01*
X160349500Y-97563695D01*
X160384103Y-97737658D01*
X160384106Y-97737667D01*
X160451983Y-97901540D01*
X160451990Y-97901553D01*
X160550535Y-98049034D01*
X160550538Y-98049038D01*
X160675961Y-98174461D01*
X160675965Y-98174464D01*
X160823446Y-98273009D01*
X160823459Y-98273016D01*
X160930954Y-98317541D01*
X160987334Y-98340894D01*
X160987336Y-98340894D01*
X160987341Y-98340896D01*
X161161304Y-98375499D01*
X161161307Y-98375500D01*
X161161309Y-98375500D01*
X161338693Y-98375500D01*
X161338694Y-98375499D01*
X161396682Y-98363964D01*
X161512658Y-98340896D01*
X161512661Y-98340894D01*
X161512666Y-98340894D01*
X161652535Y-98282958D01*
X161676540Y-98273016D01*
X161676540Y-98273015D01*
X161676547Y-98273013D01*
X161824035Y-98174464D01*
X161830022Y-98168477D01*
X161836681Y-98161819D01*
X161898004Y-98128334D01*
X161924362Y-98125500D01*
X166689548Y-98125500D01*
X166756587Y-98145185D01*
X166777229Y-98161819D01*
X167303229Y-98687819D01*
X167336714Y-98749142D01*
X167331730Y-98818834D01*
X167289858Y-98874767D01*
X167224394Y-98899184D01*
X167215548Y-98899500D01*
X165679982Y-98899500D01*
X165577203Y-98910000D01*
X165577202Y-98910001D01*
X165517091Y-98929920D01*
X165410667Y-98965185D01*
X165410662Y-98965187D01*
X165261342Y-99057289D01*
X165137289Y-99181342D01*
X165045187Y-99330662D01*
X165045186Y-99330665D01*
X164990001Y-99497202D01*
X164990001Y-99497203D01*
X164990000Y-99497203D01*
X164979500Y-99599982D01*
X164979500Y-101400017D01*
X164990000Y-101502796D01*
X165015390Y-101579418D01*
X165045186Y-101669335D01*
X165137288Y-101818656D01*
X165261344Y-101942712D01*
X165410665Y-102034814D01*
X165577202Y-102089999D01*
X165679990Y-102100500D01*
X165679995Y-102100500D01*
X167480005Y-102100500D01*
X167480010Y-102100500D01*
X167582798Y-102089999D01*
X167749335Y-102034814D01*
X167898656Y-101942712D01*
X168022712Y-101818656D01*
X168114814Y-101669335D01*
X168169999Y-101502798D01*
X168180500Y-101400010D01*
X168180500Y-99864452D01*
X168200185Y-99797413D01*
X168252989Y-99751658D01*
X168322147Y-99741714D01*
X168385703Y-99770739D01*
X168392181Y-99776771D01*
X168838181Y-100222771D01*
X168871666Y-100284094D01*
X168874500Y-100310452D01*
X168874500Y-105061611D01*
X168898535Y-105182444D01*
X168898540Y-105182461D01*
X168945685Y-105296280D01*
X168945687Y-105296283D01*
X168945688Y-105296286D01*
X168979915Y-105347509D01*
X169014142Y-105398733D01*
X169101267Y-105485858D01*
X169101269Y-105485859D01*
X170514141Y-106898732D01*
X170514142Y-106898733D01*
X170601266Y-106985857D01*
X170601268Y-106985859D01*
X170703707Y-107054307D01*
X170703711Y-107054309D01*
X170703714Y-107054311D01*
X170817548Y-107101463D01*
X170877971Y-107113481D01*
X170938393Y-107125500D01*
X186061607Y-107125500D01*
X186122029Y-107113481D01*
X186182452Y-107101463D01*
X186215792Y-107087652D01*
X186296286Y-107054312D01*
X186347509Y-107020084D01*
X186398733Y-106985858D01*
X186485858Y-106898733D01*
X186485858Y-106898731D01*
X186496066Y-106888524D01*
X186496067Y-106888521D01*
X186996041Y-106388549D01*
X203549500Y-106388549D01*
X203549500Y-106611450D01*
X203549501Y-106611466D01*
X203578594Y-106832452D01*
X203578595Y-106832457D01*
X203578596Y-106832463D01*
X203636290Y-107047780D01*
X203636293Y-107047790D01*
X203663892Y-107114419D01*
X203721595Y-107253726D01*
X203833052Y-107446774D01*
X203833057Y-107446780D01*
X203833058Y-107446782D01*
X203968751Y-107623622D01*
X203968757Y-107623629D01*
X204126370Y-107781242D01*
X204126376Y-107781247D01*
X204303226Y-107916948D01*
X204496274Y-108028405D01*
X204702219Y-108113710D01*
X204917537Y-108171404D01*
X205138543Y-108200500D01*
X205138550Y-108200500D01*
X205361450Y-108200500D01*
X205361457Y-108200500D01*
X205582463Y-108171404D01*
X205797781Y-108113710D01*
X206003726Y-108028405D01*
X206196774Y-107916948D01*
X206373624Y-107781247D01*
X206531247Y-107623624D01*
X206666948Y-107446774D01*
X206778405Y-107253726D01*
X206863710Y-107047781D01*
X206921404Y-106832463D01*
X206950500Y-106611457D01*
X206950500Y-106388543D01*
X206921404Y-106167537D01*
X206863710Y-105952219D01*
X206778405Y-105746274D01*
X206666948Y-105553226D01*
X206578834Y-105438393D01*
X206531248Y-105376377D01*
X206531242Y-105376370D01*
X206373629Y-105218757D01*
X206373622Y-105218751D01*
X206196782Y-105083058D01*
X206196780Y-105083057D01*
X206196774Y-105083052D01*
X206003726Y-104971595D01*
X206003722Y-104971593D01*
X205797790Y-104886293D01*
X205797783Y-104886291D01*
X205797781Y-104886290D01*
X205582463Y-104828596D01*
X205582457Y-104828595D01*
X205582452Y-104828594D01*
X205361466Y-104799501D01*
X205361463Y-104799500D01*
X205361457Y-104799500D01*
X205138543Y-104799500D01*
X205138537Y-104799500D01*
X205138533Y-104799501D01*
X204917547Y-104828594D01*
X204917540Y-104828595D01*
X204917537Y-104828596D01*
X204702219Y-104886290D01*
X204702209Y-104886293D01*
X204496277Y-104971593D01*
X204496273Y-104971595D01*
X204303226Y-105083052D01*
X204303217Y-105083058D01*
X204126377Y-105218751D01*
X204126370Y-105218757D01*
X203968757Y-105376370D01*
X203968751Y-105376377D01*
X203833058Y-105553217D01*
X203833052Y-105553226D01*
X203721595Y-105746273D01*
X203721593Y-105746277D01*
X203636293Y-105952209D01*
X203636290Y-105952219D01*
X203578597Y-106167534D01*
X203578594Y-106167547D01*
X203549501Y-106388533D01*
X203549500Y-106388549D01*
X186996041Y-106388549D01*
X187485858Y-105898733D01*
X187554312Y-105796285D01*
X187601463Y-105682451D01*
X187625501Y-105561606D01*
X187625501Y-105438393D01*
X187625501Y-105433283D01*
X187625500Y-105433257D01*
X187625500Y-98938395D01*
X187623814Y-98929920D01*
X187619852Y-98910001D01*
X187618553Y-98903471D01*
X187601464Y-98817554D01*
X187601463Y-98817553D01*
X187601463Y-98817549D01*
X187601460Y-98817543D01*
X187601459Y-98817538D01*
X187554314Y-98703719D01*
X187554309Y-98703710D01*
X187541134Y-98683993D01*
X187541132Y-98683990D01*
X187537256Y-98678190D01*
X187485858Y-98601267D01*
X187398733Y-98514142D01*
X187398729Y-98514139D01*
X184990198Y-96105608D01*
X184990178Y-96105586D01*
X184898733Y-96014141D01*
X184853325Y-95983801D01*
X184853324Y-95983800D01*
X184847509Y-95979915D01*
X184796286Y-95945688D01*
X184715792Y-95912347D01*
X184700457Y-95905995D01*
X184682453Y-95898537D01*
X184672427Y-95896543D01*
X184622029Y-95886518D01*
X184561610Y-95874500D01*
X184561607Y-95874500D01*
X184561606Y-95874500D01*
X183694249Y-95874500D01*
X183627210Y-95854815D01*
X183581455Y-95802011D01*
X183576318Y-95788819D01*
X183520131Y-95615896D01*
X183515220Y-95600781D01*
X183515218Y-95600778D01*
X183515218Y-95600776D01*
X183467577Y-95507276D01*
X183422287Y-95418390D01*
X183414556Y-95407749D01*
X183301971Y-95252786D01*
X183157213Y-95108028D01*
X182991613Y-94987715D01*
X182991612Y-94987714D01*
X182991610Y-94987713D01*
X182934653Y-94958691D01*
X182809223Y-94894781D01*
X182725047Y-94867431D01*
X182667372Y-94827993D01*
X182640174Y-94763634D01*
X182652089Y-94694788D01*
X182699333Y-94643312D01*
X182763366Y-94625500D01*
X190939548Y-94625500D01*
X191006587Y-94645185D01*
X191027229Y-94661819D01*
X195088181Y-98722771D01*
X195121666Y-98784094D01*
X195124500Y-98810452D01*
X195124500Y-101602019D01*
X195104815Y-101669058D01*
X195056797Y-101712503D01*
X195042180Y-101719950D01*
X194870213Y-101844890D01*
X194719894Y-101995209D01*
X194719890Y-101995214D01*
X194600318Y-102159793D01*
X194544989Y-102202459D01*
X194475375Y-102208438D01*
X194413580Y-102175833D01*
X194399682Y-102159793D01*
X194280109Y-101995214D01*
X194280105Y-101995209D01*
X194129786Y-101844890D01*
X193957820Y-101719951D01*
X193768414Y-101623444D01*
X193768413Y-101623443D01*
X193768412Y-101623443D01*
X193566243Y-101557754D01*
X193566241Y-101557753D01*
X193566240Y-101557753D01*
X193404957Y-101532208D01*
X193356287Y-101524500D01*
X193143713Y-101524500D01*
X193095042Y-101532208D01*
X192933760Y-101557753D01*
X192731585Y-101623444D01*
X192542179Y-101719951D01*
X192370215Y-101844889D01*
X192231035Y-101984069D01*
X192169712Y-102017553D01*
X192100020Y-102012569D01*
X192044087Y-101970697D01*
X192037815Y-101961484D01*
X191942315Y-101806654D01*
X191818345Y-101682684D01*
X191669124Y-101590643D01*
X191669119Y-101590641D01*
X191502697Y-101535494D01*
X191502690Y-101535493D01*
X191399986Y-101525000D01*
X191000000Y-101525000D01*
X191000000Y-102595854D01*
X190933343Y-102557370D01*
X190812535Y-102525000D01*
X190687465Y-102525000D01*
X190566657Y-102557370D01*
X190500000Y-102595854D01*
X190500000Y-101525000D01*
X190100028Y-101525000D01*
X190100012Y-101525001D01*
X189997302Y-101535494D01*
X189830880Y-101590641D01*
X189830875Y-101590643D01*
X189681654Y-101682684D01*
X189557684Y-101806654D01*
X189465643Y-101955875D01*
X189465641Y-101955880D01*
X189410494Y-102122302D01*
X189410493Y-102122309D01*
X189400000Y-102225013D01*
X189400000Y-102750000D01*
X190345854Y-102750000D01*
X190307370Y-102816657D01*
X190275000Y-102937465D01*
X190275000Y-103062535D01*
X190307370Y-103183343D01*
X190345854Y-103250000D01*
X189400001Y-103250000D01*
X189400001Y-103774986D01*
X189410494Y-103877697D01*
X189465641Y-104044119D01*
X189465643Y-104044124D01*
X189557684Y-104193345D01*
X189681654Y-104317315D01*
X189830875Y-104409356D01*
X189830880Y-104409358D01*
X189997302Y-104464505D01*
X189997309Y-104464506D01*
X190100019Y-104474999D01*
X190499999Y-104474999D01*
X190500000Y-104474998D01*
X190500000Y-103404145D01*
X190566657Y-103442630D01*
X190687465Y-103475000D01*
X190812535Y-103475000D01*
X190933343Y-103442630D01*
X191000000Y-103404145D01*
X191000000Y-104474999D01*
X191399972Y-104474999D01*
X191399986Y-104474998D01*
X191502697Y-104464505D01*
X191669119Y-104409358D01*
X191669124Y-104409356D01*
X191818345Y-104317315D01*
X191942317Y-104193343D01*
X192037815Y-104038516D01*
X192089763Y-103991791D01*
X192158725Y-103980568D01*
X192222808Y-104008412D01*
X192231035Y-104015931D01*
X192370213Y-104155109D01*
X192542179Y-104280048D01*
X192542181Y-104280049D01*
X192542184Y-104280051D01*
X192731588Y-104376557D01*
X192933757Y-104442246D01*
X193143713Y-104475500D01*
X193143714Y-104475500D01*
X193356286Y-104475500D01*
X193356287Y-104475500D01*
X193566243Y-104442246D01*
X193768412Y-104376557D01*
X193957816Y-104280051D01*
X194004684Y-104246000D01*
X194129786Y-104155109D01*
X194129788Y-104155106D01*
X194129792Y-104155104D01*
X194280104Y-104004792D01*
X194399683Y-103840204D01*
X194455011Y-103797540D01*
X194524624Y-103791561D01*
X194586420Y-103824166D01*
X194600313Y-103840199D01*
X194691426Y-103965606D01*
X194719896Y-104004792D01*
X194870213Y-104155109D01*
X195042179Y-104280048D01*
X195042181Y-104280049D01*
X195042184Y-104280051D01*
X195231588Y-104376557D01*
X195433757Y-104442246D01*
X195643713Y-104475500D01*
X195643714Y-104475500D01*
X195856286Y-104475500D01*
X195856287Y-104475500D01*
X196066243Y-104442246D01*
X196268412Y-104376557D01*
X196457816Y-104280051D01*
X196504684Y-104246000D01*
X196629786Y-104155109D01*
X196629788Y-104155106D01*
X196629792Y-104155104D01*
X196780104Y-104004792D01*
X196899683Y-103840204D01*
X196955011Y-103797540D01*
X197024624Y-103791561D01*
X197086420Y-103824166D01*
X197100313Y-103840199D01*
X197191426Y-103965606D01*
X197219896Y-104004792D01*
X197370213Y-104155109D01*
X197542179Y-104280048D01*
X197542181Y-104280049D01*
X197542184Y-104280051D01*
X197731588Y-104376557D01*
X197933757Y-104442246D01*
X198143713Y-104475500D01*
X198143714Y-104475500D01*
X198356286Y-104475500D01*
X198356287Y-104475500D01*
X198566243Y-104442246D01*
X198768412Y-104376557D01*
X198957816Y-104280051D01*
X199004684Y-104246000D01*
X199129786Y-104155109D01*
X199129788Y-104155106D01*
X199129792Y-104155104D01*
X199280104Y-104004792D01*
X199280106Y-104004788D01*
X199280109Y-104004786D01*
X199405048Y-103832820D01*
X199405047Y-103832820D01*
X199405051Y-103832816D01*
X199501557Y-103643412D01*
X199567246Y-103441243D01*
X199600500Y-103231287D01*
X199600500Y-102768713D01*
X199567246Y-102558757D01*
X199501557Y-102356588D01*
X199405051Y-102167184D01*
X199405049Y-102167181D01*
X199405048Y-102167179D01*
X199280109Y-101995213D01*
X199129786Y-101844890D01*
X198957820Y-101719951D01*
X198768414Y-101623444D01*
X198768413Y-101623443D01*
X198768412Y-101623443D01*
X198566243Y-101557754D01*
X198566241Y-101557753D01*
X198566240Y-101557753D01*
X198404957Y-101532208D01*
X198356287Y-101524500D01*
X198143713Y-101524500D01*
X198095042Y-101532208D01*
X197933760Y-101557753D01*
X197731585Y-101623444D01*
X197542179Y-101719951D01*
X197370213Y-101844890D01*
X197219894Y-101995209D01*
X197219890Y-101995214D01*
X197100318Y-102159793D01*
X197044989Y-102202459D01*
X196975375Y-102208438D01*
X196913580Y-102175833D01*
X196899682Y-102159793D01*
X196780109Y-101995214D01*
X196780105Y-101995209D01*
X196629786Y-101844890D01*
X196457819Y-101719950D01*
X196443203Y-101712503D01*
X196392408Y-101664527D01*
X196375500Y-101602019D01*
X196375500Y-98438393D01*
X196375499Y-98438389D01*
X196356107Y-98340896D01*
X196351463Y-98317548D01*
X196333016Y-98273013D01*
X196304312Y-98203714D01*
X196267472Y-98148580D01*
X196235858Y-98101267D01*
X196235857Y-98101266D01*
X196235852Y-98101260D01*
X196145637Y-98011045D01*
X196145606Y-98011016D01*
X191743150Y-93608560D01*
X191735860Y-93601270D01*
X191735858Y-93601267D01*
X191648733Y-93514142D01*
X191597509Y-93479915D01*
X191546286Y-93445688D01*
X191546283Y-93445686D01*
X191546280Y-93445685D01*
X191472603Y-93415168D01*
X191472601Y-93415167D01*
X191465792Y-93412347D01*
X191432452Y-93398537D01*
X191372029Y-93386518D01*
X191367306Y-93385578D01*
X191367304Y-93385578D01*
X191311610Y-93374500D01*
X191311607Y-93374500D01*
X191311606Y-93374500D01*
X156060453Y-93374500D01*
X155993414Y-93354815D01*
X155972772Y-93338181D01*
X152911819Y-90277228D01*
X152878334Y-90215905D01*
X152875500Y-90189547D01*
X152875500Y-86438393D01*
X152875499Y-86438389D01*
X152873145Y-86426553D01*
X152851463Y-86317548D01*
X152823691Y-86250500D01*
X152809357Y-86215894D01*
X152804314Y-86203719D01*
X152804309Y-86203710D01*
X152790226Y-86182635D01*
X152787256Y-86178190D01*
X152735858Y-86101267D01*
X152681972Y-86047381D01*
X152677690Y-86042031D01*
X152666922Y-86015789D01*
X152653334Y-85990904D01*
X152652134Y-85979749D01*
X152651167Y-85977391D01*
X152651617Y-85974940D01*
X152650500Y-85964546D01*
X152650500Y-85911306D01*
X152650499Y-85911304D01*
X152615896Y-85737341D01*
X152615893Y-85737332D01*
X152548016Y-85573459D01*
X152548009Y-85573446D01*
X152449464Y-85425965D01*
X152449461Y-85425961D01*
X152324038Y-85300538D01*
X152324034Y-85300535D01*
X152176553Y-85201990D01*
X152176540Y-85201983D01*
X152012667Y-85134106D01*
X152012658Y-85134103D01*
X151838694Y-85099500D01*
X151838691Y-85099500D01*
X151661309Y-85099500D01*
X151661306Y-85099500D01*
X151487341Y-85134103D01*
X151487332Y-85134106D01*
X151323459Y-85201983D01*
X151323446Y-85201990D01*
X151175965Y-85300535D01*
X151175961Y-85300538D01*
X151050538Y-85425961D01*
X151050535Y-85425965D01*
X150951990Y-85573446D01*
X150951983Y-85573459D01*
X150884106Y-85737332D01*
X150884103Y-85737341D01*
X150849500Y-85911304D01*
X111250500Y-85911304D01*
X111250500Y-68625148D01*
X128239500Y-68625148D01*
X128239500Y-68829851D01*
X128271522Y-69032034D01*
X128334781Y-69226723D01*
X128427715Y-69409113D01*
X128548028Y-69574713D01*
X128692786Y-69719471D01*
X128809562Y-69804312D01*
X128858390Y-69839787D01*
X128928481Y-69875500D01*
X128951080Y-69887015D01*
X129001876Y-69934990D01*
X129018671Y-70002811D01*
X128996134Y-70068946D01*
X128951080Y-70107985D01*
X128858386Y-70155215D01*
X128692786Y-70275528D01*
X128548028Y-70420286D01*
X128427715Y-70585886D01*
X128334781Y-70768276D01*
X128271522Y-70962965D01*
X128239500Y-71165148D01*
X128239500Y-71369851D01*
X128271522Y-71572034D01*
X128334781Y-71766723D01*
X128394555Y-71884034D01*
X128422222Y-71938334D01*
X128427715Y-71949113D01*
X128548028Y-72114713D01*
X128692786Y-72259471D01*
X128847749Y-72372056D01*
X128858390Y-72379787D01*
X128904604Y-72403334D01*
X128951080Y-72427015D01*
X129001876Y-72474990D01*
X129018671Y-72542811D01*
X128996134Y-72608946D01*
X128951080Y-72647985D01*
X128858386Y-72695215D01*
X128692786Y-72815528D01*
X128548028Y-72960286D01*
X128427715Y-73125886D01*
X128334781Y-73308276D01*
X128271522Y-73502965D01*
X128239500Y-73705148D01*
X128239500Y-73909851D01*
X128271522Y-74112034D01*
X128334781Y-74306723D01*
X128427715Y-74489113D01*
X128548028Y-74654713D01*
X128692786Y-74799471D01*
X128795911Y-74874394D01*
X128858390Y-74919787D01*
X128948315Y-74965606D01*
X128951080Y-74967015D01*
X129001876Y-75014990D01*
X129018671Y-75082811D01*
X128996134Y-75148946D01*
X128951080Y-75187985D01*
X128858386Y-75235215D01*
X128692786Y-75355528D01*
X128548028Y-75500286D01*
X128427715Y-75665886D01*
X128334781Y-75848276D01*
X128271522Y-76042965D01*
X128239500Y-76245148D01*
X128239500Y-76449851D01*
X128271522Y-76652034D01*
X128334781Y-76846723D01*
X128427715Y-77029113D01*
X128548028Y-77194713D01*
X128692786Y-77339471D01*
X128847749Y-77452056D01*
X128858390Y-77459787D01*
X128920713Y-77491542D01*
X129040776Y-77552718D01*
X129040778Y-77552718D01*
X129040781Y-77552720D01*
X129131856Y-77582312D01*
X129235465Y-77615977D01*
X129313484Y-77628334D01*
X129437648Y-77648000D01*
X129437649Y-77648000D01*
X130442351Y-77648000D01*
X130442352Y-77648000D01*
X130644534Y-77615977D01*
X130839219Y-77552720D01*
X131021610Y-77459787D01*
X131150482Y-77366157D01*
X131187213Y-77339471D01*
X131187215Y-77339468D01*
X131187219Y-77339466D01*
X131331966Y-77194719D01*
X131331968Y-77194715D01*
X131331971Y-77194713D01*
X131400214Y-77100783D01*
X131452287Y-77029110D01*
X131545220Y-76846719D01*
X131608477Y-76652034D01*
X131640500Y-76449852D01*
X131640500Y-76245148D01*
X131620680Y-76120009D01*
X131608477Y-76042965D01*
X131562187Y-75900500D01*
X131545220Y-75848281D01*
X131545218Y-75848278D01*
X131545218Y-75848276D01*
X131493865Y-75747491D01*
X131452287Y-75665890D01*
X131420630Y-75622317D01*
X131331971Y-75500286D01*
X131187213Y-75355528D01*
X131021614Y-75235215D01*
X131015006Y-75231848D01*
X130928917Y-75187983D01*
X130878123Y-75140011D01*
X130861328Y-75072190D01*
X130883865Y-75006055D01*
X130928917Y-74967016D01*
X131021610Y-74919787D01*
X131084089Y-74874394D01*
X131187213Y-74799471D01*
X131187215Y-74799468D01*
X131187219Y-74799466D01*
X131331966Y-74654719D01*
X131331968Y-74654715D01*
X131331971Y-74654713D01*
X131434100Y-74514142D01*
X131452287Y-74489110D01*
X131545220Y-74306719D01*
X131608477Y-74112034D01*
X131640500Y-73909852D01*
X131640500Y-73705148D01*
X131635268Y-73672116D01*
X131608477Y-73502965D01*
X131545218Y-73308276D01*
X131464826Y-73150500D01*
X131452287Y-73125890D01*
X131395704Y-73048009D01*
X131331971Y-72960286D01*
X131187213Y-72815528D01*
X131021614Y-72695215D01*
X131015006Y-72691848D01*
X130928917Y-72647983D01*
X130878123Y-72600011D01*
X130861328Y-72532190D01*
X130883865Y-72466055D01*
X130928917Y-72427016D01*
X131021610Y-72379787D01*
X131078174Y-72338691D01*
X131187213Y-72259471D01*
X131187215Y-72259468D01*
X131187219Y-72259466D01*
X131331966Y-72114719D01*
X131331968Y-72114715D01*
X131331971Y-72114713D01*
X131384732Y-72042090D01*
X131452287Y-71949110D01*
X131545220Y-71766719D01*
X131608477Y-71572034D01*
X131640500Y-71369852D01*
X131640500Y-71165148D01*
X135859500Y-71165148D01*
X135859500Y-71369851D01*
X135891522Y-71572034D01*
X135954781Y-71766723D01*
X136014555Y-71884034D01*
X136042222Y-71938334D01*
X136047715Y-71949113D01*
X136168028Y-72114713D01*
X136312786Y-72259471D01*
X136467749Y-72372056D01*
X136478390Y-72379787D01*
X136524604Y-72403334D01*
X136571080Y-72427015D01*
X136621876Y-72474990D01*
X136638671Y-72542811D01*
X136616134Y-72608946D01*
X136571080Y-72647985D01*
X136478386Y-72695215D01*
X136312786Y-72815528D01*
X136168028Y-72960286D01*
X136047715Y-73125886D01*
X135954781Y-73308276D01*
X135891522Y-73502965D01*
X135859500Y-73705148D01*
X135859500Y-73909851D01*
X135891522Y-74112034D01*
X135954781Y-74306723D01*
X136047715Y-74489113D01*
X136168028Y-74654713D01*
X136168034Y-74654719D01*
X136312781Y-74799466D01*
X136406452Y-74867521D01*
X136449117Y-74922850D01*
X136455096Y-74992463D01*
X136422491Y-75054259D01*
X136372571Y-75085545D01*
X136290666Y-75112686D01*
X136290663Y-75112687D01*
X136141342Y-75204789D01*
X136017289Y-75328842D01*
X135925187Y-75478163D01*
X135925185Y-75478168D01*
X135910552Y-75522328D01*
X135870001Y-75644703D01*
X135870001Y-75644704D01*
X135870000Y-75644704D01*
X135859500Y-75747483D01*
X135859500Y-76947501D01*
X135859501Y-76947518D01*
X135870000Y-77050296D01*
X135870001Y-77050299D01*
X135886730Y-77100783D01*
X135925186Y-77216834D01*
X136017288Y-77366156D01*
X136141344Y-77490212D01*
X136290666Y-77582314D01*
X136457203Y-77637499D01*
X136559991Y-77648000D01*
X138560008Y-77647999D01*
X138662797Y-77637499D01*
X138829334Y-77582314D01*
X138978656Y-77490212D01*
X139102712Y-77366156D01*
X139194814Y-77216834D01*
X139249999Y-77050297D01*
X139260500Y-76947509D01*
X139260499Y-75747492D01*
X139258078Y-75723796D01*
X139249999Y-75644703D01*
X139249998Y-75644700D01*
X139242581Y-75622317D01*
X139194814Y-75478166D01*
X139102712Y-75328844D01*
X138978656Y-75204788D01*
X138829334Y-75112686D01*
X138747427Y-75085544D01*
X138689984Y-75045772D01*
X138663161Y-74981256D01*
X138675476Y-74912480D01*
X138713547Y-74867521D01*
X138807219Y-74799466D01*
X138951966Y-74654719D01*
X138951968Y-74654715D01*
X138951971Y-74654713D01*
X139054100Y-74514142D01*
X139072287Y-74489110D01*
X139165220Y-74306719D01*
X139228477Y-74112034D01*
X139260500Y-73909852D01*
X139260500Y-73705148D01*
X139255268Y-73672116D01*
X139228477Y-73502965D01*
X139165218Y-73308276D01*
X139084826Y-73150500D01*
X139072287Y-73125890D01*
X139015704Y-73048009D01*
X138951971Y-72960286D01*
X138807213Y-72815528D01*
X138641614Y-72695215D01*
X138635006Y-72691848D01*
X138548917Y-72647983D01*
X138498123Y-72600011D01*
X138481328Y-72532190D01*
X138503865Y-72466055D01*
X138548917Y-72427016D01*
X138641610Y-72379787D01*
X138698174Y-72338691D01*
X138807213Y-72259471D01*
X138807215Y-72259468D01*
X138807219Y-72259466D01*
X138951966Y-72114719D01*
X138951968Y-72114715D01*
X138951971Y-72114713D01*
X139004732Y-72042090D01*
X139072287Y-71949110D01*
X139165220Y-71766719D01*
X139228477Y-71572034D01*
X139260500Y-71369852D01*
X139260500Y-71165148D01*
X139241840Y-71047334D01*
X139228477Y-70962965D01*
X139174881Y-70798016D01*
X139165220Y-70768281D01*
X139165218Y-70768278D01*
X139165218Y-70768276D01*
X139112501Y-70664815D01*
X139072287Y-70585890D01*
X139063673Y-70574034D01*
X138951971Y-70420286D01*
X138807213Y-70275528D01*
X138641611Y-70155213D01*
X138548369Y-70107703D01*
X138497574Y-70059729D01*
X138480779Y-69991907D01*
X138503317Y-69925773D01*
X138548371Y-69886734D01*
X138641347Y-69839361D01*
X138806894Y-69719082D01*
X138806895Y-69719082D01*
X138951582Y-69574395D01*
X138951582Y-69574394D01*
X139071859Y-69408849D01*
X139164755Y-69226529D01*
X139227990Y-69031913D01*
X139236609Y-68977500D01*
X137875686Y-68977500D01*
X137880080Y-68973106D01*
X137932741Y-68881894D01*
X137960000Y-68780161D01*
X137960000Y-68674839D01*
X137932741Y-68573106D01*
X137880080Y-68481894D01*
X137875686Y-68477500D01*
X139236609Y-68477500D01*
X139227990Y-68423086D01*
X139164755Y-68228470D01*
X139071859Y-68046150D01*
X138951582Y-67880605D01*
X138951582Y-67880604D01*
X138806895Y-67735917D01*
X138641349Y-67615640D01*
X138459031Y-67522744D01*
X138264417Y-67459509D01*
X138062317Y-67427500D01*
X137810000Y-67427500D01*
X137810000Y-68411814D01*
X137805606Y-68407420D01*
X137714394Y-68354759D01*
X137612661Y-68327500D01*
X137507339Y-68327500D01*
X137405606Y-68354759D01*
X137314394Y-68407420D01*
X137310000Y-68411814D01*
X137310000Y-67427500D01*
X137057683Y-67427500D01*
X136855582Y-67459509D01*
X136660968Y-67522744D01*
X136478650Y-67615640D01*
X136313105Y-67735917D01*
X136313104Y-67735917D01*
X136168417Y-67880604D01*
X136168417Y-67880605D01*
X136048140Y-68046150D01*
X135955244Y-68228470D01*
X135892009Y-68423086D01*
X135883391Y-68477500D01*
X137244314Y-68477500D01*
X137239920Y-68481894D01*
X137187259Y-68573106D01*
X137160000Y-68674839D01*
X137160000Y-68780161D01*
X137187259Y-68881894D01*
X137239920Y-68973106D01*
X137244314Y-68977500D01*
X135883391Y-68977500D01*
X135892009Y-69031913D01*
X135955244Y-69226529D01*
X136048140Y-69408849D01*
X136168417Y-69574394D01*
X136168417Y-69574395D01*
X136313104Y-69719082D01*
X136478652Y-69839361D01*
X136571628Y-69886734D01*
X136622425Y-69934708D01*
X136639220Y-70002529D01*
X136616683Y-70068664D01*
X136571630Y-70107703D01*
X136478388Y-70155213D01*
X136312786Y-70275528D01*
X136168028Y-70420286D01*
X136047715Y-70585886D01*
X135954781Y-70768276D01*
X135891522Y-70962965D01*
X135859500Y-71165148D01*
X131640500Y-71165148D01*
X131621840Y-71047334D01*
X131608477Y-70962965D01*
X131554881Y-70798016D01*
X131545220Y-70768281D01*
X131545218Y-70768278D01*
X131545218Y-70768276D01*
X131492501Y-70664815D01*
X131452287Y-70585890D01*
X131443673Y-70574034D01*
X131331971Y-70420286D01*
X131187213Y-70275528D01*
X131021614Y-70155215D01*
X131015006Y-70151848D01*
X130928917Y-70107983D01*
X130878123Y-70060011D01*
X130861328Y-69992190D01*
X130883865Y-69926055D01*
X130928917Y-69887016D01*
X131021610Y-69839787D01*
X131082074Y-69795858D01*
X131187213Y-69719471D01*
X131187215Y-69719468D01*
X131187219Y-69719466D01*
X131331966Y-69574719D01*
X131331968Y-69574715D01*
X131331971Y-69574713D01*
X131440041Y-69425965D01*
X131452287Y-69409110D01*
X131545220Y-69226719D01*
X131608477Y-69032034D01*
X131640500Y-68829852D01*
X131640500Y-68625148D01*
X131608477Y-68422966D01*
X131545220Y-68228281D01*
X131545218Y-68228278D01*
X131545218Y-68228276D01*
X131504688Y-68148732D01*
X131452287Y-68045890D01*
X131420655Y-68002352D01*
X131331971Y-67880286D01*
X131187213Y-67735528D01*
X131021613Y-67615215D01*
X131021612Y-67615214D01*
X131021610Y-67615213D01*
X130964653Y-67586191D01*
X130839223Y-67522281D01*
X130644534Y-67459022D01*
X130469995Y-67431378D01*
X130442352Y-67427000D01*
X129437648Y-67427000D01*
X129413329Y-67430851D01*
X129235465Y-67459022D01*
X129040776Y-67522281D01*
X128858386Y-67615215D01*
X128692786Y-67735528D01*
X128548028Y-67880286D01*
X128427715Y-68045886D01*
X128334781Y-68228276D01*
X128271522Y-68422965D01*
X128239500Y-68625148D01*
X111250500Y-68625148D01*
X111250500Y-38388549D01*
X113049500Y-38388549D01*
X113049500Y-38611450D01*
X113049501Y-38611466D01*
X113078594Y-38832452D01*
X113078595Y-38832457D01*
X113078596Y-38832463D01*
X113135659Y-39045426D01*
X113136290Y-39047780D01*
X113136293Y-39047790D01*
X113218696Y-39246727D01*
X113221595Y-39253726D01*
X113333052Y-39446774D01*
X113333057Y-39446780D01*
X113333058Y-39446782D01*
X113468751Y-39623622D01*
X113468757Y-39623629D01*
X113626370Y-39781242D01*
X113626377Y-39781248D01*
X113721249Y-39854045D01*
X113803226Y-39916948D01*
X113996274Y-40028405D01*
X114202219Y-40113710D01*
X114417537Y-40171404D01*
X114638543Y-40200500D01*
X114638550Y-40200500D01*
X114861450Y-40200500D01*
X114861457Y-40200500D01*
X115082463Y-40171404D01*
X115297781Y-40113710D01*
X115503726Y-40028405D01*
X115696774Y-39916948D01*
X115873624Y-39781247D01*
X116031247Y-39623624D01*
X116166948Y-39446774D01*
X116278405Y-39253726D01*
X116363710Y-39047781D01*
X116421404Y-38832463D01*
X116450500Y-38611457D01*
X116450500Y-38388543D01*
X116425086Y-38195502D01*
X122579500Y-38195502D01*
X122579500Y-38414497D01*
X122600841Y-38576587D01*
X122608083Y-38631598D01*
X122608084Y-38631600D01*
X122661904Y-38832465D01*
X122664759Y-38843117D01*
X122748560Y-39045428D01*
X122748562Y-39045433D01*
X122748565Y-39045438D01*
X122858049Y-39235070D01*
X122991355Y-39408798D01*
X122991361Y-39408805D01*
X123146194Y-39563638D01*
X123146201Y-39563644D01*
X123319929Y-39696950D01*
X123509568Y-39806438D01*
X123509583Y-39806445D01*
X123547952Y-39822338D01*
X123602356Y-39866179D01*
X123624421Y-39932473D01*
X123624500Y-39936899D01*
X123624500Y-49561611D01*
X123648535Y-49682444D01*
X123648540Y-49682461D01*
X123695685Y-49796280D01*
X123695687Y-49796283D01*
X123695688Y-49796286D01*
X123729915Y-49847509D01*
X123764142Y-49898733D01*
X123851267Y-49985858D01*
X123851269Y-49985859D01*
X123861232Y-49995822D01*
X134388762Y-60523354D01*
X134388765Y-60523357D01*
X134456911Y-60568890D01*
X134491214Y-60591811D01*
X134491215Y-60591811D01*
X134491216Y-60591812D01*
X134517002Y-60602493D01*
X134605048Y-60638963D01*
X134699092Y-60657669D01*
X134725888Y-60662999D01*
X134725892Y-60663000D01*
X134725893Y-60663000D01*
X134725894Y-60663000D01*
X135550639Y-60663000D01*
X135617678Y-60682685D01*
X135638321Y-60699320D01*
X135675961Y-60736961D01*
X135675965Y-60736964D01*
X135823446Y-60835509D01*
X135823459Y-60835516D01*
X135907215Y-60870208D01*
X135987334Y-60903394D01*
X135987336Y-60903394D01*
X135987341Y-60903396D01*
X136161304Y-60937999D01*
X136161307Y-60938000D01*
X136161309Y-60938000D01*
X136214548Y-60938000D01*
X136281587Y-60957685D01*
X136302229Y-60974319D01*
X150901819Y-75573910D01*
X150935304Y-75635233D01*
X150930320Y-75704925D01*
X150888448Y-75760858D01*
X150852456Y-75779522D01*
X150748460Y-75813312D01*
X150568870Y-75904818D01*
X150538955Y-75926553D01*
X150405810Y-76023289D01*
X150405808Y-76023291D01*
X150405807Y-76023291D01*
X150263291Y-76165807D01*
X150263291Y-76165808D01*
X150263289Y-76165810D01*
X150221884Y-76222799D01*
X150144818Y-76328870D01*
X150053312Y-76508460D01*
X149991030Y-76700147D01*
X149959500Y-76899216D01*
X149959500Y-77100783D01*
X149991030Y-77299852D01*
X150053312Y-77491539D01*
X150116717Y-77615977D01*
X150144818Y-77671129D01*
X150263289Y-77834190D01*
X150405810Y-77976711D01*
X150568871Y-78095182D01*
X150748458Y-78186686D01*
X150748460Y-78186687D01*
X150844303Y-78217828D01*
X150940149Y-78248970D01*
X151030398Y-78263264D01*
X151139217Y-78280500D01*
X151139222Y-78280500D01*
X151340783Y-78280500D01*
X151437289Y-78265214D01*
X151539851Y-78248970D01*
X151731542Y-78186686D01*
X151911129Y-78095182D01*
X152074190Y-77976711D01*
X152216711Y-77834190D01*
X152335182Y-77671129D01*
X152426686Y-77491542D01*
X152427119Y-77490212D01*
X152460477Y-77387544D01*
X152499914Y-77329868D01*
X152564272Y-77302669D01*
X152633118Y-77314583D01*
X152666089Y-77338180D01*
X153838181Y-78510271D01*
X153871666Y-78571594D01*
X153874500Y-78597952D01*
X153874500Y-89300638D01*
X153854815Y-89367677D01*
X153838181Y-89388319D01*
X153800538Y-89425961D01*
X153800535Y-89425965D01*
X153701990Y-89573446D01*
X153701983Y-89573459D01*
X153634106Y-89737332D01*
X153634103Y-89737341D01*
X153599500Y-89911304D01*
X153599500Y-90088695D01*
X153634103Y-90262658D01*
X153634106Y-90262667D01*
X153701983Y-90426540D01*
X153701990Y-90426553D01*
X153800535Y-90574034D01*
X153800538Y-90574038D01*
X153925961Y-90699461D01*
X153925965Y-90699464D01*
X154073446Y-90798009D01*
X154073459Y-90798016D01*
X154176700Y-90840779D01*
X154237334Y-90865894D01*
X154237336Y-90865894D01*
X154237341Y-90865896D01*
X154411304Y-90900499D01*
X154411307Y-90900500D01*
X154411309Y-90900500D01*
X154588693Y-90900500D01*
X154588694Y-90900499D01*
X154646682Y-90888964D01*
X154762658Y-90865896D01*
X154762661Y-90865894D01*
X154762666Y-90865894D01*
X154926547Y-90798013D01*
X155074035Y-90699464D01*
X155199464Y-90574035D01*
X155298013Y-90426547D01*
X155365894Y-90262666D01*
X155375196Y-90215905D01*
X155400499Y-90088695D01*
X155400500Y-90088693D01*
X155400500Y-89911306D01*
X155400499Y-89911304D01*
X155365896Y-89737341D01*
X155365893Y-89737332D01*
X155353555Y-89707546D01*
X155331812Y-89655051D01*
X155298016Y-89573459D01*
X155298009Y-89573446D01*
X155199464Y-89425965D01*
X155199461Y-89425961D01*
X155161819Y-89388319D01*
X155128334Y-89326996D01*
X155125500Y-89300638D01*
X155125500Y-88393713D01*
X157384500Y-88393713D01*
X157384500Y-88606286D01*
X157405989Y-88741966D01*
X157417754Y-88816243D01*
X157462759Y-88954755D01*
X157483444Y-89018414D01*
X157579951Y-89207820D01*
X157704890Y-89379786D01*
X157855213Y-89530109D01*
X158027179Y-89655048D01*
X158027181Y-89655049D01*
X158027184Y-89655051D01*
X158216588Y-89751557D01*
X158418757Y-89817246D01*
X158628713Y-89850500D01*
X158628714Y-89850500D01*
X158841286Y-89850500D01*
X158841287Y-89850500D01*
X159051243Y-89817246D01*
X159253412Y-89751557D01*
X159442816Y-89655051D01*
X159555127Y-89573453D01*
X159614784Y-89530110D01*
X159614784Y-89530109D01*
X159614792Y-89530104D01*
X159728329Y-89416566D01*
X159789648Y-89383084D01*
X159859340Y-89388068D01*
X159915274Y-89429939D01*
X159932189Y-89460917D01*
X159981202Y-89592328D01*
X159981206Y-89592335D01*
X160067452Y-89707544D01*
X160067455Y-89707547D01*
X160182664Y-89793793D01*
X160182671Y-89793797D01*
X160317517Y-89844091D01*
X160317516Y-89844091D01*
X160324444Y-89844835D01*
X160377127Y-89850500D01*
X162172872Y-89850499D01*
X162232483Y-89844091D01*
X162367331Y-89793796D01*
X162482546Y-89707546D01*
X162568796Y-89592331D01*
X162619091Y-89457483D01*
X162625500Y-89397873D01*
X162625499Y-87602128D01*
X162619091Y-87542517D01*
X162617810Y-87539083D01*
X162568797Y-87407671D01*
X162568793Y-87407664D01*
X162482547Y-87292455D01*
X162482544Y-87292452D01*
X162367335Y-87206206D01*
X162367328Y-87206202D01*
X162232482Y-87155908D01*
X162232483Y-87155908D01*
X162172883Y-87149501D01*
X162172881Y-87149500D01*
X162172873Y-87149500D01*
X162172864Y-87149500D01*
X160377129Y-87149500D01*
X160377123Y-87149501D01*
X160317516Y-87155908D01*
X160182671Y-87206202D01*
X160182664Y-87206206D01*
X160067455Y-87292452D01*
X160067452Y-87292455D01*
X159981206Y-87407664D01*
X159981203Y-87407669D01*
X159932189Y-87539083D01*
X159890317Y-87595016D01*
X159824853Y-87619433D01*
X159756580Y-87604581D01*
X159728326Y-87583430D01*
X159614786Y-87469890D01*
X159442820Y-87344951D01*
X159253414Y-87248444D01*
X159253413Y-87248443D01*
X159253412Y-87248443D01*
X159051243Y-87182754D01*
X159051241Y-87182753D01*
X159051240Y-87182753D01*
X158889957Y-87157208D01*
X158841287Y-87149500D01*
X158628713Y-87149500D01*
X158580042Y-87157208D01*
X158418760Y-87182753D01*
X158216585Y-87248444D01*
X158027179Y-87344951D01*
X157855213Y-87469890D01*
X157704890Y-87620213D01*
X157579951Y-87792179D01*
X157483444Y-87981585D01*
X157417753Y-88183760D01*
X157384500Y-88393713D01*
X155125500Y-88393713D01*
X155125500Y-83852135D01*
X157399500Y-83852135D01*
X157399500Y-85647870D01*
X157399501Y-85647876D01*
X157405908Y-85707483D01*
X157456202Y-85842328D01*
X157456206Y-85842335D01*
X157542452Y-85957544D01*
X157542455Y-85957547D01*
X157657664Y-86043793D01*
X157657671Y-86043797D01*
X157792517Y-86094091D01*
X157792516Y-86094091D01*
X157799444Y-86094835D01*
X157852127Y-86100500D01*
X159647872Y-86100499D01*
X159707483Y-86094091D01*
X159842331Y-86043796D01*
X159957546Y-85957546D01*
X160043796Y-85842331D01*
X160092810Y-85710916D01*
X160134681Y-85654984D01*
X160200145Y-85630566D01*
X160268418Y-85645417D01*
X160296673Y-85666569D01*
X160410213Y-85780109D01*
X160582179Y-85905048D01*
X160582181Y-85905049D01*
X160582184Y-85905051D01*
X160771588Y-86001557D01*
X160973757Y-86067246D01*
X161183713Y-86100500D01*
X161183714Y-86100500D01*
X161396286Y-86100500D01*
X161396287Y-86100500D01*
X161606243Y-86067246D01*
X161808412Y-86001557D01*
X161997816Y-85905051D01*
X162084138Y-85842335D01*
X162169786Y-85780109D01*
X162169788Y-85780106D01*
X162169792Y-85780104D01*
X162320104Y-85629792D01*
X162320106Y-85629788D01*
X162320109Y-85629786D01*
X162445048Y-85457820D01*
X162445047Y-85457820D01*
X162445051Y-85457816D01*
X162541557Y-85268412D01*
X162607246Y-85066243D01*
X162640500Y-84856287D01*
X162640500Y-84643713D01*
X162607246Y-84433757D01*
X162541557Y-84231588D01*
X162445051Y-84042184D01*
X162445049Y-84042181D01*
X162445048Y-84042179D01*
X162320109Y-83870213D01*
X162169786Y-83719890D01*
X161997820Y-83594951D01*
X161808414Y-83498444D01*
X161808413Y-83498443D01*
X161808412Y-83498443D01*
X161606243Y-83432754D01*
X161606241Y-83432753D01*
X161606240Y-83432753D01*
X161444957Y-83407208D01*
X161396287Y-83399500D01*
X161183713Y-83399500D01*
X161135042Y-83407208D01*
X160973760Y-83432753D01*
X160872672Y-83465598D01*
X160783139Y-83494690D01*
X160771585Y-83498444D01*
X160582179Y-83594951D01*
X160410215Y-83719889D01*
X160296673Y-83833431D01*
X160235350Y-83866915D01*
X160165658Y-83861931D01*
X160109725Y-83820059D01*
X160092810Y-83789082D01*
X160043797Y-83657671D01*
X160043793Y-83657664D01*
X159957547Y-83542455D01*
X159957544Y-83542452D01*
X159842335Y-83456206D01*
X159842328Y-83456202D01*
X159707482Y-83405908D01*
X159707483Y-83405908D01*
X159647883Y-83399501D01*
X159647881Y-83399500D01*
X159647873Y-83399500D01*
X159647864Y-83399500D01*
X157852129Y-83399500D01*
X157852123Y-83399501D01*
X157792516Y-83405908D01*
X157657671Y-83456202D01*
X157657664Y-83456206D01*
X157542455Y-83542452D01*
X157542452Y-83542455D01*
X157456206Y-83657664D01*
X157456202Y-83657671D01*
X157405908Y-83792517D01*
X157399501Y-83852116D01*
X157399500Y-83852135D01*
X155125500Y-83852135D01*
X155125500Y-80495763D01*
X155145185Y-80428724D01*
X155197989Y-80382969D01*
X155267147Y-80373025D01*
X155330703Y-80402050D01*
X155337181Y-80408082D01*
X155405810Y-80476711D01*
X155568871Y-80595182D01*
X155739204Y-80681971D01*
X155748460Y-80686687D01*
X155816075Y-80708656D01*
X155940149Y-80748970D01*
X156032348Y-80763572D01*
X156139217Y-80780500D01*
X156139222Y-80780500D01*
X156340783Y-80780500D01*
X156437289Y-80765214D01*
X156539851Y-80748970D01*
X156731542Y-80686686D01*
X156911129Y-80595182D01*
X157074190Y-80476711D01*
X157216711Y-80334190D01*
X157335182Y-80171129D01*
X157400015Y-80043884D01*
X157447989Y-79993090D01*
X157515810Y-79976295D01*
X157581945Y-79998832D01*
X157625397Y-80053547D01*
X157634500Y-80100181D01*
X157634500Y-81550638D01*
X157614815Y-81617677D01*
X157598181Y-81638319D01*
X157560538Y-81675961D01*
X157560535Y-81675965D01*
X157461990Y-81823446D01*
X157461983Y-81823459D01*
X157394106Y-81987332D01*
X157394103Y-81987341D01*
X157359500Y-82161304D01*
X157359500Y-82338695D01*
X157394103Y-82512658D01*
X157394106Y-82512667D01*
X157461983Y-82676540D01*
X157461990Y-82676553D01*
X157560535Y-82824034D01*
X157560538Y-82824038D01*
X157685961Y-82949461D01*
X157685965Y-82949464D01*
X157833446Y-83048009D01*
X157833459Y-83048016D01*
X157903963Y-83077219D01*
X157997334Y-83115894D01*
X157997336Y-83115894D01*
X157997341Y-83115896D01*
X158171304Y-83150499D01*
X158171307Y-83150500D01*
X158171309Y-83150500D01*
X158348693Y-83150500D01*
X158348694Y-83150499D01*
X158406682Y-83138964D01*
X158522658Y-83115896D01*
X158522661Y-83115894D01*
X158522666Y-83115894D01*
X158686547Y-83048013D01*
X158834035Y-82949464D01*
X158959464Y-82824035D01*
X159058013Y-82676547D01*
X159125894Y-82512666D01*
X159160500Y-82338691D01*
X159160500Y-82161309D01*
X159160500Y-82161306D01*
X159160499Y-82161304D01*
X159125896Y-81987341D01*
X159125893Y-81987332D01*
X159058016Y-81823459D01*
X159058009Y-81823446D01*
X158959464Y-81675965D01*
X158959461Y-81675961D01*
X158921819Y-81638319D01*
X158888334Y-81576996D01*
X158885500Y-81550638D01*
X158885500Y-78101609D01*
X164374499Y-78101609D01*
X164381588Y-78137245D01*
X164381591Y-78137258D01*
X164382389Y-78141267D01*
X164398537Y-78222452D01*
X164412347Y-78255792D01*
X164415439Y-78263257D01*
X164415441Y-78263264D01*
X164445685Y-78336280D01*
X164445690Y-78336289D01*
X164479914Y-78387507D01*
X164479915Y-78387509D01*
X164514141Y-78438733D01*
X164605586Y-78530178D01*
X164605608Y-78530198D01*
X167595810Y-81520400D01*
X167629295Y-81581723D01*
X167624311Y-81651415D01*
X167618614Y-81664375D01*
X167584782Y-81730773D01*
X167521522Y-81925465D01*
X167489500Y-82127648D01*
X167489500Y-82332351D01*
X167521522Y-82534534D01*
X167584781Y-82729223D01*
X167633091Y-82824035D01*
X167673496Y-82903334D01*
X167677715Y-82911613D01*
X167798028Y-83077213D01*
X167942786Y-83221971D01*
X168097749Y-83334556D01*
X168108390Y-83342287D01*
X168199840Y-83388883D01*
X168201080Y-83389515D01*
X168251876Y-83437490D01*
X168268671Y-83505311D01*
X168246134Y-83571446D01*
X168201080Y-83610485D01*
X168108386Y-83657715D01*
X167942786Y-83778028D01*
X167798032Y-83922782D01*
X167798030Y-83922785D01*
X167677715Y-84088386D01*
X167584781Y-84270776D01*
X167521522Y-84465465D01*
X167489500Y-84667648D01*
X167489500Y-84872351D01*
X167521522Y-85074534D01*
X167584781Y-85269223D01*
X167646426Y-85390205D01*
X167671132Y-85438695D01*
X167677715Y-85451613D01*
X167798028Y-85617213D01*
X167942786Y-85761971D01*
X168053400Y-85842335D01*
X168108390Y-85882287D01*
X168165339Y-85911304D01*
X168201629Y-85929795D01*
X168252425Y-85977770D01*
X168269220Y-86045591D01*
X168246682Y-86111726D01*
X168201629Y-86150765D01*
X168108650Y-86198140D01*
X167943105Y-86318417D01*
X167943104Y-86318417D01*
X167798417Y-86463104D01*
X167798417Y-86463105D01*
X167678140Y-86628650D01*
X167585244Y-86810970D01*
X167522009Y-87005586D01*
X167513391Y-87060000D01*
X168874314Y-87060000D01*
X168869920Y-87064394D01*
X168817259Y-87155606D01*
X168790000Y-87257339D01*
X168790000Y-87362661D01*
X168817259Y-87464394D01*
X168869920Y-87555606D01*
X168874314Y-87560000D01*
X167513391Y-87560000D01*
X167522009Y-87614413D01*
X167585244Y-87809029D01*
X167678140Y-87991349D01*
X167798417Y-88156894D01*
X167798417Y-88156895D01*
X167943104Y-88301582D01*
X168108650Y-88421859D01*
X168290968Y-88514755D01*
X168485582Y-88577990D01*
X168687683Y-88610000D01*
X168940000Y-88610000D01*
X168940000Y-87625686D01*
X168944394Y-87630080D01*
X169035606Y-87682741D01*
X169137339Y-87710000D01*
X169242661Y-87710000D01*
X169344394Y-87682741D01*
X169435606Y-87630080D01*
X169440000Y-87625686D01*
X169440000Y-88610000D01*
X169692317Y-88610000D01*
X169894417Y-88577990D01*
X170089031Y-88514755D01*
X170271349Y-88421859D01*
X170436894Y-88301582D01*
X170436895Y-88301582D01*
X170581582Y-88156895D01*
X170581582Y-88156894D01*
X170701859Y-87991349D01*
X170794755Y-87809029D01*
X170857990Y-87614413D01*
X170866609Y-87560000D01*
X169505686Y-87560000D01*
X169510080Y-87555606D01*
X169562741Y-87464394D01*
X169590000Y-87362661D01*
X169590000Y-87257339D01*
X169562741Y-87155606D01*
X169510080Y-87064394D01*
X169505686Y-87060000D01*
X170866609Y-87060000D01*
X170857990Y-87005586D01*
X170794755Y-86810970D01*
X170701859Y-86628650D01*
X170581582Y-86463105D01*
X170581582Y-86463104D01*
X170436895Y-86318417D01*
X170271349Y-86198140D01*
X170178370Y-86150765D01*
X170127574Y-86102790D01*
X170110779Y-86034969D01*
X170133316Y-85968835D01*
X170178370Y-85929795D01*
X170189669Y-85924038D01*
X170271610Y-85882287D01*
X170326605Y-85842331D01*
X170437213Y-85761971D01*
X170437215Y-85761968D01*
X170437219Y-85761966D01*
X170581966Y-85617219D01*
X170581968Y-85617215D01*
X170581971Y-85617213D01*
X170634732Y-85544590D01*
X170702287Y-85451610D01*
X170795220Y-85269219D01*
X170858477Y-85074534D01*
X170890500Y-84872352D01*
X170890500Y-84667648D01*
X170869199Y-84533163D01*
X170858477Y-84465465D01*
X170795218Y-84270776D01*
X170713193Y-84109795D01*
X170702287Y-84088390D01*
X170668713Y-84042179D01*
X170581970Y-83922785D01*
X170437213Y-83778028D01*
X170271614Y-83657715D01*
X170265006Y-83654348D01*
X170178917Y-83610483D01*
X170128123Y-83562511D01*
X170111328Y-83494690D01*
X170133865Y-83428555D01*
X170178917Y-83389516D01*
X170271610Y-83342287D01*
X170292770Y-83326913D01*
X170437213Y-83221971D01*
X170437215Y-83221968D01*
X170437219Y-83221966D01*
X170581966Y-83077219D01*
X170581968Y-83077215D01*
X170581971Y-83077213D01*
X170634732Y-83004590D01*
X170702287Y-82911610D01*
X170795220Y-82729219D01*
X170858477Y-82534534D01*
X170890500Y-82332352D01*
X170890500Y-82127648D01*
X170883658Y-82084452D01*
X170858477Y-81925465D01*
X170825329Y-81823446D01*
X170795220Y-81730781D01*
X170795218Y-81730778D01*
X170795218Y-81730776D01*
X170748108Y-81638319D01*
X170702287Y-81548390D01*
X170681951Y-81520400D01*
X170581971Y-81382786D01*
X170437219Y-81238034D01*
X170387604Y-81201987D01*
X170343547Y-81169978D01*
X170300882Y-81114649D01*
X170294903Y-81045036D01*
X170327508Y-80983240D01*
X170377426Y-80951955D01*
X170459334Y-80924814D01*
X170608656Y-80832712D01*
X170732712Y-80708656D01*
X170824814Y-80559334D01*
X170879999Y-80392797D01*
X170890500Y-80290009D01*
X170890499Y-79089992D01*
X170879999Y-78987203D01*
X170824814Y-78820666D01*
X170732712Y-78671344D01*
X170608656Y-78547288D01*
X170459334Y-78455186D01*
X170292797Y-78400001D01*
X170292795Y-78400000D01*
X170190010Y-78389500D01*
X168189998Y-78389500D01*
X168189981Y-78389501D01*
X168087203Y-78400000D01*
X168087200Y-78400001D01*
X167920668Y-78455185D01*
X167920663Y-78455187D01*
X167771342Y-78547289D01*
X167647289Y-78671342D01*
X167555187Y-78820663D01*
X167555185Y-78820668D01*
X167547858Y-78842781D01*
X167500001Y-78987203D01*
X167500001Y-78987204D01*
X167500000Y-78987204D01*
X167489500Y-79089983D01*
X167489500Y-79345548D01*
X167469815Y-79412587D01*
X167417011Y-79458342D01*
X167347853Y-79468286D01*
X167284297Y-79439261D01*
X167277819Y-79433229D01*
X165956771Y-78112181D01*
X165923286Y-78050858D01*
X165928270Y-77981166D01*
X165970142Y-77925233D01*
X166035606Y-77900816D01*
X166044452Y-77900500D01*
X166088693Y-77900500D01*
X166088694Y-77900499D01*
X166147697Y-77888763D01*
X166262658Y-77865896D01*
X166262661Y-77865894D01*
X166262666Y-77865894D01*
X166426547Y-77798013D01*
X166574035Y-77699464D01*
X166611679Y-77661820D01*
X166673001Y-77628334D01*
X166699361Y-77625500D01*
X170189548Y-77625500D01*
X170256587Y-77645185D01*
X170277229Y-77661819D01*
X173503229Y-80887819D01*
X173536714Y-80949142D01*
X173531730Y-81018834D01*
X173489858Y-81074767D01*
X173424394Y-81099184D01*
X173415548Y-81099500D01*
X173411306Y-81099500D01*
X173237341Y-81134103D01*
X173237332Y-81134106D01*
X173073459Y-81201983D01*
X173073446Y-81201990D01*
X172925965Y-81300535D01*
X172925961Y-81300538D01*
X172800538Y-81425961D01*
X172800535Y-81425965D01*
X172701990Y-81573446D01*
X172701983Y-81573459D01*
X172634106Y-81737332D01*
X172634103Y-81737341D01*
X172599500Y-81911304D01*
X172599500Y-81964547D01*
X172579815Y-82031586D01*
X172563181Y-82052228D01*
X172283058Y-82332351D01*
X172101270Y-82514139D01*
X172101267Y-82514142D01*
X172065037Y-82550372D01*
X172014144Y-82601264D01*
X172014142Y-82601267D01*
X171995790Y-82628733D01*
X171995789Y-82628735D01*
X171995788Y-82628734D01*
X171945689Y-82703712D01*
X171945685Y-82703719D01*
X171935123Y-82729218D01*
X171935124Y-82729219D01*
X171907956Y-82794808D01*
X171907954Y-82794812D01*
X171904135Y-82804035D01*
X171898537Y-82817549D01*
X171877447Y-82923580D01*
X171877016Y-82925741D01*
X171877015Y-82925750D01*
X171874500Y-82938394D01*
X171874500Y-91300638D01*
X171854815Y-91367677D01*
X171838181Y-91388319D01*
X171800538Y-91425961D01*
X171800535Y-91425965D01*
X171701990Y-91573446D01*
X171701983Y-91573459D01*
X171634106Y-91737332D01*
X171634103Y-91737341D01*
X171599500Y-91911304D01*
X171599500Y-92088695D01*
X171634103Y-92262658D01*
X171634106Y-92262667D01*
X171701983Y-92426540D01*
X171701990Y-92426553D01*
X171800535Y-92574034D01*
X171800538Y-92574038D01*
X171925961Y-92699461D01*
X171925965Y-92699464D01*
X172073446Y-92798009D01*
X172073459Y-92798016D01*
X172196363Y-92848923D01*
X172237334Y-92865894D01*
X172237336Y-92865894D01*
X172237341Y-92865896D01*
X172411304Y-92900499D01*
X172411307Y-92900500D01*
X172411309Y-92900500D01*
X172588693Y-92900500D01*
X172588694Y-92900499D01*
X172646682Y-92888964D01*
X172762658Y-92865896D01*
X172762661Y-92865894D01*
X172762666Y-92865894D01*
X172926547Y-92798013D01*
X173074035Y-92699464D01*
X173199464Y-92574035D01*
X173298013Y-92426547D01*
X173365894Y-92262666D01*
X173400500Y-92088691D01*
X173400500Y-91911309D01*
X173400500Y-91911306D01*
X173400499Y-91911304D01*
X173365896Y-91737341D01*
X173365893Y-91737332D01*
X173298016Y-91573459D01*
X173298009Y-91573446D01*
X173199464Y-91425965D01*
X173199461Y-91425961D01*
X173161819Y-91388319D01*
X173128334Y-91326996D01*
X173125500Y-91300638D01*
X173125500Y-83310452D01*
X173145185Y-83243413D01*
X173161819Y-83222771D01*
X173447771Y-82936819D01*
X173509094Y-82903334D01*
X173535452Y-82900500D01*
X173588693Y-82900500D01*
X173588694Y-82900499D01*
X173646682Y-82888964D01*
X173762658Y-82865896D01*
X173762661Y-82865894D01*
X173762666Y-82865894D01*
X173902535Y-82807958D01*
X173926540Y-82798016D01*
X173926540Y-82798015D01*
X173926547Y-82798013D01*
X174074035Y-82699464D01*
X174199464Y-82574035D01*
X174298013Y-82426547D01*
X174365894Y-82262666D01*
X174400500Y-82088691D01*
X174400500Y-82084452D01*
X174420185Y-82017413D01*
X174472989Y-81971658D01*
X174542147Y-81961714D01*
X174605703Y-81990739D01*
X174612181Y-81996771D01*
X175116419Y-82501009D01*
X175146669Y-82550372D01*
X175204780Y-82729219D01*
X175293496Y-82903334D01*
X175297715Y-82911613D01*
X175418028Y-83077213D01*
X175562786Y-83221971D01*
X175717749Y-83334556D01*
X175728390Y-83342287D01*
X175819840Y-83388883D01*
X175821080Y-83389515D01*
X175871876Y-83437490D01*
X175888671Y-83505311D01*
X175866134Y-83571446D01*
X175821080Y-83610485D01*
X175728386Y-83657715D01*
X175562786Y-83778028D01*
X175418032Y-83922782D01*
X175418030Y-83922785D01*
X175297715Y-84088386D01*
X175204781Y-84270776D01*
X175141522Y-84465465D01*
X175109500Y-84667648D01*
X175109500Y-84872351D01*
X175141522Y-85074534D01*
X175204781Y-85269223D01*
X175266426Y-85390205D01*
X175291132Y-85438695D01*
X175297715Y-85451613D01*
X175418028Y-85617213D01*
X175562786Y-85761971D01*
X175673400Y-85842335D01*
X175728390Y-85882287D01*
X175810323Y-85924034D01*
X175821080Y-85929515D01*
X175871876Y-85977490D01*
X175888671Y-86045311D01*
X175866134Y-86111446D01*
X175821080Y-86150485D01*
X175728386Y-86197715D01*
X175562786Y-86318028D01*
X175418028Y-86462786D01*
X175297715Y-86628386D01*
X175204781Y-86810776D01*
X175141522Y-87005465D01*
X175109500Y-87207648D01*
X175109500Y-87412351D01*
X175141522Y-87614534D01*
X175204781Y-87809223D01*
X175297715Y-87991613D01*
X175418028Y-88157213D01*
X175562786Y-88301971D01*
X175689061Y-88393713D01*
X175728390Y-88422287D01*
X175844607Y-88481503D01*
X175910776Y-88515218D01*
X175910778Y-88515218D01*
X175910781Y-88515220D01*
X176015137Y-88549127D01*
X176105465Y-88578477D01*
X176206557Y-88594488D01*
X176307648Y-88610500D01*
X176307649Y-88610500D01*
X177312351Y-88610500D01*
X177312352Y-88610500D01*
X177514534Y-88578477D01*
X177709219Y-88515220D01*
X177891610Y-88422287D01*
X177984590Y-88354732D01*
X178057213Y-88301971D01*
X178057215Y-88301968D01*
X178057219Y-88301966D01*
X178201966Y-88157219D01*
X178201968Y-88157215D01*
X178201971Y-88157213D01*
X178276655Y-88054417D01*
X178322287Y-87991610D01*
X178415220Y-87809219D01*
X178478477Y-87614534D01*
X178510500Y-87412352D01*
X178510500Y-87207648D01*
X178488443Y-87068386D01*
X178478477Y-87005465D01*
X178415218Y-86810776D01*
X178358501Y-86699464D01*
X178322287Y-86628390D01*
X178314556Y-86617749D01*
X178201971Y-86462786D01*
X178057213Y-86318028D01*
X177891614Y-86197715D01*
X177853294Y-86178190D01*
X177798917Y-86150483D01*
X177748123Y-86102511D01*
X177731328Y-86034690D01*
X177753865Y-85968555D01*
X177798917Y-85929516D01*
X177891610Y-85882287D01*
X177946605Y-85842331D01*
X178057213Y-85761971D01*
X178057215Y-85761968D01*
X178057219Y-85761966D01*
X178201966Y-85617219D01*
X178201968Y-85617215D01*
X178201971Y-85617213D01*
X178254732Y-85544590D01*
X178322287Y-85451610D01*
X178415220Y-85269219D01*
X178478477Y-85074534D01*
X178510500Y-84872352D01*
X178510500Y-84667648D01*
X178489199Y-84533163D01*
X178478477Y-84465465D01*
X178415218Y-84270776D01*
X178333193Y-84109795D01*
X178322287Y-84088390D01*
X178288713Y-84042179D01*
X178201970Y-83922785D01*
X178057213Y-83778028D01*
X177891614Y-83657715D01*
X177885006Y-83654348D01*
X177798917Y-83610483D01*
X177748123Y-83562511D01*
X177731328Y-83494690D01*
X177753865Y-83428555D01*
X177798917Y-83389516D01*
X177891610Y-83342287D01*
X177912770Y-83326913D01*
X178057213Y-83221971D01*
X178057215Y-83221968D01*
X178057219Y-83221966D01*
X178201966Y-83077219D01*
X178201968Y-83077215D01*
X178201971Y-83077213D01*
X178254732Y-83004590D01*
X178322287Y-82911610D01*
X178415220Y-82729219D01*
X178478477Y-82534534D01*
X178510500Y-82332352D01*
X178510500Y-82127648D01*
X178503658Y-82084452D01*
X178478477Y-81925465D01*
X178466018Y-81887124D01*
X178415220Y-81730781D01*
X178381383Y-81664374D01*
X178368488Y-81595707D01*
X178394764Y-81530966D01*
X178404179Y-81520409D01*
X180898729Y-79025860D01*
X180898733Y-79025858D01*
X180985858Y-78938733D01*
X181036984Y-78862218D01*
X181054312Y-78836286D01*
X181087652Y-78755792D01*
X181087653Y-78755791D01*
X181101460Y-78722460D01*
X181101460Y-78722457D01*
X181101463Y-78722452D01*
X181111629Y-78671342D01*
X181117572Y-78641466D01*
X181117572Y-78641463D01*
X181125500Y-78601607D01*
X181125500Y-78478393D01*
X181125500Y-74119983D01*
X182159500Y-74119983D01*
X182159500Y-76120001D01*
X182159501Y-76120018D01*
X182170000Y-76222796D01*
X182170001Y-76222799D01*
X182215596Y-76360394D01*
X182225186Y-76389334D01*
X182317288Y-76538656D01*
X182441344Y-76662712D01*
X182590666Y-76754814D01*
X182757203Y-76809999D01*
X182859991Y-76820500D01*
X184060008Y-76820499D01*
X184162797Y-76809999D01*
X184329334Y-76754814D01*
X184478656Y-76662712D01*
X184602712Y-76538656D01*
X184694814Y-76389334D01*
X184721955Y-76307427D01*
X184761726Y-76249984D01*
X184826242Y-76223161D01*
X184895018Y-76235476D01*
X184939977Y-76273547D01*
X185008034Y-76367219D01*
X185152781Y-76511966D01*
X185318390Y-76632287D01*
X185318394Y-76632289D01*
X185322332Y-76635150D01*
X185321111Y-76636829D01*
X185362155Y-76682177D01*
X185374500Y-76736114D01*
X185374500Y-78399548D01*
X185354815Y-78466587D01*
X185338181Y-78487229D01*
X184282229Y-79543181D01*
X184220906Y-79576666D01*
X184194548Y-79579500D01*
X184141306Y-79579500D01*
X183967341Y-79614103D01*
X183967332Y-79614106D01*
X183803459Y-79681983D01*
X183803446Y-79681990D01*
X183655965Y-79780535D01*
X183655961Y-79780538D01*
X183530538Y-79905961D01*
X183530535Y-79905965D01*
X183431990Y-80053446D01*
X183431983Y-80053459D01*
X183364106Y-80217332D01*
X183364103Y-80217341D01*
X183329500Y-80391304D01*
X183329500Y-80568695D01*
X183364103Y-80742658D01*
X183364106Y-80742667D01*
X183431983Y-80906540D01*
X183431990Y-80906553D01*
X183530535Y-81054034D01*
X183530538Y-81054038D01*
X183655961Y-81179461D01*
X183655965Y-81179464D01*
X183803446Y-81278009D01*
X183803459Y-81278016D01*
X183926363Y-81328923D01*
X183967334Y-81345894D01*
X183967336Y-81345894D01*
X183967341Y-81345896D01*
X184141304Y-81380499D01*
X184141307Y-81380500D01*
X184141309Y-81380500D01*
X184318693Y-81380500D01*
X184318694Y-81380499D01*
X184376682Y-81368964D01*
X184492658Y-81345896D01*
X184492661Y-81345894D01*
X184492666Y-81345894D01*
X184656547Y-81278013D01*
X184804035Y-81179464D01*
X184929464Y-81054035D01*
X185028013Y-80906547D01*
X185031765Y-80897490D01*
X185071198Y-80802287D01*
X185095894Y-80742666D01*
X185130500Y-80568691D01*
X185130500Y-80515451D01*
X185150185Y-80448412D01*
X185166814Y-80427775D01*
X186398729Y-79195860D01*
X186398733Y-79195858D01*
X186485858Y-79108733D01*
X186520084Y-79057509D01*
X186554312Y-79006286D01*
X186601463Y-78892451D01*
X186625500Y-78771607D01*
X186625500Y-78648393D01*
X186625500Y-76736114D01*
X186645185Y-76669075D01*
X186678575Y-76636398D01*
X186677668Y-76635150D01*
X186681605Y-76632289D01*
X186681610Y-76632287D01*
X186847219Y-76511966D01*
X186991966Y-76367219D01*
X186991968Y-76367215D01*
X186991971Y-76367213D01*
X187112284Y-76201614D01*
X187112283Y-76201614D01*
X187112287Y-76201610D01*
X187159516Y-76108917D01*
X187207489Y-76058123D01*
X187275310Y-76041328D01*
X187341445Y-76063865D01*
X187380483Y-76108917D01*
X187409471Y-76165808D01*
X187427715Y-76201614D01*
X187548028Y-76367213D01*
X187548034Y-76367219D01*
X187692781Y-76511966D01*
X187858390Y-76632287D01*
X187858394Y-76632289D01*
X187862332Y-76635150D01*
X187861111Y-76636829D01*
X187902155Y-76682177D01*
X187914500Y-76736114D01*
X187914500Y-79399547D01*
X187894815Y-79466586D01*
X187878181Y-79487228D01*
X187514142Y-79851266D01*
X187511797Y-79854775D01*
X187511791Y-79854785D01*
X187508825Y-79859225D01*
X187445688Y-79953714D01*
X187412658Y-80033458D01*
X187410045Y-80039764D01*
X187410041Y-80039773D01*
X187398538Y-80067544D01*
X187398537Y-80067547D01*
X187398537Y-80067548D01*
X187374500Y-80188394D01*
X187374500Y-83811606D01*
X187396613Y-83922781D01*
X187396614Y-83922785D01*
X187396613Y-83922785D01*
X187398536Y-83932449D01*
X187398537Y-83932454D01*
X187445685Y-84046281D01*
X187445690Y-84046290D01*
X187461892Y-84070537D01*
X187461893Y-84070538D01*
X187514140Y-84148731D01*
X187514141Y-84148732D01*
X187514142Y-84148733D01*
X187601267Y-84235858D01*
X187601268Y-84235858D01*
X187608335Y-84242925D01*
X187608334Y-84242925D01*
X187608338Y-84242928D01*
X188390331Y-85024922D01*
X188423816Y-85086245D01*
X188424267Y-85136794D01*
X188399500Y-85261304D01*
X188399500Y-85438695D01*
X188434103Y-85612658D01*
X188434106Y-85612667D01*
X188501983Y-85776540D01*
X188501990Y-85776553D01*
X188600535Y-85924034D01*
X188600538Y-85924038D01*
X188725961Y-86049461D01*
X188725965Y-86049464D01*
X188873446Y-86148009D01*
X188873459Y-86148016D01*
X188993441Y-86197713D01*
X189037334Y-86215894D01*
X189037336Y-86215894D01*
X189037341Y-86215896D01*
X189211304Y-86250499D01*
X189211307Y-86250500D01*
X189211309Y-86250500D01*
X189388693Y-86250500D01*
X189388694Y-86250499D01*
X189446682Y-86238964D01*
X189562658Y-86215896D01*
X189562661Y-86215894D01*
X189562666Y-86215894D01*
X189726547Y-86148013D01*
X189874035Y-86049464D01*
X189999464Y-85924035D01*
X190098013Y-85776547D01*
X190165894Y-85612666D01*
X190173696Y-85573446D01*
X190196696Y-85457816D01*
X190200500Y-85438691D01*
X190200500Y-85261309D01*
X190200500Y-85261306D01*
X190200499Y-85261304D01*
X190165896Y-85087341D01*
X190165893Y-85087332D01*
X190098016Y-84923459D01*
X190098009Y-84923446D01*
X189999464Y-84775965D01*
X189999461Y-84775961D01*
X189874038Y-84650538D01*
X189874034Y-84650535D01*
X189726553Y-84551990D01*
X189726540Y-84551983D01*
X189681103Y-84533163D01*
X189640874Y-84506283D01*
X188661819Y-83527228D01*
X188628334Y-83465905D01*
X188625500Y-83439547D01*
X188625500Y-80560452D01*
X188645185Y-80493413D01*
X188661819Y-80472771D01*
X189025854Y-80108737D01*
X189025857Y-80108734D01*
X189031572Y-80100181D01*
X189094311Y-80006286D01*
X189123472Y-79935886D01*
X189141463Y-79892452D01*
X189159882Y-79799851D01*
X189165500Y-79771607D01*
X189165500Y-79648394D01*
X189165500Y-76736114D01*
X189185185Y-76669075D01*
X189218575Y-76636398D01*
X189217668Y-76635150D01*
X189221605Y-76632289D01*
X189221610Y-76632287D01*
X189387219Y-76511966D01*
X189531966Y-76367219D01*
X189531968Y-76367215D01*
X189531971Y-76367213D01*
X189652284Y-76201614D01*
X189652283Y-76201614D01*
X189652287Y-76201610D01*
X189699795Y-76108369D01*
X189747770Y-76057574D01*
X189815591Y-76040779D01*
X189881725Y-76063316D01*
X189920765Y-76108370D01*
X189968140Y-76201349D01*
X190088417Y-76366894D01*
X190088417Y-76366895D01*
X190233104Y-76511582D01*
X190398650Y-76631859D01*
X190580968Y-76724754D01*
X190775578Y-76787988D01*
X190830000Y-76796607D01*
X190830000Y-75435686D01*
X190834394Y-75440080D01*
X190925606Y-75492741D01*
X191027339Y-75520000D01*
X191132661Y-75520000D01*
X191234394Y-75492741D01*
X191325606Y-75440080D01*
X191330000Y-75435686D01*
X191330000Y-76796606D01*
X191384421Y-76787988D01*
X191579031Y-76724754D01*
X191761349Y-76631859D01*
X191926894Y-76511582D01*
X191926895Y-76511582D01*
X192071582Y-76366895D01*
X192071582Y-76366894D01*
X192191859Y-76201349D01*
X192284755Y-76019031D01*
X192347990Y-75824417D01*
X192380000Y-75622317D01*
X192380000Y-75370000D01*
X191395686Y-75370000D01*
X191400080Y-75365606D01*
X191452741Y-75274394D01*
X191480000Y-75172661D01*
X191480000Y-75067339D01*
X191452741Y-74965606D01*
X191400080Y-74874394D01*
X191395686Y-74870000D01*
X192380000Y-74870000D01*
X192380000Y-74617682D01*
X192347990Y-74415582D01*
X192284755Y-74220968D01*
X192191859Y-74038650D01*
X192071582Y-73873105D01*
X192071582Y-73873104D01*
X191926895Y-73728417D01*
X191761349Y-73608140D01*
X191579029Y-73515244D01*
X191384413Y-73452009D01*
X191330000Y-73443390D01*
X191330000Y-74804314D01*
X191325606Y-74799920D01*
X191234394Y-74747259D01*
X191132661Y-74720000D01*
X191027339Y-74720000D01*
X190925606Y-74747259D01*
X190834394Y-74799920D01*
X190830000Y-74804314D01*
X190830000Y-73443390D01*
X190775586Y-73452009D01*
X190580970Y-73515244D01*
X190398650Y-73608140D01*
X190233105Y-73728417D01*
X190233104Y-73728417D01*
X190088417Y-73873104D01*
X190088417Y-73873105D01*
X189968140Y-74038650D01*
X189920765Y-74131629D01*
X189872790Y-74182425D01*
X189804969Y-74199220D01*
X189738834Y-74176682D01*
X189699795Y-74131629D01*
X189652419Y-74038650D01*
X189652287Y-74038390D01*
X189634670Y-74014142D01*
X189531971Y-73872786D01*
X189387213Y-73728028D01*
X189221613Y-73607715D01*
X189221612Y-73607714D01*
X189221610Y-73607713D01*
X189161898Y-73577288D01*
X189039223Y-73514781D01*
X188844534Y-73451522D01*
X188669995Y-73423878D01*
X188642352Y-73419500D01*
X188437648Y-73419500D01*
X188413329Y-73423351D01*
X188235465Y-73451522D01*
X188040776Y-73514781D01*
X187858386Y-73607715D01*
X187692786Y-73728028D01*
X187548028Y-73872786D01*
X187427715Y-74038386D01*
X187380485Y-74131080D01*
X187332510Y-74181876D01*
X187264689Y-74198671D01*
X187198554Y-74176134D01*
X187159515Y-74131080D01*
X187153861Y-74119983D01*
X187112287Y-74038390D01*
X187094670Y-74014142D01*
X186991971Y-73872786D01*
X186847213Y-73728028D01*
X186681613Y-73607715D01*
X186681612Y-73607714D01*
X186681610Y-73607713D01*
X186621898Y-73577288D01*
X186499223Y-73514781D01*
X186304534Y-73451522D01*
X186129995Y-73423878D01*
X186102352Y-73419500D01*
X185897648Y-73419500D01*
X185873329Y-73423351D01*
X185695465Y-73451522D01*
X185500776Y-73514781D01*
X185318386Y-73607715D01*
X185152786Y-73728028D01*
X185008032Y-73872782D01*
X185008028Y-73872787D01*
X184939978Y-73966451D01*
X184884648Y-74009117D01*
X184815035Y-74015096D01*
X184753240Y-73982490D01*
X184721954Y-73932570D01*
X184714426Y-73909851D01*
X184694814Y-73850666D01*
X184602712Y-73701344D01*
X184478656Y-73577288D01*
X184329334Y-73485186D01*
X184162797Y-73430001D01*
X184162795Y-73430000D01*
X184060010Y-73419500D01*
X182859998Y-73419500D01*
X182859981Y-73419501D01*
X182757203Y-73430000D01*
X182757200Y-73430001D01*
X182590668Y-73485185D01*
X182590663Y-73485187D01*
X182441342Y-73577289D01*
X182317289Y-73701342D01*
X182225187Y-73850663D01*
X182225186Y-73850666D01*
X182170001Y-74017203D01*
X182170001Y-74017204D01*
X182170000Y-74017204D01*
X182159500Y-74119983D01*
X181125500Y-74119983D01*
X181125500Y-66997648D01*
X182159500Y-66997648D01*
X182159500Y-68002351D01*
X182191522Y-68204534D01*
X182254781Y-68399223D01*
X182347715Y-68581613D01*
X182468028Y-68747213D01*
X182612786Y-68891971D01*
X182730509Y-68977500D01*
X182778390Y-69012287D01*
X182854192Y-69050910D01*
X182960776Y-69105218D01*
X182960778Y-69105218D01*
X182960781Y-69105220D01*
X183029352Y-69127500D01*
X183155465Y-69168477D01*
X183256557Y-69184488D01*
X183357648Y-69200500D01*
X183357649Y-69200500D01*
X183562351Y-69200500D01*
X183562352Y-69200500D01*
X183764534Y-69168477D01*
X183959219Y-69105220D01*
X184141610Y-69012287D01*
X184234590Y-68944732D01*
X184307213Y-68891971D01*
X184307215Y-68891968D01*
X184307219Y-68891966D01*
X184451966Y-68747219D01*
X184451968Y-68747215D01*
X184451971Y-68747213D01*
X184572284Y-68581614D01*
X184572285Y-68581613D01*
X184572287Y-68581610D01*
X184619516Y-68488917D01*
X184667489Y-68438123D01*
X184735310Y-68421328D01*
X184801445Y-68443865D01*
X184840485Y-68488919D01*
X184887715Y-68581614D01*
X185008028Y-68747213D01*
X185152786Y-68891971D01*
X185270509Y-68977500D01*
X185318390Y-69012287D01*
X185394192Y-69050910D01*
X185500776Y-69105218D01*
X185500778Y-69105218D01*
X185500781Y-69105220D01*
X185569352Y-69127500D01*
X185695465Y-69168477D01*
X185796557Y-69184488D01*
X185897648Y-69200500D01*
X185897649Y-69200500D01*
X186102351Y-69200500D01*
X186102352Y-69200500D01*
X186304534Y-69168477D01*
X186499219Y-69105220D01*
X186681610Y-69012287D01*
X186774590Y-68944732D01*
X186847213Y-68891971D01*
X186847215Y-68891968D01*
X186847219Y-68891966D01*
X186991966Y-68747219D01*
X186991968Y-68747215D01*
X186991971Y-68747213D01*
X187112284Y-68581614D01*
X187112285Y-68581613D01*
X187112287Y-68581610D01*
X187159516Y-68488917D01*
X187207489Y-68438123D01*
X187275310Y-68421328D01*
X187341445Y-68443865D01*
X187380485Y-68488919D01*
X187427715Y-68581614D01*
X187548028Y-68747213D01*
X187692786Y-68891971D01*
X187810509Y-68977500D01*
X187858390Y-69012287D01*
X187934192Y-69050910D01*
X188040776Y-69105218D01*
X188040778Y-69105218D01*
X188040781Y-69105220D01*
X188109352Y-69127500D01*
X188235465Y-69168477D01*
X188336557Y-69184488D01*
X188437648Y-69200500D01*
X188437649Y-69200500D01*
X188642351Y-69200500D01*
X188642352Y-69200500D01*
X188844534Y-69168477D01*
X189039219Y-69105220D01*
X189221610Y-69012287D01*
X189314590Y-68944732D01*
X189387213Y-68891971D01*
X189387215Y-68891968D01*
X189387219Y-68891966D01*
X189531966Y-68747219D01*
X189531968Y-68747215D01*
X189531971Y-68747213D01*
X189652284Y-68581614D01*
X189652285Y-68581613D01*
X189652287Y-68581610D01*
X189699516Y-68488917D01*
X189747489Y-68438123D01*
X189815310Y-68421328D01*
X189881445Y-68443865D01*
X189920485Y-68488919D01*
X189967715Y-68581614D01*
X190088028Y-68747213D01*
X190232786Y-68891971D01*
X190350509Y-68977500D01*
X190398390Y-69012287D01*
X190474192Y-69050910D01*
X190580776Y-69105218D01*
X190580778Y-69105218D01*
X190580781Y-69105220D01*
X190649352Y-69127500D01*
X190775465Y-69168477D01*
X190876557Y-69184488D01*
X190977648Y-69200500D01*
X190977649Y-69200500D01*
X191182351Y-69200500D01*
X191182352Y-69200500D01*
X191384534Y-69168477D01*
X191579219Y-69105220D01*
X191761610Y-69012287D01*
X191854590Y-68944732D01*
X191927213Y-68891971D01*
X191927215Y-68891968D01*
X191927219Y-68891966D01*
X192071966Y-68747219D01*
X192071968Y-68747215D01*
X192071971Y-68747213D01*
X192160655Y-68625148D01*
X192192287Y-68581610D01*
X192285220Y-68399219D01*
X192348477Y-68204534D01*
X192380500Y-68002352D01*
X192380500Y-66997648D01*
X192348477Y-66795465D01*
X192285218Y-66600776D01*
X192239515Y-66511080D01*
X192192287Y-66418390D01*
X192184556Y-66407749D01*
X192071971Y-66252786D01*
X191927213Y-66108028D01*
X191761613Y-65987715D01*
X191761612Y-65987714D01*
X191761610Y-65987713D01*
X191704653Y-65958691D01*
X191579223Y-65894781D01*
X191384534Y-65831522D01*
X191206420Y-65803312D01*
X191182352Y-65799500D01*
X190977648Y-65799500D01*
X190971101Y-65800537D01*
X190775465Y-65831522D01*
X190580776Y-65894781D01*
X190398386Y-65987715D01*
X190232786Y-66108028D01*
X190088028Y-66252786D01*
X189967715Y-66418386D01*
X189920485Y-66511080D01*
X189872510Y-66561876D01*
X189804689Y-66578671D01*
X189738554Y-66556134D01*
X189699515Y-66511080D01*
X189685763Y-66484090D01*
X189652287Y-66418390D01*
X189644556Y-66407749D01*
X189531971Y-66252786D01*
X189387213Y-66108028D01*
X189221613Y-65987715D01*
X189221612Y-65987714D01*
X189221610Y-65987713D01*
X189164653Y-65958691D01*
X189039223Y-65894781D01*
X188844534Y-65831522D01*
X188666420Y-65803312D01*
X188642352Y-65799500D01*
X188437648Y-65799500D01*
X188431101Y-65800537D01*
X188235465Y-65831522D01*
X188040776Y-65894781D01*
X187858386Y-65987715D01*
X187692786Y-66108028D01*
X187548028Y-66252786D01*
X187427715Y-66418386D01*
X187380485Y-66511080D01*
X187332510Y-66561876D01*
X187264689Y-66578671D01*
X187198554Y-66556134D01*
X187159515Y-66511080D01*
X187145763Y-66484090D01*
X187112287Y-66418390D01*
X187104556Y-66407749D01*
X186991971Y-66252786D01*
X186847213Y-66108028D01*
X186681613Y-65987715D01*
X186681612Y-65987714D01*
X186681610Y-65987713D01*
X186624653Y-65958691D01*
X186499223Y-65894781D01*
X186304534Y-65831522D01*
X186126420Y-65803312D01*
X186102352Y-65799500D01*
X185897648Y-65799500D01*
X185891101Y-65800537D01*
X185695465Y-65831522D01*
X185500776Y-65894781D01*
X185318386Y-65987715D01*
X185152786Y-66108028D01*
X185008028Y-66252786D01*
X184887715Y-66418386D01*
X184840485Y-66511080D01*
X184792510Y-66561876D01*
X184724689Y-66578671D01*
X184658554Y-66556134D01*
X184619515Y-66511080D01*
X184605763Y-66484090D01*
X184572287Y-66418390D01*
X184564556Y-66407749D01*
X184451971Y-66252786D01*
X184307213Y-66108028D01*
X184141613Y-65987715D01*
X184141612Y-65987714D01*
X184141610Y-65987713D01*
X184084653Y-65958691D01*
X183959223Y-65894781D01*
X183764534Y-65831522D01*
X183586420Y-65803312D01*
X183562352Y-65799500D01*
X183357648Y-65799500D01*
X183351101Y-65800537D01*
X183155465Y-65831522D01*
X182960776Y-65894781D01*
X182778386Y-65987715D01*
X182612786Y-66108028D01*
X182468028Y-66252786D01*
X182347715Y-66418386D01*
X182254781Y-66600776D01*
X182191522Y-66795465D01*
X182159500Y-66997648D01*
X181125500Y-66997648D01*
X181125500Y-59602135D01*
X181899500Y-59602135D01*
X181899500Y-61397870D01*
X181899501Y-61397876D01*
X181905908Y-61457483D01*
X181956202Y-61592328D01*
X181956206Y-61592335D01*
X182042452Y-61707544D01*
X182042455Y-61707547D01*
X182157664Y-61793793D01*
X182157671Y-61793797D01*
X182292517Y-61844091D01*
X182292516Y-61844091D01*
X182299444Y-61844835D01*
X182352127Y-61850500D01*
X184147872Y-61850499D01*
X184207483Y-61844091D01*
X184342331Y-61793796D01*
X184457546Y-61707546D01*
X184543796Y-61592331D01*
X184592810Y-61460916D01*
X184634681Y-61404984D01*
X184700145Y-61380566D01*
X184768418Y-61395417D01*
X184796673Y-61416569D01*
X184910213Y-61530109D01*
X185082179Y-61655048D01*
X185082181Y-61655049D01*
X185082184Y-61655051D01*
X185271588Y-61751557D01*
X185473757Y-61817246D01*
X185683713Y-61850500D01*
X185683714Y-61850500D01*
X185896286Y-61850500D01*
X185896287Y-61850500D01*
X186106243Y-61817246D01*
X186308412Y-61751557D01*
X186497816Y-61655051D01*
X186584138Y-61592335D01*
X186669786Y-61530109D01*
X186669788Y-61530106D01*
X186669792Y-61530104D01*
X186820104Y-61379792D01*
X186820106Y-61379788D01*
X186820109Y-61379786D01*
X186945048Y-61207820D01*
X186945047Y-61207820D01*
X186945051Y-61207816D01*
X187041557Y-61018412D01*
X187107246Y-60816243D01*
X187140500Y-60606287D01*
X187140500Y-60393713D01*
X187107246Y-60183757D01*
X187041557Y-59981588D01*
X186945051Y-59792184D01*
X186945049Y-59792181D01*
X186945048Y-59792179D01*
X186820109Y-59620213D01*
X186669786Y-59469890D01*
X186497820Y-59344951D01*
X186308414Y-59248444D01*
X186308413Y-59248443D01*
X186308412Y-59248443D01*
X186106243Y-59182754D01*
X186106241Y-59182753D01*
X186106240Y-59182753D01*
X185944957Y-59157208D01*
X185896287Y-59149500D01*
X185683713Y-59149500D01*
X185635042Y-59157208D01*
X185473760Y-59182753D01*
X185271585Y-59248444D01*
X185082179Y-59344951D01*
X184910215Y-59469889D01*
X184796673Y-59583431D01*
X184735350Y-59616915D01*
X184665658Y-59611931D01*
X184609725Y-59570059D01*
X184592810Y-59539082D01*
X184543797Y-59407671D01*
X184543793Y-59407664D01*
X184457547Y-59292455D01*
X184457544Y-59292452D01*
X184342335Y-59206206D01*
X184342328Y-59206202D01*
X184207482Y-59155908D01*
X184207483Y-59155908D01*
X184147883Y-59149501D01*
X184147881Y-59149500D01*
X184147873Y-59149500D01*
X184147864Y-59149500D01*
X182352129Y-59149500D01*
X182352123Y-59149501D01*
X182292516Y-59155908D01*
X182157671Y-59206202D01*
X182157664Y-59206206D01*
X182042455Y-59292452D01*
X182042452Y-59292455D01*
X181956206Y-59407664D01*
X181956202Y-59407671D01*
X181905908Y-59542517D01*
X181899501Y-59602116D01*
X181899500Y-59602135D01*
X181125500Y-59602135D01*
X181125500Y-56393713D01*
X181859500Y-56393713D01*
X181859500Y-56606287D01*
X181867359Y-56655908D01*
X181890854Y-56804251D01*
X181892754Y-56816243D01*
X181958123Y-57017428D01*
X181958444Y-57018414D01*
X182054951Y-57207820D01*
X182179890Y-57379786D01*
X182330213Y-57530109D01*
X182502179Y-57655048D01*
X182502181Y-57655049D01*
X182502184Y-57655051D01*
X182691588Y-57751557D01*
X182893757Y-57817246D01*
X183103713Y-57850500D01*
X183103714Y-57850500D01*
X183316286Y-57850500D01*
X183316287Y-57850500D01*
X183526243Y-57817246D01*
X183728412Y-57751557D01*
X183917816Y-57655051D01*
X184030127Y-57573453D01*
X184089784Y-57530110D01*
X184089784Y-57530109D01*
X184089792Y-57530104D01*
X184203329Y-57416566D01*
X184264648Y-57383084D01*
X184334340Y-57388068D01*
X184390274Y-57429939D01*
X184407189Y-57460917D01*
X184456202Y-57592328D01*
X184456206Y-57592335D01*
X184542452Y-57707544D01*
X184542455Y-57707547D01*
X184657664Y-57793793D01*
X184657671Y-57793797D01*
X184792517Y-57844091D01*
X184792516Y-57844091D01*
X184799444Y-57844835D01*
X184852127Y-57850500D01*
X186647872Y-57850499D01*
X186707483Y-57844091D01*
X186842331Y-57793796D01*
X186957546Y-57707546D01*
X187043796Y-57592331D01*
X187094091Y-57457483D01*
X187100500Y-57397873D01*
X187100499Y-55602128D01*
X187094091Y-55542517D01*
X187092810Y-55539083D01*
X187043797Y-55407671D01*
X187043793Y-55407664D01*
X186957547Y-55292455D01*
X186957544Y-55292452D01*
X186842335Y-55206206D01*
X186842328Y-55206202D01*
X186707482Y-55155908D01*
X186707483Y-55155908D01*
X186647883Y-55149501D01*
X186647881Y-55149500D01*
X186647873Y-55149500D01*
X186647864Y-55149500D01*
X184852129Y-55149500D01*
X184852123Y-55149501D01*
X184792516Y-55155908D01*
X184657671Y-55206202D01*
X184657664Y-55206206D01*
X184542455Y-55292452D01*
X184542452Y-55292455D01*
X184456206Y-55407664D01*
X184456203Y-55407669D01*
X184407189Y-55539083D01*
X184365317Y-55595016D01*
X184299853Y-55619433D01*
X184231580Y-55604581D01*
X184203326Y-55583430D01*
X184089786Y-55469890D01*
X183917820Y-55344951D01*
X183728414Y-55248444D01*
X183728413Y-55248443D01*
X183728412Y-55248443D01*
X183526243Y-55182754D01*
X183526241Y-55182753D01*
X183526240Y-55182753D01*
X183364957Y-55157208D01*
X183316287Y-55149500D01*
X183103713Y-55149500D01*
X183055042Y-55157208D01*
X182893760Y-55182753D01*
X182691585Y-55248444D01*
X182502179Y-55344951D01*
X182330213Y-55469890D01*
X182179890Y-55620213D01*
X182054951Y-55792179D01*
X181958444Y-55981585D01*
X181892753Y-56183760D01*
X181876647Y-56285452D01*
X181859500Y-56393713D01*
X181125500Y-56393713D01*
X181125500Y-46688394D01*
X181101463Y-46567548D01*
X181054311Y-46453714D01*
X181054310Y-46453713D01*
X181054307Y-46453707D01*
X180985858Y-46351267D01*
X180985855Y-46351263D01*
X180895637Y-46261045D01*
X180895606Y-46261016D01*
X175743150Y-41108560D01*
X175735860Y-41101270D01*
X175735858Y-41101267D01*
X175648733Y-41014142D01*
X175597509Y-40979915D01*
X175546286Y-40945688D01*
X175546283Y-40945686D01*
X175546280Y-40945685D01*
X175472603Y-40915168D01*
X175472601Y-40915167D01*
X175465792Y-40912347D01*
X175432452Y-40898537D01*
X175372029Y-40886518D01*
X175367306Y-40885578D01*
X175367304Y-40885578D01*
X175311610Y-40874500D01*
X175311607Y-40874500D01*
X175311606Y-40874500D01*
X170060452Y-40874500D01*
X169993413Y-40854815D01*
X169972771Y-40838181D01*
X169661819Y-40527229D01*
X169628334Y-40465906D01*
X169625500Y-40439548D01*
X169625500Y-39246726D01*
X169625499Y-39246722D01*
X169623181Y-39235070D01*
X169601463Y-39125881D01*
X169568138Y-39045428D01*
X169554312Y-39012048D01*
X169537256Y-38986523D01*
X169516955Y-38956140D01*
X169496079Y-38889466D01*
X169505497Y-38839804D01*
X169526908Y-38788117D01*
X169583584Y-38576598D01*
X169612167Y-38359490D01*
X169612167Y-38140510D01*
X169612166Y-38140502D01*
X173079500Y-38140502D01*
X173079500Y-38359497D01*
X173103306Y-38540314D01*
X173108083Y-38576598D01*
X173117426Y-38611466D01*
X173164758Y-38788115D01*
X173164759Y-38788117D01*
X173248560Y-38990428D01*
X173248562Y-38990431D01*
X173248565Y-38990438D01*
X173358049Y-39180070D01*
X173491355Y-39353798D01*
X173491361Y-39353805D01*
X173646194Y-39508638D01*
X173646201Y-39508644D01*
X173819929Y-39641950D01*
X174009561Y-39751434D01*
X174009563Y-39751434D01*
X174009572Y-39751440D01*
X174211883Y-39835241D01*
X174423402Y-39891917D01*
X174640510Y-39920500D01*
X174640517Y-39920500D01*
X174859483Y-39920500D01*
X174859490Y-39920500D01*
X175076598Y-39891917D01*
X175288117Y-39835241D01*
X175490428Y-39751440D01*
X175680071Y-39641950D01*
X175853800Y-39508643D01*
X176008643Y-39353800D01*
X176141950Y-39180071D01*
X176251440Y-38990428D01*
X176263368Y-38961632D01*
X176267338Y-38952048D01*
X176311179Y-38897644D01*
X176377473Y-38875579D01*
X176381899Y-38875500D01*
X178118101Y-38875500D01*
X178185140Y-38895185D01*
X178230895Y-38947989D01*
X178232662Y-38952048D01*
X178248554Y-38990416D01*
X178248561Y-38990431D01*
X178358049Y-39180070D01*
X178491355Y-39353798D01*
X178491361Y-39353805D01*
X178646194Y-39508638D01*
X178646201Y-39508644D01*
X178819929Y-39641950D01*
X179009561Y-39751434D01*
X179009563Y-39751434D01*
X179009572Y-39751440D01*
X179211883Y-39835241D01*
X179423402Y-39891917D01*
X179640510Y-39920500D01*
X179640517Y-39920500D01*
X179859483Y-39920500D01*
X179859490Y-39920500D01*
X180076598Y-39891917D01*
X180288117Y-39835241D01*
X180326497Y-39819342D01*
X180395966Y-39811873D01*
X180458445Y-39843147D01*
X180461632Y-39846222D01*
X194608181Y-53992771D01*
X194641666Y-54054094D01*
X194644500Y-54080452D01*
X194644500Y-68999548D01*
X194624815Y-69066587D01*
X194608181Y-69087229D01*
X193047229Y-70648181D01*
X192985906Y-70681666D01*
X192959548Y-70684500D01*
X190949361Y-70684500D01*
X190882322Y-70664815D01*
X190861679Y-70648180D01*
X190824038Y-70610538D01*
X190824034Y-70610535D01*
X190676553Y-70511990D01*
X190676540Y-70511983D01*
X190512667Y-70444106D01*
X190512658Y-70444103D01*
X190338694Y-70409500D01*
X190338691Y-70409500D01*
X190161309Y-70409500D01*
X190161306Y-70409500D01*
X189987341Y-70444103D01*
X189987332Y-70444106D01*
X189823459Y-70511983D01*
X189823446Y-70511990D01*
X189675965Y-70610535D01*
X189675961Y-70610538D01*
X189550538Y-70735961D01*
X189550535Y-70735965D01*
X189451990Y-70883446D01*
X189451983Y-70883459D01*
X189384106Y-71047332D01*
X189384103Y-71047341D01*
X189349500Y-71221304D01*
X189349500Y-71398695D01*
X189384103Y-71572658D01*
X189384106Y-71572667D01*
X189451983Y-71736540D01*
X189451990Y-71736553D01*
X189550535Y-71884034D01*
X189550538Y-71884038D01*
X189675961Y-72009461D01*
X189675965Y-72009464D01*
X189823446Y-72108009D01*
X189823459Y-72108016D01*
X189946363Y-72158923D01*
X189987334Y-72175894D01*
X189987336Y-72175894D01*
X189987341Y-72175896D01*
X190161304Y-72210499D01*
X190161307Y-72210500D01*
X190161309Y-72210500D01*
X190338693Y-72210500D01*
X190338694Y-72210499D01*
X190396682Y-72198964D01*
X190512658Y-72175896D01*
X190512661Y-72175894D01*
X190512666Y-72175894D01*
X190676547Y-72108013D01*
X190824035Y-72009464D01*
X190861679Y-71971820D01*
X190923001Y-71938334D01*
X190949361Y-71935500D01*
X193331608Y-71935500D01*
X193331608Y-71935499D01*
X193418637Y-71918189D01*
X193452452Y-71911463D01*
X193485792Y-71897652D01*
X193566286Y-71864312D01*
X193627434Y-71823453D01*
X193668733Y-71795858D01*
X193755858Y-71708733D01*
X193755859Y-71708731D01*
X193762925Y-71701665D01*
X193762928Y-71701661D01*
X195668729Y-69795860D01*
X195668733Y-69795858D01*
X195755858Y-69708733D01*
X195795949Y-69648733D01*
X195824312Y-69606286D01*
X195871463Y-69492451D01*
X195895500Y-69371607D01*
X195895500Y-69248393D01*
X195895500Y-53708394D01*
X195871463Y-53587548D01*
X195824311Y-53473714D01*
X195824310Y-53473713D01*
X195824307Y-53473707D01*
X195755859Y-53371268D01*
X195755858Y-53371267D01*
X195668733Y-53284142D01*
X195668732Y-53284141D01*
X181346221Y-38961631D01*
X181312737Y-38900309D01*
X181317721Y-38830617D01*
X181319343Y-38826496D01*
X181335241Y-38788116D01*
X181391917Y-38576598D01*
X181420500Y-38359490D01*
X181420500Y-38140510D01*
X181420499Y-38140502D01*
X183079500Y-38140502D01*
X183079500Y-38359497D01*
X183103306Y-38540314D01*
X183108083Y-38576598D01*
X183117426Y-38611466D01*
X183164758Y-38788115D01*
X183164759Y-38788117D01*
X183248560Y-38990428D01*
X183248562Y-38990431D01*
X183248565Y-38990438D01*
X183358049Y-39180070D01*
X183491355Y-39353798D01*
X183491361Y-39353805D01*
X183646194Y-39508638D01*
X183646201Y-39508644D01*
X183819929Y-39641950D01*
X184009561Y-39751434D01*
X184009563Y-39751434D01*
X184009572Y-39751440D01*
X184211883Y-39835241D01*
X184423402Y-39891917D01*
X184640510Y-39920500D01*
X184640517Y-39920500D01*
X184859483Y-39920500D01*
X184859490Y-39920500D01*
X185076598Y-39891917D01*
X185288117Y-39835241D01*
X185490428Y-39751440D01*
X185680071Y-39641950D01*
X185853800Y-39508643D01*
X186008643Y-39353800D01*
X186141950Y-39180071D01*
X186251440Y-38990428D01*
X186335241Y-38788117D01*
X186391917Y-38576598D01*
X186416674Y-38388549D01*
X203549500Y-38388549D01*
X203549500Y-38611450D01*
X203549501Y-38611466D01*
X203578594Y-38832452D01*
X203578595Y-38832457D01*
X203578596Y-38832463D01*
X203635659Y-39045426D01*
X203636290Y-39047780D01*
X203636293Y-39047790D01*
X203718696Y-39246727D01*
X203721595Y-39253726D01*
X203833052Y-39446774D01*
X203833057Y-39446780D01*
X203833058Y-39446782D01*
X203968751Y-39623622D01*
X203968757Y-39623629D01*
X204126370Y-39781242D01*
X204126377Y-39781248D01*
X204221249Y-39854045D01*
X204303226Y-39916948D01*
X204496274Y-40028405D01*
X204702219Y-40113710D01*
X204917537Y-40171404D01*
X205138543Y-40200500D01*
X205138550Y-40200500D01*
X205361450Y-40200500D01*
X205361457Y-40200500D01*
X205582463Y-40171404D01*
X205797781Y-40113710D01*
X206003726Y-40028405D01*
X206196774Y-39916948D01*
X206373624Y-39781247D01*
X206531247Y-39623624D01*
X206666948Y-39446774D01*
X206778405Y-39253726D01*
X206863710Y-39047781D01*
X206921404Y-38832463D01*
X206950500Y-38611457D01*
X206950500Y-38388543D01*
X206921404Y-38167537D01*
X206863710Y-37952219D01*
X206778405Y-37746274D01*
X206666948Y-37553226D01*
X206531247Y-37376376D01*
X206531242Y-37376370D01*
X206373629Y-37218757D01*
X206373622Y-37218751D01*
X206196782Y-37083058D01*
X206196780Y-37083057D01*
X206196774Y-37083052D01*
X206003726Y-36971595D01*
X206003722Y-36971593D01*
X205797790Y-36886293D01*
X205797783Y-36886291D01*
X205797781Y-36886290D01*
X205582463Y-36828596D01*
X205582457Y-36828595D01*
X205582452Y-36828594D01*
X205361466Y-36799501D01*
X205361463Y-36799500D01*
X205361457Y-36799500D01*
X205138543Y-36799500D01*
X205138537Y-36799500D01*
X205138533Y-36799501D01*
X204917547Y-36828594D01*
X204917540Y-36828595D01*
X204917537Y-36828596D01*
X204807613Y-36858050D01*
X204702219Y-36886290D01*
X204702209Y-36886293D01*
X204496277Y-36971593D01*
X204496273Y-36971595D01*
X204303226Y-37083052D01*
X204303217Y-37083058D01*
X204126377Y-37218751D01*
X204126370Y-37218757D01*
X203968757Y-37376370D01*
X203968751Y-37376377D01*
X203833058Y-37553217D01*
X203833052Y-37553226D01*
X203721595Y-37746273D01*
X203721593Y-37746277D01*
X203636293Y-37952209D01*
X203636290Y-37952219D01*
X203578597Y-38167534D01*
X203578594Y-38167547D01*
X203549501Y-38388533D01*
X203549500Y-38388549D01*
X186416674Y-38388549D01*
X186420500Y-38359490D01*
X186420500Y-38140510D01*
X186391917Y-37923402D01*
X186335241Y-37711883D01*
X186251440Y-37509572D01*
X186141950Y-37319929D01*
X186050846Y-37201200D01*
X186008644Y-37146201D01*
X186008638Y-37146194D01*
X185853805Y-36991361D01*
X185853798Y-36991355D01*
X185680070Y-36858049D01*
X185490438Y-36748565D01*
X185490433Y-36748562D01*
X185490428Y-36748560D01*
X185288117Y-36664759D01*
X185288118Y-36664759D01*
X185288115Y-36664758D01*
X185175188Y-36634500D01*
X185076598Y-36608083D01*
X185040314Y-36603306D01*
X184859497Y-36579500D01*
X184859490Y-36579500D01*
X184640510Y-36579500D01*
X184640502Y-36579500D01*
X184433853Y-36606707D01*
X184423402Y-36608083D01*
X184378699Y-36620060D01*
X184211884Y-36664758D01*
X184093374Y-36713847D01*
X184009572Y-36748560D01*
X184009569Y-36748561D01*
X184009561Y-36748565D01*
X183819929Y-36858049D01*
X183646201Y-36991355D01*
X183646194Y-36991361D01*
X183491361Y-37146194D01*
X183491355Y-37146201D01*
X183358049Y-37319929D01*
X183248565Y-37509561D01*
X183248562Y-37509568D01*
X183248560Y-37509572D01*
X183230478Y-37553226D01*
X183164758Y-37711884D01*
X183108084Y-37923399D01*
X183108082Y-37923410D01*
X183079500Y-38140502D01*
X181420499Y-38140502D01*
X181391917Y-37923402D01*
X181335241Y-37711883D01*
X181251440Y-37509572D01*
X181141950Y-37319929D01*
X181050846Y-37201200D01*
X181008644Y-37146201D01*
X181008638Y-37146194D01*
X180853805Y-36991361D01*
X180853798Y-36991355D01*
X180680070Y-36858049D01*
X180490438Y-36748565D01*
X180490433Y-36748562D01*
X180490428Y-36748560D01*
X180288117Y-36664759D01*
X180288118Y-36664759D01*
X180288115Y-36664758D01*
X180175188Y-36634500D01*
X180076598Y-36608083D01*
X180040314Y-36603306D01*
X179859497Y-36579500D01*
X179859490Y-36579500D01*
X179640510Y-36579500D01*
X179640502Y-36579500D01*
X179433853Y-36606707D01*
X179423402Y-36608083D01*
X179378699Y-36620060D01*
X179211884Y-36664758D01*
X179093374Y-36713847D01*
X179009572Y-36748560D01*
X179009569Y-36748561D01*
X179009561Y-36748565D01*
X178819929Y-36858049D01*
X178646201Y-36991355D01*
X178646194Y-36991361D01*
X178491361Y-37146194D01*
X178491355Y-37146201D01*
X178358049Y-37319929D01*
X178248561Y-37509568D01*
X178248554Y-37509583D01*
X178232662Y-37547952D01*
X178188821Y-37602356D01*
X178122527Y-37624421D01*
X178118101Y-37624500D01*
X176381899Y-37624500D01*
X176314860Y-37604815D01*
X176269105Y-37552011D01*
X176267338Y-37547952D01*
X176251445Y-37509583D01*
X176251438Y-37509568D01*
X176141950Y-37319929D01*
X176008644Y-37146201D01*
X176008638Y-37146194D01*
X175853805Y-36991361D01*
X175853798Y-36991355D01*
X175680070Y-36858049D01*
X175490438Y-36748565D01*
X175490433Y-36748562D01*
X175490428Y-36748560D01*
X175288117Y-36664759D01*
X175288118Y-36664759D01*
X175288115Y-36664758D01*
X175175188Y-36634500D01*
X175076598Y-36608083D01*
X175040314Y-36603306D01*
X174859497Y-36579500D01*
X174859490Y-36579500D01*
X174640510Y-36579500D01*
X174640502Y-36579500D01*
X174433853Y-36606707D01*
X174423402Y-36608083D01*
X174378699Y-36620060D01*
X174211884Y-36664758D01*
X174093374Y-36713847D01*
X174009572Y-36748560D01*
X174009569Y-36748561D01*
X174009561Y-36748565D01*
X173819929Y-36858049D01*
X173646201Y-36991355D01*
X173646194Y-36991361D01*
X173491361Y-37146194D01*
X173491355Y-37146201D01*
X173358049Y-37319929D01*
X173248565Y-37509561D01*
X173248562Y-37509568D01*
X173248560Y-37509572D01*
X173230478Y-37553226D01*
X173164758Y-37711884D01*
X173108084Y-37923399D01*
X173108082Y-37923410D01*
X173079500Y-38140502D01*
X169612166Y-38140502D01*
X169583584Y-37923402D01*
X169526908Y-37711883D01*
X169443107Y-37509572D01*
X169333617Y-37319929D01*
X169242513Y-37201200D01*
X169200311Y-37146201D01*
X169200305Y-37146194D01*
X169045472Y-36991361D01*
X169045465Y-36991355D01*
X168871737Y-36858049D01*
X168682105Y-36748565D01*
X168682100Y-36748562D01*
X168682095Y-36748560D01*
X168479784Y-36664759D01*
X168479785Y-36664759D01*
X168479782Y-36664758D01*
X168366855Y-36634500D01*
X168268265Y-36608083D01*
X168231981Y-36603306D01*
X168051164Y-36579500D01*
X168051157Y-36579500D01*
X167832177Y-36579500D01*
X167832169Y-36579500D01*
X167625520Y-36606707D01*
X167615069Y-36608083D01*
X167570366Y-36620060D01*
X167403551Y-36664758D01*
X167285041Y-36713847D01*
X167201239Y-36748560D01*
X167201236Y-36748561D01*
X167201228Y-36748565D01*
X167011596Y-36858049D01*
X166837868Y-36991355D01*
X166837861Y-36991361D01*
X166683028Y-37146194D01*
X166683022Y-37146201D01*
X166549716Y-37319929D01*
X166440232Y-37509561D01*
X166440229Y-37509568D01*
X166440227Y-37509572D01*
X166422145Y-37553226D01*
X166356425Y-37711884D01*
X166299751Y-37923399D01*
X166299749Y-37923410D01*
X166271167Y-38140502D01*
X166271167Y-38359497D01*
X166294973Y-38540314D01*
X166299750Y-38576598D01*
X166309093Y-38611466D01*
X166356425Y-38788115D01*
X166356426Y-38788117D01*
X166440227Y-38990428D01*
X166440229Y-38990431D01*
X166440232Y-38990438D01*
X166549716Y-39180070D01*
X166683022Y-39353798D01*
X166683028Y-39353805D01*
X166837861Y-39508638D01*
X166837868Y-39508644D01*
X167011596Y-39641950D01*
X167201228Y-39751434D01*
X167201230Y-39751434D01*
X167201239Y-39751440D01*
X167403550Y-39835241D01*
X167615069Y-39891917D01*
X167832177Y-39920500D01*
X167832184Y-39920500D01*
X168051150Y-39920500D01*
X168051157Y-39920500D01*
X168234316Y-39896386D01*
X168303349Y-39907151D01*
X168355605Y-39953531D01*
X168374500Y-40019325D01*
X168374500Y-40811611D01*
X168398535Y-40932444D01*
X168398540Y-40932461D01*
X168445685Y-41046280D01*
X168445687Y-41046283D01*
X168445688Y-41046286D01*
X168479915Y-41097509D01*
X168514142Y-41148733D01*
X168601267Y-41235858D01*
X168601270Y-41235860D01*
X168608554Y-41243144D01*
X169261016Y-41895606D01*
X169261045Y-41895637D01*
X169351263Y-41985855D01*
X169351267Y-41985858D01*
X169453707Y-42054307D01*
X169453713Y-42054310D01*
X169453714Y-42054311D01*
X169567548Y-42101463D01*
X169627971Y-42113481D01*
X169688393Y-42125500D01*
X169688394Y-42125500D01*
X174939548Y-42125500D01*
X175006587Y-42145185D01*
X175027229Y-42161819D01*
X179838181Y-46972771D01*
X179871666Y-47034094D01*
X179874500Y-47060452D01*
X179874500Y-78229548D01*
X179854815Y-78296587D01*
X179838181Y-78317229D01*
X178690412Y-79464997D01*
X178629089Y-79498482D01*
X178559397Y-79493498D01*
X178503464Y-79451626D01*
X178480258Y-79396711D01*
X178478477Y-79385466D01*
X178415220Y-79190781D01*
X178415218Y-79190778D01*
X178415218Y-79190776D01*
X178363865Y-79089991D01*
X178322287Y-79008390D01*
X178271679Y-78938733D01*
X178201971Y-78842786D01*
X178057213Y-78698028D01*
X177891613Y-78577715D01*
X177891612Y-78577714D01*
X177891610Y-78577713D01*
X177798357Y-78530198D01*
X177709223Y-78484781D01*
X177514534Y-78421522D01*
X177339995Y-78393878D01*
X177312352Y-78389500D01*
X176307648Y-78389500D01*
X176283329Y-78393351D01*
X176105465Y-78421522D01*
X175910776Y-78484781D01*
X175728386Y-78577715D01*
X175562786Y-78698028D01*
X175418028Y-78842786D01*
X175297715Y-79008386D01*
X175204781Y-79190776D01*
X175141522Y-79385465D01*
X175109500Y-79587648D01*
X175109500Y-79792352D01*
X175110688Y-79799851D01*
X175141522Y-79994534D01*
X175204781Y-80189223D01*
X175297715Y-80371613D01*
X175418028Y-80537213D01*
X175562786Y-80681971D01*
X175717749Y-80794556D01*
X175728390Y-80802287D01*
X175819840Y-80848883D01*
X175821080Y-80849515D01*
X175827646Y-80855717D01*
X175836195Y-80858627D01*
X175852647Y-80879329D01*
X175871876Y-80897490D01*
X175874046Y-80906256D01*
X175879666Y-80913327D01*
X175882314Y-80939640D01*
X175888671Y-80965311D01*
X175885757Y-80973859D01*
X175886662Y-80982845D01*
X175874665Y-81006410D01*
X175866134Y-81031446D01*
X175858223Y-81038708D01*
X175854964Y-81045111D01*
X175834812Y-81060201D01*
X175827332Y-81067069D01*
X175824244Y-81068872D01*
X175728390Y-81117713D01*
X175678121Y-81154234D01*
X175672783Y-81157353D01*
X175644635Y-81164333D01*
X175617314Y-81174082D01*
X175611129Y-81172643D01*
X175604968Y-81174172D01*
X175577513Y-81164826D01*
X175549260Y-81158256D01*
X175541994Y-81152735D01*
X175538826Y-81151657D01*
X175536160Y-81148302D01*
X175522555Y-81137965D01*
X170990198Y-76605608D01*
X170990178Y-76605586D01*
X170898733Y-76514141D01*
X170853325Y-76483801D01*
X170853324Y-76483800D01*
X170847509Y-76479915D01*
X170796286Y-76445688D01*
X170715792Y-76412347D01*
X170682452Y-76398537D01*
X170682446Y-76398535D01*
X170653507Y-76392779D01*
X170591596Y-76360394D01*
X170557022Y-76299678D01*
X170560762Y-76229908D01*
X170590016Y-76183482D01*
X170699464Y-76074035D01*
X170798013Y-75926547D01*
X170865894Y-75762666D01*
X170868913Y-75747492D01*
X170900499Y-75588695D01*
X170900500Y-75588693D01*
X170900500Y-75411306D01*
X170900499Y-75411304D01*
X170865896Y-75237341D01*
X170865893Y-75237332D01*
X170798016Y-75073459D01*
X170798009Y-75073446D01*
X170699464Y-74925965D01*
X170699461Y-74925961D01*
X170574038Y-74800538D01*
X170574034Y-74800535D01*
X170426553Y-74701990D01*
X170426540Y-74701983D01*
X170262667Y-74634106D01*
X170262658Y-74634103D01*
X170088694Y-74599500D01*
X170088691Y-74599500D01*
X170035453Y-74599500D01*
X170011352Y-74592423D01*
X169986420Y-74589393D01*
X169975263Y-74581826D01*
X169968414Y-74579815D01*
X169956318Y-74570966D01*
X169951869Y-74567278D01*
X169898733Y-74514142D01*
X169847509Y-74479915D01*
X169796286Y-74445688D01*
X169796283Y-74445686D01*
X169796280Y-74445685D01*
X169714971Y-74412006D01*
X169714964Y-74412004D01*
X169707622Y-74408963D01*
X169682452Y-74398537D01*
X169622029Y-74386518D01*
X169617875Y-74385691D01*
X169617865Y-74385689D01*
X169561610Y-74374500D01*
X169561607Y-74374500D01*
X169561606Y-74374500D01*
X166699361Y-74374500D01*
X166632322Y-74354815D01*
X166611679Y-74338180D01*
X166574038Y-74300538D01*
X166574034Y-74300535D01*
X166426553Y-74201990D01*
X166426534Y-74201980D01*
X166425493Y-74201549D01*
X166425031Y-74201177D01*
X166421177Y-74199117D01*
X166421568Y-74198385D01*
X166371094Y-74157703D01*
X166349036Y-74091406D01*
X166366322Y-74023709D01*
X166385271Y-73999317D01*
X167947772Y-72436819D01*
X168009095Y-72403334D01*
X168035453Y-72400500D01*
X168088693Y-72400500D01*
X168088694Y-72400499D01*
X168192822Y-72379787D01*
X168262658Y-72365896D01*
X168262661Y-72365894D01*
X168262666Y-72365894D01*
X168426547Y-72298013D01*
X168574035Y-72199464D01*
X168699464Y-72074035D01*
X168798013Y-71926547D01*
X168865894Y-71762666D01*
X168871089Y-71736553D01*
X168900499Y-71588695D01*
X168900500Y-71588693D01*
X168900500Y-71411306D01*
X168900499Y-71411304D01*
X168865896Y-71237341D01*
X168865893Y-71237332D01*
X168798016Y-71073459D01*
X168798009Y-71073446D01*
X168699464Y-70925965D01*
X168699461Y-70925961D01*
X168574038Y-70800538D01*
X168574034Y-70800535D01*
X168426553Y-70701990D01*
X168426540Y-70701983D01*
X168262667Y-70634106D01*
X168262658Y-70634103D01*
X168088694Y-70599500D01*
X168088691Y-70599500D01*
X167911309Y-70599500D01*
X167911306Y-70599500D01*
X167737341Y-70634103D01*
X167737332Y-70634106D01*
X167573459Y-70701983D01*
X167573446Y-70701990D01*
X167425965Y-70800535D01*
X167425961Y-70800538D01*
X167300538Y-70925961D01*
X167300535Y-70925965D01*
X167201990Y-71073446D01*
X167201983Y-71073459D01*
X167134106Y-71237332D01*
X167134103Y-71237341D01*
X167099500Y-71411304D01*
X167099500Y-71464547D01*
X167079815Y-71531586D01*
X167063181Y-71552228D01*
X164603650Y-74011758D01*
X164603641Y-74011767D01*
X164601269Y-74014140D01*
X164601267Y-74014142D01*
X164514142Y-74101267D01*
X164492200Y-74134106D01*
X164487293Y-74141449D01*
X164487289Y-74141454D01*
X164445690Y-74203709D01*
X164445685Y-74203718D01*
X164398540Y-74317538D01*
X164398537Y-74317546D01*
X164379403Y-74413744D01*
X164379400Y-74413761D01*
X164379061Y-74415466D01*
X164374500Y-74438394D01*
X164374500Y-77978393D01*
X164374500Y-78101607D01*
X164374500Y-78101609D01*
X164374499Y-78101609D01*
X158885500Y-78101609D01*
X158885500Y-71199361D01*
X158905185Y-71132322D01*
X158921820Y-71111679D01*
X158959461Y-71074038D01*
X158959464Y-71074035D01*
X159058013Y-70926547D01*
X159125894Y-70762666D01*
X159131206Y-70735965D01*
X159160499Y-70588695D01*
X159160500Y-70588693D01*
X159160500Y-70411306D01*
X159160499Y-70411304D01*
X159125896Y-70237341D01*
X159125893Y-70237332D01*
X159058016Y-70073459D01*
X159058009Y-70073446D01*
X158959464Y-69925965D01*
X158959461Y-69925961D01*
X158834038Y-69800538D01*
X158834034Y-69800535D01*
X158686553Y-69701990D01*
X158686540Y-69701983D01*
X158522667Y-69634106D01*
X158522658Y-69634103D01*
X158348694Y-69599500D01*
X158348691Y-69599500D01*
X158171309Y-69599500D01*
X158171306Y-69599500D01*
X157997341Y-69634103D01*
X157997332Y-69634106D01*
X157833459Y-69701983D01*
X157833446Y-69701990D01*
X157685965Y-69800535D01*
X157685961Y-69800538D01*
X157560538Y-69925961D01*
X157560535Y-69925965D01*
X157461990Y-70073446D01*
X157461983Y-70073459D01*
X157394106Y-70237332D01*
X157394103Y-70237341D01*
X157359500Y-70411304D01*
X157359500Y-70588695D01*
X157394103Y-70762658D01*
X157394106Y-70762667D01*
X157461983Y-70926540D01*
X157461990Y-70926553D01*
X157560535Y-71074034D01*
X157560538Y-71074038D01*
X157598180Y-71111679D01*
X157631666Y-71173001D01*
X157634500Y-71199361D01*
X157634500Y-73333143D01*
X157614815Y-73400182D01*
X157562011Y-73445937D01*
X157492853Y-73455881D01*
X157429297Y-73426856D01*
X157411234Y-73407455D01*
X157400613Y-73393267D01*
X157377546Y-73362454D01*
X157377544Y-73362453D01*
X157377544Y-73362452D01*
X157262335Y-73276206D01*
X157262328Y-73276202D01*
X157127482Y-73225908D01*
X157127483Y-73225908D01*
X157067883Y-73219501D01*
X157067881Y-73219500D01*
X157067873Y-73219500D01*
X157067864Y-73219500D01*
X155412129Y-73219500D01*
X155412123Y-73219501D01*
X155352516Y-73225908D01*
X155217671Y-73276202D01*
X155217664Y-73276206D01*
X155102455Y-73362452D01*
X155102452Y-73362455D01*
X155016206Y-73477664D01*
X155016202Y-73477671D01*
X154965908Y-73612517D01*
X154959501Y-73672116D01*
X154959500Y-73672135D01*
X154959500Y-75327870D01*
X154959501Y-75327876D01*
X154965908Y-75387483D01*
X155016202Y-75522328D01*
X155016206Y-75522335D01*
X155102452Y-75637544D01*
X155102455Y-75637547D01*
X155217664Y-75723793D01*
X155217671Y-75723797D01*
X155352517Y-75774091D01*
X155352516Y-75774091D01*
X155359444Y-75774835D01*
X155412127Y-75780500D01*
X157067872Y-75780499D01*
X157127483Y-75774091D01*
X157262331Y-75723796D01*
X157377546Y-75637546D01*
X157411234Y-75592543D01*
X157467167Y-75550674D01*
X157536859Y-75545690D01*
X157598182Y-75579175D01*
X157631666Y-75640499D01*
X157634500Y-75666856D01*
X157634500Y-78899818D01*
X157614815Y-78966857D01*
X157562011Y-79012612D01*
X157492853Y-79022556D01*
X157429297Y-78993531D01*
X157400015Y-78956113D01*
X157371331Y-78899818D01*
X157335182Y-78828871D01*
X157216711Y-78665810D01*
X157074190Y-78523289D01*
X156911129Y-78404818D01*
X156813829Y-78355241D01*
X156731539Y-78313312D01*
X156539852Y-78251030D01*
X156340783Y-78219500D01*
X156340778Y-78219500D01*
X156139222Y-78219500D01*
X156139217Y-78219500D01*
X155940147Y-78251030D01*
X155748460Y-78313312D01*
X155568870Y-78404818D01*
X155499544Y-78455187D01*
X155405810Y-78523289D01*
X155405808Y-78523291D01*
X155405807Y-78523291D01*
X155337181Y-78591918D01*
X155317744Y-78602530D01*
X155301011Y-78617031D01*
X155287679Y-78618947D01*
X155275858Y-78625403D01*
X155253771Y-78623823D01*
X155231853Y-78626975D01*
X155219601Y-78621379D01*
X155206166Y-78620419D01*
X155188439Y-78607148D01*
X155168297Y-78597950D01*
X155161014Y-78586618D01*
X155150233Y-78578547D01*
X155142495Y-78557801D01*
X155130523Y-78539172D01*
X155127371Y-78517253D01*
X155125816Y-78513083D01*
X155125500Y-78504237D01*
X155125500Y-78355241D01*
X155125501Y-78355220D01*
X155125501Y-78225891D01*
X155107867Y-78137245D01*
X155101463Y-78105049D01*
X155100037Y-78101607D01*
X155080377Y-78054143D01*
X155054312Y-77991215D01*
X154985858Y-77888767D01*
X154985855Y-77888763D01*
X146135276Y-69038186D01*
X146101791Y-68976863D01*
X146106775Y-68907171D01*
X146148647Y-68851238D01*
X146171188Y-68838404D01*
X146171177Y-68838383D01*
X146171973Y-68837957D01*
X146175518Y-68835939D01*
X146176547Y-68835513D01*
X146324035Y-68736964D01*
X146449464Y-68611535D01*
X146548013Y-68464047D01*
X146615894Y-68300166D01*
X146650500Y-68126191D01*
X146650500Y-67948809D01*
X146650500Y-67948806D01*
X146650499Y-67948804D01*
X146615896Y-67774841D01*
X146615893Y-67774832D01*
X146548016Y-67610959D01*
X146548009Y-67610946D01*
X146449464Y-67463465D01*
X146449461Y-67463461D01*
X146411819Y-67425819D01*
X146378334Y-67364496D01*
X146375500Y-67338138D01*
X146375500Y-65236861D01*
X146395185Y-65169822D01*
X146411820Y-65149179D01*
X146449461Y-65111538D01*
X146449464Y-65111535D01*
X146548013Y-64964047D01*
X146615894Y-64800166D01*
X146650500Y-64626191D01*
X146650500Y-64448809D01*
X146650500Y-64448806D01*
X146650499Y-64448804D01*
X146615896Y-64274841D01*
X146615893Y-64274832D01*
X146548016Y-64110959D01*
X146548009Y-64110946D01*
X146449464Y-63963465D01*
X146449461Y-63963461D01*
X146324038Y-63838038D01*
X146324034Y-63838035D01*
X146176553Y-63739490D01*
X146176540Y-63739483D01*
X146012667Y-63671606D01*
X146012658Y-63671603D01*
X145838694Y-63637000D01*
X145838691Y-63637000D01*
X145661309Y-63637000D01*
X145661306Y-63637000D01*
X145487341Y-63671603D01*
X145487332Y-63671606D01*
X145323459Y-63739483D01*
X145323446Y-63739490D01*
X145175965Y-63838035D01*
X145175961Y-63838038D01*
X145050538Y-63963461D01*
X145050535Y-63963465D01*
X144951990Y-64110946D01*
X144951983Y-64110959D01*
X144884106Y-64274832D01*
X144884103Y-64274841D01*
X144849500Y-64448804D01*
X144849500Y-64626195D01*
X144884103Y-64800158D01*
X144884106Y-64800167D01*
X144951983Y-64964040D01*
X144951990Y-64964053D01*
X145050535Y-65111534D01*
X145050538Y-65111538D01*
X145088180Y-65149179D01*
X145121666Y-65210501D01*
X145124500Y-65236861D01*
X145124500Y-67338138D01*
X145104815Y-67405177D01*
X145088181Y-67425819D01*
X145050538Y-67463461D01*
X145050535Y-67463465D01*
X144951990Y-67610946D01*
X144951985Y-67610955D01*
X144951554Y-67611998D01*
X144951181Y-67612459D01*
X144949117Y-67616323D01*
X144948384Y-67615931D01*
X144907711Y-67666400D01*
X144841417Y-67688463D01*
X144773718Y-67671182D01*
X144749313Y-67652223D01*
X137186819Y-60089728D01*
X137153334Y-60028405D01*
X137150500Y-60002047D01*
X137150500Y-59948806D01*
X137150499Y-59948804D01*
X137115896Y-59774841D01*
X137115893Y-59774832D01*
X137048016Y-59610959D01*
X137048009Y-59610946D01*
X136949464Y-59463465D01*
X136949461Y-59463461D01*
X136824038Y-59338038D01*
X136824034Y-59338035D01*
X136676553Y-59239490D01*
X136676540Y-59239483D01*
X136512667Y-59171606D01*
X136512658Y-59171603D01*
X136338694Y-59137000D01*
X136338691Y-59137000D01*
X136161309Y-59137000D01*
X136161306Y-59137000D01*
X135987341Y-59171603D01*
X135987332Y-59171606D01*
X135823459Y-59239483D01*
X135823446Y-59239490D01*
X135675965Y-59338035D01*
X135675961Y-59338038D01*
X135638321Y-59375680D01*
X135576999Y-59409166D01*
X135550639Y-59412000D01*
X135097953Y-59412000D01*
X135030914Y-59392315D01*
X135010272Y-59375681D01*
X124911819Y-49277228D01*
X124878334Y-49215905D01*
X124875500Y-49189547D01*
X124875500Y-39936899D01*
X124895185Y-39869860D01*
X124947989Y-39824105D01*
X124952048Y-39822338D01*
X124990416Y-39806445D01*
X124990416Y-39806444D01*
X124990428Y-39806440D01*
X125180071Y-39696950D01*
X125353800Y-39563643D01*
X125508643Y-39408800D01*
X125641950Y-39235071D01*
X125751440Y-39045428D01*
X125835241Y-38843117D01*
X125891917Y-38631598D01*
X125920500Y-38414490D01*
X125920500Y-38195510D01*
X125920499Y-38195502D01*
X127579500Y-38195502D01*
X127579500Y-38414497D01*
X127600841Y-38576587D01*
X127608083Y-38631598D01*
X127608084Y-38631600D01*
X127661904Y-38832465D01*
X127664759Y-38843117D01*
X127748560Y-39045428D01*
X127748562Y-39045433D01*
X127748565Y-39045438D01*
X127858049Y-39235070D01*
X127991355Y-39408798D01*
X127991361Y-39408805D01*
X128146194Y-39563638D01*
X128146201Y-39563644D01*
X128319929Y-39696950D01*
X128509568Y-39806438D01*
X128509583Y-39806445D01*
X128547952Y-39822338D01*
X128602356Y-39866179D01*
X128624421Y-39932473D01*
X128624500Y-39936899D01*
X128624500Y-48561611D01*
X128648535Y-48682444D01*
X128648540Y-48682461D01*
X128695685Y-48796280D01*
X128695687Y-48796283D01*
X128695688Y-48796286D01*
X128729915Y-48847509D01*
X128764142Y-48898733D01*
X128851267Y-48985858D01*
X128851270Y-48985860D01*
X128858554Y-48993144D01*
X136063181Y-56197771D01*
X136096666Y-56259094D01*
X136099500Y-56285452D01*
X136099500Y-56338695D01*
X136134103Y-56512658D01*
X136134106Y-56512667D01*
X136201983Y-56676540D01*
X136201990Y-56676553D01*
X136300535Y-56824034D01*
X136300538Y-56824038D01*
X136425961Y-56949461D01*
X136425965Y-56949464D01*
X136573446Y-57048009D01*
X136573459Y-57048016D01*
X136696363Y-57098923D01*
X136737334Y-57115894D01*
X136737336Y-57115894D01*
X136737341Y-57115896D01*
X136911304Y-57150499D01*
X136911307Y-57150500D01*
X136911309Y-57150500D01*
X137088693Y-57150500D01*
X137088694Y-57150499D01*
X137171124Y-57134103D01*
X137262658Y-57115896D01*
X137262661Y-57115894D01*
X137262666Y-57115894D01*
X137426547Y-57048013D01*
X137574035Y-56949464D01*
X137699464Y-56824035D01*
X137798013Y-56676547D01*
X137865894Y-56512666D01*
X137900500Y-56338691D01*
X137900500Y-56161309D01*
X137900500Y-56161306D01*
X137900499Y-56161304D01*
X137865896Y-55987341D01*
X137865893Y-55987332D01*
X137798016Y-55823459D01*
X137798009Y-55823446D01*
X137699464Y-55675965D01*
X137699461Y-55675961D01*
X137574038Y-55550538D01*
X137574034Y-55550535D01*
X137426553Y-55451990D01*
X137426540Y-55451983D01*
X137262667Y-55384106D01*
X137262658Y-55384103D01*
X137088694Y-55349500D01*
X137088691Y-55349500D01*
X137035452Y-55349500D01*
X136968413Y-55329815D01*
X136947771Y-55313181D01*
X129911819Y-48277229D01*
X129878334Y-48215906D01*
X129875500Y-48189548D01*
X129875500Y-47890548D01*
X130963333Y-47890548D01*
X130963333Y-48109451D01*
X130963334Y-48109467D01*
X130991906Y-48326496D01*
X131048567Y-48537956D01*
X131132337Y-48740198D01*
X131132345Y-48740214D01*
X131241793Y-48929782D01*
X131241799Y-48929790D01*
X131288771Y-48991007D01*
X132032291Y-48247487D01*
X132057311Y-48307890D01*
X132128445Y-48414351D01*
X132218982Y-48504888D01*
X132325443Y-48576022D01*
X132385844Y-48601041D01*
X131642324Y-49344560D01*
X131642324Y-49344561D01*
X131703533Y-49391527D01*
X131703541Y-49391532D01*
X131893125Y-49500990D01*
X131893134Y-49500995D01*
X132095376Y-49584765D01*
X132306836Y-49641426D01*
X132523865Y-49669998D01*
X132523882Y-49670000D01*
X132742784Y-49670000D01*
X132742800Y-49669998D01*
X132959829Y-49641426D01*
X133171289Y-49584765D01*
X133373531Y-49500995D01*
X133373547Y-49500987D01*
X133563118Y-49391537D01*
X133563126Y-49391531D01*
X133624340Y-49344560D01*
X132880821Y-48601041D01*
X132941223Y-48576022D01*
X133047684Y-48504888D01*
X133138221Y-48414351D01*
X133209355Y-48307890D01*
X133234374Y-48247488D01*
X133977893Y-48991007D01*
X134024864Y-48929793D01*
X134024870Y-48929785D01*
X134134320Y-48740214D01*
X134134328Y-48740198D01*
X134218098Y-48537956D01*
X134274759Y-48326496D01*
X134303331Y-48109467D01*
X134303333Y-48109451D01*
X134303333Y-47890548D01*
X134303331Y-47890532D01*
X134274759Y-47673503D01*
X134218098Y-47462043D01*
X134134328Y-47259801D01*
X134134323Y-47259792D01*
X134024865Y-47070208D01*
X134024860Y-47070200D01*
X133977893Y-47008991D01*
X133234374Y-47752510D01*
X133209355Y-47692110D01*
X133138221Y-47585649D01*
X133047684Y-47495112D01*
X132941223Y-47423978D01*
X132880820Y-47398957D01*
X133624340Y-46655438D01*
X133624340Y-46655437D01*
X133563123Y-46608466D01*
X133563115Y-46608460D01*
X133373547Y-46499012D01*
X133373531Y-46499004D01*
X133171289Y-46415234D01*
X132959829Y-46358573D01*
X132742800Y-46330001D01*
X132742784Y-46330000D01*
X132523882Y-46330000D01*
X132523865Y-46330001D01*
X132306836Y-46358573D01*
X132095376Y-46415234D01*
X131893134Y-46499004D01*
X131893118Y-46499012D01*
X131703548Y-46608461D01*
X131703533Y-46608471D01*
X131642323Y-46655438D01*
X132385844Y-47398958D01*
X132325443Y-47423978D01*
X132218982Y-47495112D01*
X132128445Y-47585649D01*
X132057311Y-47692110D01*
X132032291Y-47752511D01*
X131288771Y-47008990D01*
X131241804Y-47070200D01*
X131241794Y-47070215D01*
X131132345Y-47259785D01*
X131132337Y-47259801D01*
X131048567Y-47462043D01*
X130991906Y-47673503D01*
X130963334Y-47890532D01*
X130963333Y-47890548D01*
X129875500Y-47890548D01*
X129875500Y-39936899D01*
X129895185Y-39869860D01*
X129947989Y-39824105D01*
X129952048Y-39822338D01*
X129990416Y-39806445D01*
X129990416Y-39806444D01*
X129990428Y-39806440D01*
X130180071Y-39696950D01*
X130353800Y-39563643D01*
X130508643Y-39408800D01*
X130641950Y-39235071D01*
X130751440Y-39045428D01*
X130835241Y-38843117D01*
X130891917Y-38631598D01*
X130920500Y-38414490D01*
X130920500Y-38195510D01*
X130920499Y-38195502D01*
X132579500Y-38195502D01*
X132579500Y-38414497D01*
X132600841Y-38576587D01*
X132608083Y-38631598D01*
X132608084Y-38631600D01*
X132661904Y-38832465D01*
X132664759Y-38843117D01*
X132748560Y-39045428D01*
X132748562Y-39045433D01*
X132748565Y-39045438D01*
X132858049Y-39235070D01*
X132991355Y-39408798D01*
X132991361Y-39408805D01*
X133146194Y-39563638D01*
X133146201Y-39563644D01*
X133319929Y-39696950D01*
X133509568Y-39806438D01*
X133509583Y-39806445D01*
X133547952Y-39822338D01*
X133602356Y-39866179D01*
X133624421Y-39932473D01*
X133624500Y-39936899D01*
X133624500Y-41061611D01*
X133648535Y-41182444D01*
X133648540Y-41182461D01*
X133695685Y-41296280D01*
X133695687Y-41296283D01*
X133695688Y-41296286D01*
X133729915Y-41347509D01*
X133764142Y-41398733D01*
X133851267Y-41485858D01*
X133851269Y-41485859D01*
X133861232Y-41495822D01*
X134588181Y-42222771D01*
X134621666Y-42284094D01*
X134624500Y-42310452D01*
X134624500Y-50811611D01*
X134648535Y-50932444D01*
X134648540Y-50932461D01*
X134695685Y-51046280D01*
X134695687Y-51046283D01*
X134695688Y-51046286D01*
X134729915Y-51097509D01*
X134764142Y-51148733D01*
X134851267Y-51235858D01*
X134851269Y-51235859D01*
X134861232Y-51245822D01*
X141563181Y-57947771D01*
X141596666Y-58009094D01*
X141599500Y-58035452D01*
X141599500Y-58088695D01*
X141634103Y-58262658D01*
X141634106Y-58262667D01*
X141701983Y-58426540D01*
X141701990Y-58426553D01*
X141800535Y-58574034D01*
X141800538Y-58574038D01*
X141925961Y-58699461D01*
X141925965Y-58699464D01*
X142073446Y-58798009D01*
X142073459Y-58798016D01*
X142176850Y-58840841D01*
X142237334Y-58865894D01*
X142237336Y-58865894D01*
X142237341Y-58865896D01*
X142411304Y-58900499D01*
X142411307Y-58900500D01*
X142411309Y-58900500D01*
X142588693Y-58900500D01*
X142588694Y-58900499D01*
X142646682Y-58888964D01*
X142762658Y-58865896D01*
X142762661Y-58865894D01*
X142762666Y-58865894D01*
X142926547Y-58798013D01*
X143074035Y-58699464D01*
X143199464Y-58574035D01*
X143298013Y-58426547D01*
X143365894Y-58262666D01*
X143400500Y-58088691D01*
X143400500Y-57911309D01*
X143400500Y-57911306D01*
X143400499Y-57911304D01*
X143365896Y-57737341D01*
X143365893Y-57737332D01*
X143353555Y-57707546D01*
X143331812Y-57655051D01*
X143298016Y-57573459D01*
X143298009Y-57573446D01*
X143199464Y-57425965D01*
X143199461Y-57425961D01*
X143074038Y-57300538D01*
X143074034Y-57300535D01*
X142926553Y-57201990D01*
X142926540Y-57201983D01*
X142762667Y-57134106D01*
X142762658Y-57134103D01*
X142588694Y-57099500D01*
X142588691Y-57099500D01*
X142535453Y-57099500D01*
X142468414Y-57079815D01*
X142447772Y-57063181D01*
X135911819Y-50527228D01*
X135878334Y-50465905D01*
X135875500Y-50439547D01*
X135875500Y-48743525D01*
X135895185Y-48676486D01*
X135947989Y-48630731D01*
X136017147Y-48620787D01*
X136080703Y-48649812D01*
X136114062Y-48696074D01*
X136132341Y-48740205D01*
X136132345Y-48740214D01*
X136241793Y-48929782D01*
X136241799Y-48929790D01*
X136288771Y-48991007D01*
X137032291Y-48247487D01*
X137057311Y-48307890D01*
X137128445Y-48414351D01*
X137218982Y-48504888D01*
X137325443Y-48576022D01*
X137385844Y-48601041D01*
X136642324Y-49344560D01*
X136642324Y-49344561D01*
X136703533Y-49391527D01*
X136703541Y-49391532D01*
X136893125Y-49500990D01*
X136893134Y-49500995D01*
X137095376Y-49584765D01*
X137306836Y-49641426D01*
X137523865Y-49669998D01*
X137523882Y-49670000D01*
X137742784Y-49670000D01*
X137742800Y-49669998D01*
X137959829Y-49641426D01*
X138171289Y-49584765D01*
X138373531Y-49500995D01*
X138373547Y-49500987D01*
X138563118Y-49391537D01*
X138563126Y-49391531D01*
X138624340Y-49344560D01*
X137880821Y-48601041D01*
X137941223Y-48576022D01*
X138047684Y-48504888D01*
X138138221Y-48414351D01*
X138209355Y-48307890D01*
X138234374Y-48247488D01*
X138977893Y-48991007D01*
X139024864Y-48929793D01*
X139024870Y-48929785D01*
X139134320Y-48740214D01*
X139134328Y-48740198D01*
X139218098Y-48537956D01*
X139274759Y-48326496D01*
X139303331Y-48109467D01*
X139303333Y-48109451D01*
X139303333Y-47890540D01*
X139303328Y-47890502D01*
X140962833Y-47890502D01*
X140962833Y-48109497D01*
X140973379Y-48189598D01*
X140991416Y-48326598D01*
X140991417Y-48326600D01*
X141048048Y-48537956D01*
X141048092Y-48538117D01*
X141131893Y-48740428D01*
X141131895Y-48740433D01*
X141131898Y-48740438D01*
X141241382Y-48930070D01*
X141374688Y-49103798D01*
X141374694Y-49103805D01*
X141529527Y-49258638D01*
X141529534Y-49258644D01*
X141703262Y-49391950D01*
X141892901Y-49501438D01*
X141892916Y-49501445D01*
X141931285Y-49517338D01*
X141985689Y-49561179D01*
X142007754Y-49627473D01*
X142007833Y-49631899D01*
X142007833Y-54428278D01*
X142031868Y-54549111D01*
X142031873Y-54549128D01*
X142079018Y-54662947D01*
X142079020Y-54662950D01*
X142079021Y-54662953D01*
X142113248Y-54714176D01*
X142147475Y-54765400D01*
X142234600Y-54852525D01*
X142234602Y-54852526D01*
X142244565Y-54862489D01*
X144338181Y-56956105D01*
X144371666Y-57017428D01*
X144374500Y-57043786D01*
X144374500Y-58561611D01*
X144398535Y-58682444D01*
X144398540Y-58682461D01*
X144445685Y-58796280D01*
X144445687Y-58796283D01*
X144445688Y-58796286D01*
X144479915Y-58847509D01*
X144514142Y-58898733D01*
X144601267Y-58985858D01*
X144601270Y-58985860D01*
X144608554Y-58993144D01*
X147813181Y-62197771D01*
X147846666Y-62259094D01*
X147849500Y-62285452D01*
X147849500Y-62338695D01*
X147884103Y-62512658D01*
X147884106Y-62512667D01*
X147951983Y-62676540D01*
X147951990Y-62676553D01*
X148050535Y-62824034D01*
X148050538Y-62824038D01*
X148175961Y-62949461D01*
X148175965Y-62949464D01*
X148323446Y-63048009D01*
X148323459Y-63048016D01*
X148434696Y-63094091D01*
X148487334Y-63115894D01*
X148487336Y-63115894D01*
X148487341Y-63115896D01*
X148661304Y-63150499D01*
X148661307Y-63150500D01*
X148661309Y-63150500D01*
X148838693Y-63150500D01*
X148838694Y-63150499D01*
X148896682Y-63138964D01*
X149012658Y-63115896D01*
X149012661Y-63115894D01*
X149012666Y-63115894D01*
X149176547Y-63048013D01*
X149324035Y-62949464D01*
X149449464Y-62824035D01*
X149548013Y-62676547D01*
X149615894Y-62512666D01*
X149616606Y-62509090D01*
X149650499Y-62338695D01*
X149650500Y-62338693D01*
X149650500Y-62161306D01*
X149650499Y-62161304D01*
X149615896Y-61987341D01*
X149615893Y-61987332D01*
X149548016Y-61823459D01*
X149548009Y-61823446D01*
X149449464Y-61675965D01*
X149449461Y-61675961D01*
X149324038Y-61550538D01*
X149324034Y-61550535D01*
X149176553Y-61451990D01*
X149176540Y-61451983D01*
X149012667Y-61384106D01*
X149012658Y-61384103D01*
X148838694Y-61349500D01*
X148838691Y-61349500D01*
X148785452Y-61349500D01*
X148718413Y-61329815D01*
X148697771Y-61313181D01*
X145661819Y-58277229D01*
X145628334Y-58215906D01*
X145625500Y-58189548D01*
X145625500Y-56801075D01*
X145625501Y-56801054D01*
X145625501Y-56671725D01*
X145601462Y-56550880D01*
X145599560Y-56546289D01*
X145599554Y-56546275D01*
X145561469Y-56454328D01*
X145561468Y-56454325D01*
X145554311Y-56437047D01*
X145554310Y-56437046D01*
X145485858Y-56334601D01*
X145485855Y-56334597D01*
X143295152Y-54143894D01*
X143261667Y-54082571D01*
X143258833Y-54056213D01*
X143258833Y-49631899D01*
X143278518Y-49564860D01*
X143331322Y-49519105D01*
X143335381Y-49517338D01*
X143373749Y-49501445D01*
X143373749Y-49501444D01*
X143373761Y-49501440D01*
X143563404Y-49391950D01*
X143737133Y-49258643D01*
X143891976Y-49103800D01*
X144025283Y-48930071D01*
X144134773Y-48740428D01*
X144218574Y-48538117D01*
X144275250Y-48326598D01*
X144303833Y-48109490D01*
X144303833Y-47890510D01*
X144303832Y-47890502D01*
X147771167Y-47890502D01*
X147771167Y-48109497D01*
X147781713Y-48189598D01*
X147799750Y-48326598D01*
X147799751Y-48326600D01*
X147856382Y-48537956D01*
X147856426Y-48538117D01*
X147940227Y-48740428D01*
X147940229Y-48740433D01*
X147940232Y-48740438D01*
X148049716Y-48930070D01*
X148183022Y-49103798D01*
X148183028Y-49103805D01*
X148337861Y-49258638D01*
X148337868Y-49258644D01*
X148511596Y-49391950D01*
X148701235Y-49501438D01*
X148701250Y-49501445D01*
X148739619Y-49517338D01*
X148794023Y-49561179D01*
X148816088Y-49627473D01*
X148816167Y-49631899D01*
X148816167Y-60003277D01*
X148826139Y-60053409D01*
X148840204Y-60124119D01*
X148854014Y-60157459D01*
X148887355Y-60237953D01*
X148921582Y-60289176D01*
X148925469Y-60294993D01*
X148925470Y-60294995D01*
X148955808Y-60340400D01*
X149047253Y-60431845D01*
X149047275Y-60431865D01*
X151088181Y-62472771D01*
X151121666Y-62534094D01*
X151124500Y-62560452D01*
X151124500Y-67439547D01*
X151104815Y-67506586D01*
X151088181Y-67527228D01*
X149552229Y-69063181D01*
X149490906Y-69096666D01*
X149464548Y-69099500D01*
X149411306Y-69099500D01*
X149237341Y-69134103D01*
X149237332Y-69134106D01*
X149073459Y-69201983D01*
X149073446Y-69201990D01*
X148925965Y-69300535D01*
X148925961Y-69300538D01*
X148800538Y-69425961D01*
X148800535Y-69425965D01*
X148701990Y-69573446D01*
X148701983Y-69573459D01*
X148634106Y-69737332D01*
X148634103Y-69737341D01*
X148599500Y-69911304D01*
X148599500Y-70088695D01*
X148634103Y-70262658D01*
X148634106Y-70262667D01*
X148701983Y-70426540D01*
X148701990Y-70426553D01*
X148800535Y-70574034D01*
X148800538Y-70574038D01*
X148925961Y-70699461D01*
X148925965Y-70699464D01*
X149073446Y-70798009D01*
X149073459Y-70798016D01*
X149196363Y-70848923D01*
X149237334Y-70865894D01*
X149237336Y-70865894D01*
X149237341Y-70865896D01*
X149411304Y-70900499D01*
X149411307Y-70900500D01*
X149411309Y-70900500D01*
X149588693Y-70900500D01*
X149588694Y-70900499D01*
X149646682Y-70888964D01*
X149762658Y-70865896D01*
X149762661Y-70865894D01*
X149762666Y-70865894D01*
X149926547Y-70798013D01*
X150074035Y-70699464D01*
X150199464Y-70574035D01*
X150298013Y-70426547D01*
X150300609Y-70420281D01*
X150307958Y-70402535D01*
X150365894Y-70262666D01*
X150370932Y-70237341D01*
X150400499Y-70088695D01*
X150400500Y-70088693D01*
X150400500Y-70035452D01*
X150420185Y-69968413D01*
X150436819Y-69947771D01*
X151321410Y-69063181D01*
X152235858Y-68148733D01*
X152304312Y-68046285D01*
X152336528Y-67968507D01*
X152351463Y-67932452D01*
X152365555Y-67861606D01*
X152375501Y-67811606D01*
X152375501Y-67688393D01*
X152375501Y-67683283D01*
X152375500Y-67683257D01*
X152375500Y-62188393D01*
X152375499Y-62188389D01*
X152351464Y-62067555D01*
X152351463Y-62067548D01*
X152318237Y-61987334D01*
X152304312Y-61953715D01*
X152280574Y-61918189D01*
X152260283Y-61887822D01*
X152235858Y-61851266D01*
X152145637Y-61761045D01*
X152145606Y-61761016D01*
X150103486Y-59718896D01*
X150070001Y-59657573D01*
X150067167Y-59631215D01*
X150067167Y-49631899D01*
X150086852Y-49564860D01*
X150139656Y-49519105D01*
X150143715Y-49517338D01*
X150182083Y-49501445D01*
X150182083Y-49501444D01*
X150182095Y-49501440D01*
X150371738Y-49391950D01*
X150545467Y-49258643D01*
X150700310Y-49103800D01*
X150833617Y-48930071D01*
X150943107Y-48740428D01*
X151026908Y-48538117D01*
X151083584Y-48326598D01*
X151112167Y-48109490D01*
X151112167Y-47890510D01*
X151112166Y-47890502D01*
X152771167Y-47890502D01*
X152771167Y-48109497D01*
X152781713Y-48189598D01*
X152799750Y-48326598D01*
X152799751Y-48326600D01*
X152856382Y-48537956D01*
X152856426Y-48538117D01*
X152940227Y-48740428D01*
X152940229Y-48740433D01*
X152940232Y-48740438D01*
X153049716Y-48930070D01*
X153183022Y-49103798D01*
X153183028Y-49103805D01*
X153337861Y-49258638D01*
X153337868Y-49258644D01*
X153511596Y-49391950D01*
X153701228Y-49501434D01*
X153701230Y-49501434D01*
X153701239Y-49501440D01*
X153903550Y-49585241D01*
X154115069Y-49641917D01*
X154332177Y-49670500D01*
X154332184Y-49670500D01*
X154551150Y-49670500D01*
X154551157Y-49670500D01*
X154768265Y-49641917D01*
X154979784Y-49585241D01*
X155182095Y-49501440D01*
X155371738Y-49391950D01*
X155545467Y-49258643D01*
X155700310Y-49103800D01*
X155833617Y-48930071D01*
X155943107Y-48740428D01*
X156026908Y-48538117D01*
X156083584Y-48326598D01*
X156112167Y-48109490D01*
X156112167Y-47890510D01*
X156112166Y-47890502D01*
X157771167Y-47890502D01*
X157771167Y-48109497D01*
X157781713Y-48189598D01*
X157799750Y-48326598D01*
X157799751Y-48326600D01*
X157856382Y-48537956D01*
X157856426Y-48538117D01*
X157940227Y-48740428D01*
X157940229Y-48740433D01*
X157940232Y-48740438D01*
X158049716Y-48930070D01*
X158183022Y-49103798D01*
X158183028Y-49103805D01*
X158337861Y-49258638D01*
X158337868Y-49258644D01*
X158511596Y-49391950D01*
X158701228Y-49501434D01*
X158701230Y-49501434D01*
X158701239Y-49501440D01*
X158903550Y-49585241D01*
X159115069Y-49641917D01*
X159332177Y-49670500D01*
X159332184Y-49670500D01*
X159551150Y-49670500D01*
X159551157Y-49670500D01*
X159768265Y-49641917D01*
X159979784Y-49585241D01*
X160182095Y-49501440D01*
X160371738Y-49391950D01*
X160545467Y-49258643D01*
X160700310Y-49103800D01*
X160833617Y-48930071D01*
X160943107Y-48740428D01*
X161026908Y-48538117D01*
X161083584Y-48326598D01*
X161112167Y-48109490D01*
X161112167Y-47890510D01*
X161083584Y-47673402D01*
X161026908Y-47461883D01*
X160943107Y-47259572D01*
X160941318Y-47256474D01*
X160833617Y-47069929D01*
X160700311Y-46896201D01*
X160700305Y-46896194D01*
X160545472Y-46741361D01*
X160545465Y-46741355D01*
X160371737Y-46608049D01*
X160182105Y-46498565D01*
X160182100Y-46498562D01*
X160182095Y-46498560D01*
X159979784Y-46414759D01*
X159979785Y-46414759D01*
X159979782Y-46414758D01*
X159874024Y-46386421D01*
X159768265Y-46358083D01*
X159716493Y-46351267D01*
X159551164Y-46329500D01*
X159551157Y-46329500D01*
X159332177Y-46329500D01*
X159332169Y-46329500D01*
X159125520Y-46356707D01*
X159115069Y-46358083D01*
X159070366Y-46370060D01*
X158903551Y-46414758D01*
X158785041Y-46463847D01*
X158701239Y-46498560D01*
X158701236Y-46498561D01*
X158701228Y-46498565D01*
X158511596Y-46608049D01*
X158337868Y-46741355D01*
X158337861Y-46741361D01*
X158183028Y-46896194D01*
X158183022Y-46896201D01*
X158049716Y-47069929D01*
X157940232Y-47259561D01*
X157940228Y-47259569D01*
X157940227Y-47259572D01*
X157921855Y-47303926D01*
X157856425Y-47461884D01*
X157799751Y-47673399D01*
X157799749Y-47673410D01*
X157771167Y-47890502D01*
X156112166Y-47890502D01*
X156083584Y-47673402D01*
X156026908Y-47461883D01*
X155943107Y-47259572D01*
X155941318Y-47256474D01*
X155833617Y-47069929D01*
X155700311Y-46896201D01*
X155700305Y-46896194D01*
X155545472Y-46741361D01*
X155545465Y-46741355D01*
X155371737Y-46608049D01*
X155182105Y-46498565D01*
X155182100Y-46498562D01*
X155182095Y-46498560D01*
X154979784Y-46414759D01*
X154979785Y-46414759D01*
X154979782Y-46414758D01*
X154874024Y-46386421D01*
X154768265Y-46358083D01*
X154716493Y-46351267D01*
X154551164Y-46329500D01*
X154551157Y-46329500D01*
X154332177Y-46329500D01*
X154332169Y-46329500D01*
X154125520Y-46356707D01*
X154115069Y-46358083D01*
X154070366Y-46370060D01*
X153903551Y-46414758D01*
X153785041Y-46463847D01*
X153701239Y-46498560D01*
X153701236Y-46498561D01*
X153701228Y-46498565D01*
X153511596Y-46608049D01*
X153337868Y-46741355D01*
X153337861Y-46741361D01*
X153183028Y-46896194D01*
X153183022Y-46896201D01*
X153049716Y-47069929D01*
X152940232Y-47259561D01*
X152940228Y-47259569D01*
X152940227Y-47259572D01*
X152921855Y-47303926D01*
X152856425Y-47461884D01*
X152799751Y-47673399D01*
X152799749Y-47673410D01*
X152771167Y-47890502D01*
X151112166Y-47890502D01*
X151083584Y-47673402D01*
X151026908Y-47461883D01*
X150943107Y-47259572D01*
X150941318Y-47256474D01*
X150833617Y-47069929D01*
X150700311Y-46896201D01*
X150700305Y-46896194D01*
X150545472Y-46741361D01*
X150545465Y-46741355D01*
X150371737Y-46608049D01*
X150182105Y-46498565D01*
X150182100Y-46498562D01*
X150182095Y-46498560D01*
X149979784Y-46414759D01*
X149979785Y-46414759D01*
X149979782Y-46414758D01*
X149874024Y-46386421D01*
X149768265Y-46358083D01*
X149716493Y-46351267D01*
X149551164Y-46329500D01*
X149551157Y-46329500D01*
X149332177Y-46329500D01*
X149332169Y-46329500D01*
X149125520Y-46356707D01*
X149115069Y-46358083D01*
X149070366Y-46370060D01*
X148903551Y-46414758D01*
X148785041Y-46463847D01*
X148701239Y-46498560D01*
X148701236Y-46498561D01*
X148701228Y-46498565D01*
X148511596Y-46608049D01*
X148337868Y-46741355D01*
X148337861Y-46741361D01*
X148183028Y-46896194D01*
X148183022Y-46896201D01*
X148049716Y-47069929D01*
X147940232Y-47259561D01*
X147940228Y-47259569D01*
X147940227Y-47259572D01*
X147921855Y-47303926D01*
X147856425Y-47461884D01*
X147799751Y-47673399D01*
X147799749Y-47673410D01*
X147771167Y-47890502D01*
X144303832Y-47890502D01*
X144275250Y-47673402D01*
X144218574Y-47461883D01*
X144134773Y-47259572D01*
X144132984Y-47256474D01*
X144025283Y-47069929D01*
X143891977Y-46896201D01*
X143891971Y-46896194D01*
X143737138Y-46741361D01*
X143737131Y-46741355D01*
X143563403Y-46608049D01*
X143373771Y-46498565D01*
X143373766Y-46498562D01*
X143373761Y-46498560D01*
X143171450Y-46414759D01*
X143171451Y-46414759D01*
X143171448Y-46414758D01*
X143065690Y-46386421D01*
X142959931Y-46358083D01*
X142908159Y-46351267D01*
X142742830Y-46329500D01*
X142742823Y-46329500D01*
X142523843Y-46329500D01*
X142523835Y-46329500D01*
X142317186Y-46356707D01*
X142306735Y-46358083D01*
X142262032Y-46370060D01*
X142095217Y-46414758D01*
X141976707Y-46463847D01*
X141892905Y-46498560D01*
X141892902Y-46498561D01*
X141892894Y-46498565D01*
X141703262Y-46608049D01*
X141529534Y-46741355D01*
X141529527Y-46741361D01*
X141374694Y-46896194D01*
X141374688Y-46896201D01*
X141241382Y-47069929D01*
X141131898Y-47259561D01*
X141131894Y-47259569D01*
X141131893Y-47259572D01*
X141113521Y-47303926D01*
X141048091Y-47461884D01*
X140991417Y-47673399D01*
X140991415Y-47673410D01*
X140962833Y-47890502D01*
X139303328Y-47890502D01*
X139274759Y-47673503D01*
X139218098Y-47462043D01*
X139134328Y-47259801D01*
X139134323Y-47259792D01*
X139024865Y-47070208D01*
X139024860Y-47070200D01*
X138977893Y-47008991D01*
X138234374Y-47752510D01*
X138209355Y-47692110D01*
X138138221Y-47585649D01*
X138047684Y-47495112D01*
X137941223Y-47423978D01*
X137880820Y-47398957D01*
X138624340Y-46655438D01*
X138624340Y-46655437D01*
X138563123Y-46608466D01*
X138563115Y-46608460D01*
X138373547Y-46499012D01*
X138373531Y-46499004D01*
X138171289Y-46415234D01*
X137959829Y-46358573D01*
X137742800Y-46330001D01*
X137742784Y-46330000D01*
X137523882Y-46330000D01*
X137523865Y-46330001D01*
X137306836Y-46358573D01*
X137095376Y-46415234D01*
X136893134Y-46499004D01*
X136893118Y-46499012D01*
X136703548Y-46608461D01*
X136703533Y-46608471D01*
X136642323Y-46655438D01*
X137385844Y-47398958D01*
X137325443Y-47423978D01*
X137218982Y-47495112D01*
X137128445Y-47585649D01*
X137057311Y-47692110D01*
X137032291Y-47752511D01*
X136288771Y-47008990D01*
X136241804Y-47070200D01*
X136241794Y-47070215D01*
X136132345Y-47259785D01*
X136132337Y-47259801D01*
X136114061Y-47303926D01*
X136070220Y-47358330D01*
X136003926Y-47380395D01*
X135936227Y-47363116D01*
X135888616Y-47311979D01*
X135875500Y-47256474D01*
X135875500Y-42067741D01*
X135875501Y-42067720D01*
X135875501Y-41938391D01*
X135851464Y-41817555D01*
X135851463Y-41817549D01*
X135804312Y-41703715D01*
X135735858Y-41601267D01*
X135735855Y-41601263D01*
X134911819Y-40777227D01*
X134878334Y-40715904D01*
X134875500Y-40689546D01*
X134875500Y-39936899D01*
X134895185Y-39869860D01*
X134947989Y-39824105D01*
X134952048Y-39822338D01*
X134990416Y-39806445D01*
X134990416Y-39806444D01*
X134990428Y-39806440D01*
X135180071Y-39696950D01*
X135353800Y-39563643D01*
X135508643Y-39408800D01*
X135641950Y-39235071D01*
X135751440Y-39045428D01*
X135835241Y-38843117D01*
X135891917Y-38631598D01*
X135920500Y-38414490D01*
X135920500Y-38195510D01*
X135916817Y-38167534D01*
X135914856Y-38152636D01*
X135913258Y-38140502D01*
X139462833Y-38140502D01*
X139462833Y-38359497D01*
X139486639Y-38540314D01*
X139491416Y-38576598D01*
X139500759Y-38611466D01*
X139548091Y-38788115D01*
X139548092Y-38788117D01*
X139631893Y-38990428D01*
X139631895Y-38990431D01*
X139631898Y-38990438D01*
X139741382Y-39180070D01*
X139874688Y-39353798D01*
X139874694Y-39353805D01*
X140029527Y-39508638D01*
X140029534Y-39508644D01*
X140203262Y-39641950D01*
X140392894Y-39751434D01*
X140392896Y-39751434D01*
X140392905Y-39751440D01*
X140595216Y-39835241D01*
X140806735Y-39891917D01*
X141023843Y-39920500D01*
X141023850Y-39920500D01*
X141242816Y-39920500D01*
X141242823Y-39920500D01*
X141459931Y-39891917D01*
X141671450Y-39835241D01*
X141873761Y-39751440D01*
X142063404Y-39641950D01*
X142237133Y-39508643D01*
X142391976Y-39353800D01*
X142525283Y-39180071D01*
X142634773Y-38990428D01*
X142718574Y-38788117D01*
X142775250Y-38576598D01*
X142803833Y-38359490D01*
X142803833Y-38140510D01*
X142803832Y-38140502D01*
X144462833Y-38140502D01*
X144462833Y-38359497D01*
X144486639Y-38540314D01*
X144491416Y-38576598D01*
X144500759Y-38611466D01*
X144548091Y-38788115D01*
X144548092Y-38788117D01*
X144631893Y-38990428D01*
X144631895Y-38990431D01*
X144631898Y-38990438D01*
X144741382Y-39180070D01*
X144874688Y-39353798D01*
X144874694Y-39353805D01*
X145029527Y-39508638D01*
X145029534Y-39508644D01*
X145203262Y-39641950D01*
X145392894Y-39751434D01*
X145392896Y-39751434D01*
X145392905Y-39751440D01*
X145595216Y-39835241D01*
X145806735Y-39891917D01*
X146023843Y-39920500D01*
X146023850Y-39920500D01*
X146242816Y-39920500D01*
X146242823Y-39920500D01*
X146459931Y-39891917D01*
X146671450Y-39835241D01*
X146873761Y-39751440D01*
X147063404Y-39641950D01*
X147237133Y-39508643D01*
X147391976Y-39353800D01*
X147525283Y-39180071D01*
X147634773Y-38990428D01*
X147646701Y-38961632D01*
X147650671Y-38952048D01*
X147694512Y-38897644D01*
X147760806Y-38875579D01*
X147765232Y-38875500D01*
X149501434Y-38875500D01*
X149568473Y-38895185D01*
X149614228Y-38947989D01*
X149615995Y-38952048D01*
X149631887Y-38990416D01*
X149631894Y-38990431D01*
X149741382Y-39180070D01*
X149874688Y-39353798D01*
X149874694Y-39353805D01*
X150029527Y-39508638D01*
X150029534Y-39508644D01*
X150203262Y-39641950D01*
X150392894Y-39751434D01*
X150392896Y-39751434D01*
X150392905Y-39751440D01*
X150595216Y-39835241D01*
X150806735Y-39891917D01*
X151023843Y-39920500D01*
X151023850Y-39920500D01*
X151242816Y-39920500D01*
X151242823Y-39920500D01*
X151459931Y-39891917D01*
X151671450Y-39835241D01*
X151873761Y-39751440D01*
X152063404Y-39641950D01*
X152237133Y-39508643D01*
X152391976Y-39353800D01*
X152525283Y-39180071D01*
X152634773Y-38990428D01*
X152646701Y-38961632D01*
X152650671Y-38952048D01*
X152694512Y-38897644D01*
X152760806Y-38875579D01*
X152765232Y-38875500D01*
X153189548Y-38875500D01*
X153256587Y-38895185D01*
X153277229Y-38911819D01*
X161338181Y-46972771D01*
X161371666Y-47034094D01*
X161374500Y-47060452D01*
X161374500Y-64735093D01*
X161398535Y-64855926D01*
X161398540Y-64855943D01*
X161445685Y-64969762D01*
X161445687Y-64969765D01*
X161445688Y-64969768D01*
X161479915Y-65020991D01*
X161514142Y-65072215D01*
X161601267Y-65159340D01*
X161601270Y-65159342D01*
X161608554Y-65166626D01*
X166087534Y-69645606D01*
X166087563Y-69645637D01*
X166177782Y-69735856D01*
X166177785Y-69735858D01*
X166254708Y-69787256D01*
X166280233Y-69804312D01*
X166333607Y-69826420D01*
X166337891Y-69828194D01*
X166337896Y-69828197D01*
X166364849Y-69839361D01*
X166394066Y-69851463D01*
X166454489Y-69863481D01*
X166514911Y-69875500D01*
X166514912Y-69875500D01*
X170689548Y-69875500D01*
X170756587Y-69895185D01*
X170777229Y-69911819D01*
X173601263Y-72735855D01*
X173601267Y-72735858D01*
X173703710Y-72804309D01*
X173703711Y-72804309D01*
X173703715Y-72804312D01*
X173770397Y-72831932D01*
X173812545Y-72849390D01*
X173812552Y-72849396D01*
X173852767Y-72876266D01*
X173925962Y-72949461D01*
X173925966Y-72949465D01*
X174073446Y-73048009D01*
X174073459Y-73048016D01*
X174196363Y-73098923D01*
X174237334Y-73115894D01*
X174237336Y-73115894D01*
X174237341Y-73115896D01*
X174411304Y-73150499D01*
X174411307Y-73150500D01*
X174411309Y-73150500D01*
X174588693Y-73150500D01*
X174588694Y-73150499D01*
X174646682Y-73138964D01*
X174762658Y-73115896D01*
X174762661Y-73115894D01*
X174762666Y-73115894D01*
X174926547Y-73048013D01*
X175074035Y-72949464D01*
X175199464Y-72824035D01*
X175298013Y-72676547D01*
X175365894Y-72512666D01*
X175373389Y-72474990D01*
X175392326Y-72379784D01*
X175400500Y-72338691D01*
X175400500Y-72161309D01*
X175400500Y-72161306D01*
X175400499Y-72161304D01*
X175365896Y-71987341D01*
X175365893Y-71987332D01*
X175298016Y-71823459D01*
X175298009Y-71823446D01*
X175199464Y-71675965D01*
X175199461Y-71675961D01*
X175074038Y-71550538D01*
X175074034Y-71550535D01*
X174926553Y-71451990D01*
X174926540Y-71451983D01*
X174762667Y-71384106D01*
X174762658Y-71384103D01*
X174588694Y-71349500D01*
X174588691Y-71349500D01*
X174411309Y-71349500D01*
X174411306Y-71349500D01*
X174237336Y-71384104D01*
X174237332Y-71384106D01*
X174159278Y-71416436D01*
X174089808Y-71423903D01*
X174027330Y-71392628D01*
X174024146Y-71389555D01*
X171495822Y-68861232D01*
X171485859Y-68851269D01*
X171485858Y-68851267D01*
X171398733Y-68764142D01*
X171347509Y-68729915D01*
X171296286Y-68695688D01*
X171296283Y-68695686D01*
X171296280Y-68695685D01*
X171213431Y-68661368D01*
X171213423Y-68661365D01*
X171205961Y-68658275D01*
X171182452Y-68648537D01*
X171122029Y-68636518D01*
X171117998Y-68635716D01*
X171117986Y-68635713D01*
X171061610Y-68624500D01*
X171061607Y-68624500D01*
X171061606Y-68624500D01*
X166886970Y-68624500D01*
X166819931Y-68604815D01*
X166799289Y-68588181D01*
X165454865Y-67243757D01*
X165421380Y-67182434D01*
X165426364Y-67112742D01*
X165446697Y-67077405D01*
X165449456Y-67074042D01*
X165449464Y-67074035D01*
X165548013Y-66926547D01*
X165615894Y-66762666D01*
X165650500Y-66588691D01*
X165650500Y-66535451D01*
X165670185Y-66468412D01*
X165686814Y-66447775D01*
X169648729Y-62485860D01*
X169648733Y-62485858D01*
X169735858Y-62398733D01*
X169789139Y-62318993D01*
X169804312Y-62296286D01*
X169837652Y-62215792D01*
X169851463Y-62182452D01*
X169875500Y-62061606D01*
X169875500Y-60852135D01*
X171149500Y-60852135D01*
X171149500Y-62647870D01*
X171149501Y-62647876D01*
X171155908Y-62707483D01*
X171206202Y-62842328D01*
X171206206Y-62842335D01*
X171292452Y-62957544D01*
X171292455Y-62957547D01*
X171407664Y-63043793D01*
X171407671Y-63043797D01*
X171542517Y-63094091D01*
X171542516Y-63094091D01*
X171549444Y-63094835D01*
X171602127Y-63100500D01*
X173397872Y-63100499D01*
X173457483Y-63094091D01*
X173592331Y-63043796D01*
X173707546Y-62957546D01*
X173793796Y-62842331D01*
X173842810Y-62710916D01*
X173884681Y-62654984D01*
X173950145Y-62630566D01*
X174018418Y-62645417D01*
X174046673Y-62666569D01*
X174160213Y-62780109D01*
X174332179Y-62905048D01*
X174332181Y-62905049D01*
X174332184Y-62905051D01*
X174521588Y-63001557D01*
X174723757Y-63067246D01*
X174933713Y-63100500D01*
X174933714Y-63100500D01*
X175146286Y-63100500D01*
X175146287Y-63100500D01*
X175356243Y-63067246D01*
X175558412Y-63001557D01*
X175747816Y-62905051D01*
X175834138Y-62842335D01*
X175919786Y-62780109D01*
X175919788Y-62780106D01*
X175919792Y-62780104D01*
X176070104Y-62629792D01*
X176070106Y-62629788D01*
X176070109Y-62629786D01*
X176195048Y-62457820D01*
X176195047Y-62457820D01*
X176195051Y-62457816D01*
X176291557Y-62268412D01*
X176357246Y-62066243D01*
X176390500Y-61856287D01*
X176390500Y-61643713D01*
X176357246Y-61433757D01*
X176291557Y-61231588D01*
X176195051Y-61042184D01*
X176195049Y-61042181D01*
X176195048Y-61042179D01*
X176070109Y-60870213D01*
X175919786Y-60719890D01*
X175747820Y-60594951D01*
X175558414Y-60498444D01*
X175558413Y-60498443D01*
X175558412Y-60498443D01*
X175356243Y-60432754D01*
X175356241Y-60432753D01*
X175356240Y-60432753D01*
X175194957Y-60407208D01*
X175146287Y-60399500D01*
X174933713Y-60399500D01*
X174885042Y-60407208D01*
X174723760Y-60432753D01*
X174521585Y-60498444D01*
X174332179Y-60594951D01*
X174160215Y-60719889D01*
X174046673Y-60833431D01*
X173985350Y-60866915D01*
X173915658Y-60861931D01*
X173859725Y-60820059D01*
X173842810Y-60789082D01*
X173793797Y-60657671D01*
X173793793Y-60657664D01*
X173707547Y-60542455D01*
X173707544Y-60542452D01*
X173592335Y-60456206D01*
X173592328Y-60456202D01*
X173457482Y-60405908D01*
X173457483Y-60405908D01*
X173397883Y-60399501D01*
X173397881Y-60399500D01*
X173397873Y-60399500D01*
X173397864Y-60399500D01*
X171602129Y-60399500D01*
X171602123Y-60399501D01*
X171542516Y-60405908D01*
X171407671Y-60456202D01*
X171407664Y-60456206D01*
X171292455Y-60542452D01*
X171292452Y-60542455D01*
X171206206Y-60657664D01*
X171206202Y-60657671D01*
X171155908Y-60792517D01*
X171149501Y-60852116D01*
X171149500Y-60852135D01*
X169875500Y-60852135D01*
X169875500Y-57893713D01*
X171134500Y-57893713D01*
X171134500Y-58106286D01*
X171167753Y-58316239D01*
X171233444Y-58518414D01*
X171329951Y-58707820D01*
X171454890Y-58879786D01*
X171605213Y-59030109D01*
X171777179Y-59155048D01*
X171777181Y-59155049D01*
X171777184Y-59155051D01*
X171966588Y-59251557D01*
X172168757Y-59317246D01*
X172378713Y-59350500D01*
X172378714Y-59350500D01*
X172591286Y-59350500D01*
X172591287Y-59350500D01*
X172801243Y-59317246D01*
X173003412Y-59251557D01*
X173192816Y-59155051D01*
X173279147Y-59092328D01*
X173364784Y-59030110D01*
X173364784Y-59030109D01*
X173364792Y-59030104D01*
X173478329Y-58916566D01*
X173539648Y-58883084D01*
X173609340Y-58888068D01*
X173665274Y-58929939D01*
X173682189Y-58960917D01*
X173731202Y-59092328D01*
X173731206Y-59092335D01*
X173817452Y-59207544D01*
X173817455Y-59207547D01*
X173932664Y-59293793D01*
X173932671Y-59293797D01*
X174067517Y-59344091D01*
X174067516Y-59344091D01*
X174074444Y-59344835D01*
X174127127Y-59350500D01*
X175922872Y-59350499D01*
X175982483Y-59344091D01*
X176117331Y-59293796D01*
X176232546Y-59207546D01*
X176318796Y-59092331D01*
X176369091Y-58957483D01*
X176375500Y-58897873D01*
X176375499Y-57102128D01*
X176369681Y-57048009D01*
X176369091Y-57042516D01*
X176318797Y-56907671D01*
X176318793Y-56907664D01*
X176232547Y-56792455D01*
X176232544Y-56792452D01*
X176117335Y-56706206D01*
X176117328Y-56706202D01*
X175982482Y-56655908D01*
X175982483Y-56655908D01*
X175922883Y-56649501D01*
X175922881Y-56649500D01*
X175922873Y-56649500D01*
X175922864Y-56649500D01*
X174127129Y-56649500D01*
X174127123Y-56649501D01*
X174067516Y-56655908D01*
X173932671Y-56706202D01*
X173932664Y-56706206D01*
X173817455Y-56792452D01*
X173817452Y-56792455D01*
X173731206Y-56907664D01*
X173731203Y-56907669D01*
X173682189Y-57039083D01*
X173640317Y-57095016D01*
X173574853Y-57119433D01*
X173506580Y-57104581D01*
X173478326Y-57083430D01*
X173364786Y-56969890D01*
X173192820Y-56844951D01*
X173003414Y-56748444D01*
X173003413Y-56748443D01*
X173003412Y-56748443D01*
X172801243Y-56682754D01*
X172801241Y-56682753D01*
X172801240Y-56682753D01*
X172639957Y-56657208D01*
X172591287Y-56649500D01*
X172378713Y-56649500D01*
X172330042Y-56657208D01*
X172168760Y-56682753D01*
X171966585Y-56748444D01*
X171777179Y-56844951D01*
X171605213Y-56969890D01*
X171454890Y-57120213D01*
X171329951Y-57292179D01*
X171233444Y-57481585D01*
X171233443Y-57481587D01*
X171233443Y-57481588D01*
X171217677Y-57530110D01*
X171167753Y-57683760D01*
X171134500Y-57893713D01*
X169875500Y-57893713D01*
X169875500Y-55688394D01*
X169875500Y-55188394D01*
X169851463Y-55067548D01*
X169820239Y-54992167D01*
X169804312Y-54953714D01*
X169770084Y-54902490D01*
X169735858Y-54851267D01*
X169735856Y-54851264D01*
X169645637Y-54761045D01*
X169645606Y-54761016D01*
X163603486Y-48718896D01*
X163570001Y-48657573D01*
X163567167Y-48631215D01*
X163567167Y-47890502D01*
X164579500Y-47890502D01*
X164579500Y-48109497D01*
X164590046Y-48189598D01*
X164608083Y-48326598D01*
X164608084Y-48326600D01*
X164664715Y-48537956D01*
X164664759Y-48538117D01*
X164748560Y-48740428D01*
X164748562Y-48740433D01*
X164748565Y-48740438D01*
X164858049Y-48930070D01*
X164991355Y-49103798D01*
X164991361Y-49103805D01*
X165146194Y-49258638D01*
X165146201Y-49258644D01*
X165319929Y-49391950D01*
X165509561Y-49501434D01*
X165509563Y-49501434D01*
X165509572Y-49501440D01*
X165711883Y-49585241D01*
X165923402Y-49641917D01*
X166140510Y-49670500D01*
X166140517Y-49670500D01*
X166359483Y-49670500D01*
X166359490Y-49670500D01*
X166576598Y-49641917D01*
X166788117Y-49585241D01*
X166990428Y-49501440D01*
X167180071Y-49391950D01*
X167353800Y-49258643D01*
X167508643Y-49103800D01*
X167641950Y-48930071D01*
X167751440Y-48740428D01*
X167835241Y-48538117D01*
X167891917Y-48326598D01*
X167920500Y-48109490D01*
X167920500Y-47890510D01*
X167920499Y-47890502D01*
X169579500Y-47890502D01*
X169579500Y-48109497D01*
X169590046Y-48189598D01*
X169608083Y-48326598D01*
X169608084Y-48326600D01*
X169664715Y-48537956D01*
X169664759Y-48538117D01*
X169748560Y-48740428D01*
X169748562Y-48740433D01*
X169748565Y-48740438D01*
X169858049Y-48930070D01*
X169991355Y-49103798D01*
X169991361Y-49103805D01*
X170146194Y-49258638D01*
X170146201Y-49258644D01*
X170319929Y-49391950D01*
X170509561Y-49501434D01*
X170509563Y-49501434D01*
X170509572Y-49501440D01*
X170711883Y-49585241D01*
X170923402Y-49641917D01*
X171140510Y-49670500D01*
X171140517Y-49670500D01*
X171359483Y-49670500D01*
X171359490Y-49670500D01*
X171576598Y-49641917D01*
X171788117Y-49585241D01*
X171990428Y-49501440D01*
X172180071Y-49391950D01*
X172353800Y-49258643D01*
X172508643Y-49103800D01*
X172641950Y-48930071D01*
X172751440Y-48740428D01*
X172835241Y-48538117D01*
X172891917Y-48326598D01*
X172920500Y-48109490D01*
X172920500Y-47890510D01*
X172920499Y-47890502D01*
X174579500Y-47890502D01*
X174579500Y-48109497D01*
X174590046Y-48189598D01*
X174608083Y-48326598D01*
X174608084Y-48326600D01*
X174664715Y-48537956D01*
X174664759Y-48538117D01*
X174748560Y-48740428D01*
X174748562Y-48740433D01*
X174748565Y-48740438D01*
X174858049Y-48930070D01*
X174991355Y-49103798D01*
X174991361Y-49103805D01*
X175146194Y-49258638D01*
X175146201Y-49258644D01*
X175319929Y-49391950D01*
X175509561Y-49501434D01*
X175509563Y-49501434D01*
X175509572Y-49501440D01*
X175711883Y-49585241D01*
X175923402Y-49641917D01*
X176140510Y-49670500D01*
X176140517Y-49670500D01*
X176359483Y-49670500D01*
X176359490Y-49670500D01*
X176576598Y-49641917D01*
X176788117Y-49585241D01*
X176990428Y-49501440D01*
X177180071Y-49391950D01*
X177353800Y-49258643D01*
X177508643Y-49103800D01*
X177641950Y-48930071D01*
X177751440Y-48740428D01*
X177835241Y-48538117D01*
X177891917Y-48326598D01*
X177920500Y-48109490D01*
X177920500Y-47890510D01*
X177891917Y-47673402D01*
X177835241Y-47461883D01*
X177751440Y-47259572D01*
X177749651Y-47256474D01*
X177641950Y-47069929D01*
X177508644Y-46896201D01*
X177508638Y-46896194D01*
X177353805Y-46741361D01*
X177353798Y-46741355D01*
X177180070Y-46608049D01*
X176990438Y-46498565D01*
X176990433Y-46498562D01*
X176990428Y-46498560D01*
X176788117Y-46414759D01*
X176788118Y-46414759D01*
X176788115Y-46414758D01*
X176682357Y-46386421D01*
X176576598Y-46358083D01*
X176524826Y-46351267D01*
X176359497Y-46329500D01*
X176359490Y-46329500D01*
X176140510Y-46329500D01*
X176140502Y-46329500D01*
X175933853Y-46356707D01*
X175923402Y-46358083D01*
X175878699Y-46370060D01*
X175711884Y-46414758D01*
X175593374Y-46463847D01*
X175509572Y-46498560D01*
X175509569Y-46498561D01*
X175509561Y-46498565D01*
X175319929Y-46608049D01*
X175146201Y-46741355D01*
X175146194Y-46741361D01*
X174991361Y-46896194D01*
X174991355Y-46896201D01*
X174858049Y-47069929D01*
X174748565Y-47259561D01*
X174748561Y-47259569D01*
X174748560Y-47259572D01*
X174730188Y-47303926D01*
X174664758Y-47461884D01*
X174608084Y-47673399D01*
X174608082Y-47673410D01*
X174579500Y-47890502D01*
X172920499Y-47890502D01*
X172891917Y-47673402D01*
X172835241Y-47461883D01*
X172751440Y-47259572D01*
X172749651Y-47256474D01*
X172641950Y-47069929D01*
X172508644Y-46896201D01*
X172508638Y-46896194D01*
X172353805Y-46741361D01*
X172353798Y-46741355D01*
X172180070Y-46608049D01*
X171990438Y-46498565D01*
X171990433Y-46498562D01*
X171990428Y-46498560D01*
X171788117Y-46414759D01*
X171788118Y-46414759D01*
X171788115Y-46414758D01*
X171682357Y-46386421D01*
X171576598Y-46358083D01*
X171524826Y-46351267D01*
X171359497Y-46329500D01*
X171359490Y-46329500D01*
X171140510Y-46329500D01*
X171140502Y-46329500D01*
X170933853Y-46356707D01*
X170923402Y-46358083D01*
X170878699Y-46370060D01*
X170711884Y-46414758D01*
X170593374Y-46463847D01*
X170509572Y-46498560D01*
X170509569Y-46498561D01*
X170509561Y-46498565D01*
X170319929Y-46608049D01*
X170146201Y-46741355D01*
X170146194Y-46741361D01*
X169991361Y-46896194D01*
X169991355Y-46896201D01*
X169858049Y-47069929D01*
X169748565Y-47259561D01*
X169748561Y-47259569D01*
X169748560Y-47259572D01*
X169730188Y-47303926D01*
X169664758Y-47461884D01*
X169608084Y-47673399D01*
X169608082Y-47673410D01*
X169579500Y-47890502D01*
X167920499Y-47890502D01*
X167891917Y-47673402D01*
X167835241Y-47461883D01*
X167751440Y-47259572D01*
X167749651Y-47256474D01*
X167641950Y-47069929D01*
X167508644Y-46896201D01*
X167508638Y-46896194D01*
X167353805Y-46741361D01*
X167353798Y-46741355D01*
X167180070Y-46608049D01*
X166990438Y-46498565D01*
X166990433Y-46498562D01*
X166990428Y-46498560D01*
X166788117Y-46414759D01*
X166788118Y-46414759D01*
X166788115Y-46414758D01*
X166682357Y-46386421D01*
X166576598Y-46358083D01*
X166524826Y-46351267D01*
X166359497Y-46329500D01*
X166359490Y-46329500D01*
X166140510Y-46329500D01*
X166140502Y-46329500D01*
X165933853Y-46356707D01*
X165923402Y-46358083D01*
X165878699Y-46370060D01*
X165711884Y-46414758D01*
X165593374Y-46463847D01*
X165509572Y-46498560D01*
X165509569Y-46498561D01*
X165509561Y-46498565D01*
X165319929Y-46608049D01*
X165146201Y-46741355D01*
X165146194Y-46741361D01*
X164991361Y-46896194D01*
X164991355Y-46896201D01*
X164858049Y-47069929D01*
X164748565Y-47259561D01*
X164748561Y-47259569D01*
X164748560Y-47259572D01*
X164730188Y-47303926D01*
X164664758Y-47461884D01*
X164608084Y-47673399D01*
X164608082Y-47673410D01*
X164579500Y-47890502D01*
X163567167Y-47890502D01*
X163567167Y-39881899D01*
X163586852Y-39814860D01*
X163639656Y-39769105D01*
X163643715Y-39767338D01*
X163682083Y-39751445D01*
X163682083Y-39751444D01*
X163682095Y-39751440D01*
X163871738Y-39641950D01*
X164045467Y-39508643D01*
X164200310Y-39353800D01*
X164333617Y-39180071D01*
X164443107Y-38990428D01*
X164526908Y-38788117D01*
X164583584Y-38576598D01*
X164612167Y-38359490D01*
X164612167Y-38140510D01*
X164583584Y-37923402D01*
X164526908Y-37711883D01*
X164443107Y-37509572D01*
X164333617Y-37319929D01*
X164242513Y-37201200D01*
X164200311Y-37146201D01*
X164200305Y-37146194D01*
X164045472Y-36991361D01*
X164045465Y-36991355D01*
X163871737Y-36858049D01*
X163682105Y-36748565D01*
X163682100Y-36748562D01*
X163682095Y-36748560D01*
X163479784Y-36664759D01*
X163479785Y-36664759D01*
X163479782Y-36664758D01*
X163366855Y-36634500D01*
X163268265Y-36608083D01*
X163231981Y-36603306D01*
X163051164Y-36579500D01*
X163051157Y-36579500D01*
X162832177Y-36579500D01*
X162832169Y-36579500D01*
X162625520Y-36606707D01*
X162615069Y-36608083D01*
X162570366Y-36620060D01*
X162403551Y-36664758D01*
X162285041Y-36713847D01*
X162201239Y-36748560D01*
X162201236Y-36748561D01*
X162201228Y-36748565D01*
X162011596Y-36858049D01*
X161837868Y-36991355D01*
X161837861Y-36991361D01*
X161683028Y-37146194D01*
X161683022Y-37146201D01*
X161549716Y-37319929D01*
X161440228Y-37509568D01*
X161440221Y-37509583D01*
X161424329Y-37547952D01*
X161380488Y-37602356D01*
X161314194Y-37624421D01*
X161309768Y-37624500D01*
X159573566Y-37624500D01*
X159506527Y-37604815D01*
X159460772Y-37552011D01*
X159459005Y-37547952D01*
X159443112Y-37509583D01*
X159443105Y-37509568D01*
X159333617Y-37319929D01*
X159200311Y-37146201D01*
X159200305Y-37146194D01*
X159045472Y-36991361D01*
X159045465Y-36991355D01*
X158871737Y-36858049D01*
X158682105Y-36748565D01*
X158682100Y-36748562D01*
X158682095Y-36748560D01*
X158479784Y-36664759D01*
X158479785Y-36664759D01*
X158479782Y-36664758D01*
X158366855Y-36634500D01*
X158268265Y-36608083D01*
X158231981Y-36603306D01*
X158051164Y-36579500D01*
X158051157Y-36579500D01*
X157832177Y-36579500D01*
X157832169Y-36579500D01*
X157625520Y-36606707D01*
X157615069Y-36608083D01*
X157570366Y-36620060D01*
X157403551Y-36664758D01*
X157285041Y-36713847D01*
X157201239Y-36748560D01*
X157201236Y-36748561D01*
X157201228Y-36748565D01*
X157011596Y-36858049D01*
X156837868Y-36991355D01*
X156837861Y-36991361D01*
X156683028Y-37146194D01*
X156683022Y-37146201D01*
X156549716Y-37319929D01*
X156440232Y-37509561D01*
X156440229Y-37509568D01*
X156440227Y-37509572D01*
X156422145Y-37553226D01*
X156356425Y-37711884D01*
X156299751Y-37923399D01*
X156299749Y-37923410D01*
X156271167Y-38140502D01*
X156271167Y-38359497D01*
X156294973Y-38540314D01*
X156299750Y-38576598D01*
X156309093Y-38611466D01*
X156356425Y-38788115D01*
X156356426Y-38788117D01*
X156440227Y-38990428D01*
X156440229Y-38990431D01*
X156440232Y-38990438D01*
X156549716Y-39180070D01*
X156683022Y-39353798D01*
X156683028Y-39353805D01*
X156837861Y-39508638D01*
X156837868Y-39508644D01*
X157011596Y-39641950D01*
X157201228Y-39751434D01*
X157201230Y-39751434D01*
X157201239Y-39751440D01*
X157403550Y-39835241D01*
X157615069Y-39891917D01*
X157832177Y-39920500D01*
X157832184Y-39920500D01*
X158051150Y-39920500D01*
X158051157Y-39920500D01*
X158268265Y-39891917D01*
X158479784Y-39835241D01*
X158682095Y-39751440D01*
X158871738Y-39641950D01*
X159045467Y-39508643D01*
X159200310Y-39353800D01*
X159333617Y-39180071D01*
X159443107Y-38990428D01*
X159455035Y-38961632D01*
X159459005Y-38952048D01*
X159502846Y-38897644D01*
X159569140Y-38875579D01*
X159573566Y-38875500D01*
X161309768Y-38875500D01*
X161376807Y-38895185D01*
X161422562Y-38947989D01*
X161424329Y-38952048D01*
X161440221Y-38990416D01*
X161440228Y-38990431D01*
X161549716Y-39180070D01*
X161683022Y-39353798D01*
X161683028Y-39353805D01*
X161837861Y-39508638D01*
X161837868Y-39508644D01*
X162011596Y-39641950D01*
X162201235Y-39751438D01*
X162201250Y-39751445D01*
X162239619Y-39767338D01*
X162294023Y-39811179D01*
X162316088Y-39877473D01*
X162316167Y-39881899D01*
X162316167Y-45882215D01*
X162296482Y-45949254D01*
X162243678Y-45995009D01*
X162174520Y-46004953D01*
X162110964Y-45975928D01*
X162104486Y-45969896D01*
X153993150Y-37858560D01*
X153985860Y-37851270D01*
X153985858Y-37851267D01*
X153898733Y-37764142D01*
X153847509Y-37729915D01*
X153796286Y-37695688D01*
X153796283Y-37695686D01*
X153796280Y-37695685D01*
X153722603Y-37665168D01*
X153722601Y-37665167D01*
X153715792Y-37662347D01*
X153682452Y-37648537D01*
X153622029Y-37636518D01*
X153617306Y-37635578D01*
X153617304Y-37635578D01*
X153561610Y-37624500D01*
X153561607Y-37624500D01*
X153561606Y-37624500D01*
X152765232Y-37624500D01*
X152698193Y-37604815D01*
X152652438Y-37552011D01*
X152650671Y-37547952D01*
X152634778Y-37509583D01*
X152634771Y-37509568D01*
X152525283Y-37319929D01*
X152391977Y-37146201D01*
X152391971Y-37146194D01*
X152237138Y-36991361D01*
X152237131Y-36991355D01*
X152063403Y-36858049D01*
X151873771Y-36748565D01*
X151873766Y-36748562D01*
X151873761Y-36748560D01*
X151671450Y-36664759D01*
X151671451Y-36664759D01*
X151671448Y-36664758D01*
X151558521Y-36634500D01*
X151459931Y-36608083D01*
X151423647Y-36603306D01*
X151242830Y-36579500D01*
X151242823Y-36579500D01*
X151023843Y-36579500D01*
X151023835Y-36579500D01*
X150817186Y-36606707D01*
X150806735Y-36608083D01*
X150762032Y-36620060D01*
X150595217Y-36664758D01*
X150476707Y-36713847D01*
X150392905Y-36748560D01*
X150392902Y-36748561D01*
X150392894Y-36748565D01*
X150203262Y-36858049D01*
X150029534Y-36991355D01*
X150029527Y-36991361D01*
X149874694Y-37146194D01*
X149874688Y-37146201D01*
X149741382Y-37319929D01*
X149631894Y-37509568D01*
X149631887Y-37509583D01*
X149615995Y-37547952D01*
X149572154Y-37602356D01*
X149505860Y-37624421D01*
X149501434Y-37624500D01*
X147765232Y-37624500D01*
X147698193Y-37604815D01*
X147652438Y-37552011D01*
X147650671Y-37547952D01*
X147634778Y-37509583D01*
X147634771Y-37509568D01*
X147525283Y-37319929D01*
X147391977Y-37146201D01*
X147391971Y-37146194D01*
X147237138Y-36991361D01*
X147237131Y-36991355D01*
X147063403Y-36858049D01*
X146873771Y-36748565D01*
X146873766Y-36748562D01*
X146873761Y-36748560D01*
X146671450Y-36664759D01*
X146671451Y-36664759D01*
X146671448Y-36664758D01*
X146558521Y-36634500D01*
X146459931Y-36608083D01*
X146423647Y-36603306D01*
X146242830Y-36579500D01*
X146242823Y-36579500D01*
X146023843Y-36579500D01*
X146023835Y-36579500D01*
X145817186Y-36606707D01*
X145806735Y-36608083D01*
X145762032Y-36620060D01*
X145595217Y-36664758D01*
X145476707Y-36713847D01*
X145392905Y-36748560D01*
X145392902Y-36748561D01*
X145392894Y-36748565D01*
X145203262Y-36858049D01*
X145029534Y-36991355D01*
X145029527Y-36991361D01*
X144874694Y-37146194D01*
X144874688Y-37146201D01*
X144741382Y-37319929D01*
X144631898Y-37509561D01*
X144631895Y-37509568D01*
X144631893Y-37509572D01*
X144613811Y-37553226D01*
X144548091Y-37711884D01*
X144491417Y-37923399D01*
X144491415Y-37923410D01*
X144462833Y-38140502D01*
X142803832Y-38140502D01*
X142775250Y-37923402D01*
X142718574Y-37711883D01*
X142634773Y-37509572D01*
X142525283Y-37319929D01*
X142434179Y-37201200D01*
X142391977Y-37146201D01*
X142391971Y-37146194D01*
X142237138Y-36991361D01*
X142237131Y-36991355D01*
X142063403Y-36858049D01*
X141873771Y-36748565D01*
X141873766Y-36748562D01*
X141873761Y-36748560D01*
X141671450Y-36664759D01*
X141671451Y-36664759D01*
X141671448Y-36664758D01*
X141558521Y-36634500D01*
X141459931Y-36608083D01*
X141423647Y-36603306D01*
X141242830Y-36579500D01*
X141242823Y-36579500D01*
X141023843Y-36579500D01*
X141023835Y-36579500D01*
X140817186Y-36606707D01*
X140806735Y-36608083D01*
X140762032Y-36620060D01*
X140595217Y-36664758D01*
X140476707Y-36713847D01*
X140392905Y-36748560D01*
X140392902Y-36748561D01*
X140392894Y-36748565D01*
X140203262Y-36858049D01*
X140029534Y-36991355D01*
X140029527Y-36991361D01*
X139874694Y-37146194D01*
X139874688Y-37146201D01*
X139741382Y-37319929D01*
X139631898Y-37509561D01*
X139631895Y-37509568D01*
X139631893Y-37509572D01*
X139613811Y-37553226D01*
X139548091Y-37711884D01*
X139491417Y-37923399D01*
X139491415Y-37923410D01*
X139462833Y-38140502D01*
X135913258Y-38140502D01*
X135907405Y-38096049D01*
X135891917Y-37978402D01*
X135835241Y-37766883D01*
X135751440Y-37564572D01*
X135744889Y-37553226D01*
X135641950Y-37374929D01*
X135508644Y-37201201D01*
X135508638Y-37201194D01*
X135353805Y-37046361D01*
X135353798Y-37046355D01*
X135180070Y-36913049D01*
X134990438Y-36803565D01*
X134990433Y-36803562D01*
X134990428Y-36803560D01*
X134788117Y-36719759D01*
X134788118Y-36719759D01*
X134788115Y-36719758D01*
X134682357Y-36691421D01*
X134576598Y-36663083D01*
X134540314Y-36658306D01*
X134359497Y-36634500D01*
X134359490Y-36634500D01*
X134140510Y-36634500D01*
X134140502Y-36634500D01*
X133933853Y-36661707D01*
X133923402Y-36663083D01*
X133878699Y-36675060D01*
X133711884Y-36719758D01*
X133593374Y-36768847D01*
X133509572Y-36803560D01*
X133509569Y-36803561D01*
X133509561Y-36803565D01*
X133319929Y-36913049D01*
X133146201Y-37046355D01*
X133146194Y-37046361D01*
X132991361Y-37201194D01*
X132991355Y-37201201D01*
X132858049Y-37374929D01*
X132748565Y-37564561D01*
X132748561Y-37564569D01*
X132748560Y-37564572D01*
X132723737Y-37624500D01*
X132664758Y-37766884D01*
X132608084Y-37978399D01*
X132608082Y-37978410D01*
X132579500Y-38195502D01*
X130920499Y-38195502D01*
X130891917Y-37978402D01*
X130835241Y-37766883D01*
X130751440Y-37564572D01*
X130744889Y-37553226D01*
X130641950Y-37374929D01*
X130508644Y-37201201D01*
X130508638Y-37201194D01*
X130353805Y-37046361D01*
X130353798Y-37046355D01*
X130180070Y-36913049D01*
X129990438Y-36803565D01*
X129990433Y-36803562D01*
X129990428Y-36803560D01*
X129788117Y-36719759D01*
X129788118Y-36719759D01*
X129788115Y-36719758D01*
X129682357Y-36691421D01*
X129576598Y-36663083D01*
X129540314Y-36658306D01*
X129359497Y-36634500D01*
X129359490Y-36634500D01*
X129140510Y-36634500D01*
X129140502Y-36634500D01*
X128933853Y-36661707D01*
X128923402Y-36663083D01*
X128878699Y-36675060D01*
X128711884Y-36719758D01*
X128593374Y-36768847D01*
X128509572Y-36803560D01*
X128509569Y-36803561D01*
X128509561Y-36803565D01*
X128319929Y-36913049D01*
X128146201Y-37046355D01*
X128146194Y-37046361D01*
X127991361Y-37201194D01*
X127991355Y-37201201D01*
X127858049Y-37374929D01*
X127748565Y-37564561D01*
X127748561Y-37564569D01*
X127748560Y-37564572D01*
X127723737Y-37624500D01*
X127664758Y-37766884D01*
X127608084Y-37978399D01*
X127608082Y-37978410D01*
X127579500Y-38195502D01*
X125920499Y-38195502D01*
X125891917Y-37978402D01*
X125835241Y-37766883D01*
X125751440Y-37564572D01*
X125744889Y-37553226D01*
X125641950Y-37374929D01*
X125508644Y-37201201D01*
X125508638Y-37201194D01*
X125353805Y-37046361D01*
X125353798Y-37046355D01*
X125180070Y-36913049D01*
X124990438Y-36803565D01*
X124990433Y-36803562D01*
X124990428Y-36803560D01*
X124788117Y-36719759D01*
X124788118Y-36719759D01*
X124788115Y-36719758D01*
X124682357Y-36691421D01*
X124576598Y-36663083D01*
X124540314Y-36658306D01*
X124359497Y-36634500D01*
X124359490Y-36634500D01*
X124140510Y-36634500D01*
X124140502Y-36634500D01*
X123933853Y-36661707D01*
X123923402Y-36663083D01*
X123878699Y-36675060D01*
X123711884Y-36719758D01*
X123593374Y-36768847D01*
X123509572Y-36803560D01*
X123509569Y-36803561D01*
X123509561Y-36803565D01*
X123319929Y-36913049D01*
X123146201Y-37046355D01*
X123146194Y-37046361D01*
X122991361Y-37201194D01*
X122991355Y-37201201D01*
X122858049Y-37374929D01*
X122748565Y-37564561D01*
X122748561Y-37564569D01*
X122748560Y-37564572D01*
X122723737Y-37624500D01*
X122664758Y-37766884D01*
X122608084Y-37978399D01*
X122608082Y-37978410D01*
X122579500Y-38195502D01*
X116425086Y-38195502D01*
X116421404Y-38167537D01*
X116363710Y-37952219D01*
X116278405Y-37746274D01*
X116166948Y-37553226D01*
X116031247Y-37376376D01*
X116031242Y-37376370D01*
X115873629Y-37218757D01*
X115873622Y-37218751D01*
X115696782Y-37083058D01*
X115696780Y-37083057D01*
X115696774Y-37083052D01*
X115503726Y-36971595D01*
X115503722Y-36971593D01*
X115297790Y-36886293D01*
X115297783Y-36886291D01*
X115297781Y-36886290D01*
X115082463Y-36828596D01*
X115082457Y-36828595D01*
X115082452Y-36828594D01*
X114861466Y-36799501D01*
X114861463Y-36799500D01*
X114861457Y-36799500D01*
X114638543Y-36799500D01*
X114638537Y-36799500D01*
X114638533Y-36799501D01*
X114417547Y-36828594D01*
X114417540Y-36828595D01*
X114417537Y-36828596D01*
X114307613Y-36858050D01*
X114202219Y-36886290D01*
X114202209Y-36886293D01*
X113996277Y-36971593D01*
X113996273Y-36971595D01*
X113803226Y-37083052D01*
X113803217Y-37083058D01*
X113626377Y-37218751D01*
X113626370Y-37218757D01*
X113468757Y-37376370D01*
X113468751Y-37376377D01*
X113333058Y-37553217D01*
X113333052Y-37553226D01*
X113221595Y-37746273D01*
X113221593Y-37746277D01*
X113136293Y-37952209D01*
X113136290Y-37952219D01*
X113078597Y-38167534D01*
X113078594Y-38167547D01*
X113049501Y-38388533D01*
X113049500Y-38388549D01*
X111250500Y-38388549D01*
X111250500Y-34874500D01*
X111270185Y-34807461D01*
X111322989Y-34761706D01*
X111374500Y-34750500D01*
X208625500Y-34750500D01*
X208692539Y-34770185D01*
G37*
%TD.AperFunction*%
%TD*%
M02*
